g EyeLens
v -0.0548404679 1.36891019 0.0589178838
v -0.0514639542 1.37192893 0.0597492456
v -0.0519281104 1.36676693 0.0603867099
v -0.0568012409 1.36570621 0.0581124388
v -0.0486419871 1.37290704 0.060346473
v -0.0584446117 1.36148036 0.0575502962
v -0.044218827 1.37064624 0.061939545
v -0.045101244 1.37364316 0.0607911907
v -0.0415849052 1.37419021 0.0612133108
v -0.0353673436 1.36974609 0.0629851967
v -0.0382588394 1.37379122 0.0616038777
v -0.0348403007 1.37248623 0.0620951243
v -0.0315022469 1.37004876 0.0627363846
v -0.0287551619 1.36676514 0.0629971847
v -0.0419059694 1.35520065 0.0633499548
v -0.0554364473 1.35899639 0.0596375689
v -0.0588589311 1.35893703 0.0571198985
v -0.059153609 1.35596299 0.0566923656
v -0.0586094856 1.35281098 0.0564859472
v -0.0296442565 1.36221004 0.064247109
v -0.0262889639 1.36216021 0.0630440414
v -0.0253056455 1.35841858 0.0630539432
v -0.0250507537 1.35519528 0.0627608001
v -0.0547376722 1.35138547 0.059476383
v -0.0499170534 1.34243882 0.0599599108
v -0.0576947927 1.35017145 0.0566375628
v -0.0562341884 1.34738076 0.0567998104
v -0.0535917319 1.34424233 0.0573356003
v -0.0512509532 1.34230483 0.0580920577
v -0.0480822064 1.3400296 0.0588773713
v -0.0444226861 1.33917952 0.0596055016
v -0.0281642098 1.35263515 0.0637085512
v -0.025780499 1.35060728 0.0624951348
v -0.0271390211 1.34728861 0.0620798282
v -0.041533649 1.3393997 0.0604373142
v -0.04134918 1.33880174 0.0600964502
v -0.0380054861 1.33914733 0.0604993328
v -0.0344419964 1.34027719 0.0607957654
v -0.0331796668 1.3424952 0.0615779869
v -0.0290796962 1.34444094 0.0615965649
v -0.0314517505 1.34233916 0.0612763688
v 0.0548404679 1.36891019 0.0589178838
v 0.0519281104 1.36676693 0.0603867099
v 0.0514639542 1.37192893 0.0597492456
v 0.0568012409 1.36570621 0.0581124388
v 0.0486419871 1.37290704 0.060346473
v 0.0584446117 1.36148036 0.0575502962
v 0.044218827 1.37064624 0.061939545
v 0.045101244 1.37364316 0.0607911907
v 0.0415849052 1.37419021 0.0612133108
v 0.0353673436 1.36974609 0.0629851967
v 0.0382588394 1.37379122 0.0616038777
v 0.0348403007 1.37248623 0.0620951243
v 0.0315022469 1.37004876 0.0627363846
v 0.0287551619 1.36676514 0.0629971847
v 0.0419059694 1.35520065 0.0633499548
v 0.0554364473 1.35899639 0.0596375689
v 0.0588589311 1.35893703 0.0571198985
v 0.059153609 1.35596299 0.0566923656
v 0.0586094856 1.35281098 0.0564859472
v 0.0296442565 1.36221004 0.064247109
v 0.0262889639 1.36216021 0.0630440414
v 0.0253056455 1.35841858 0.0630539432
v 0.0250507537 1.35519528 0.0627608001
v 0.0547376722 1.35138547 0.059476383
v 0.0499170534 1.34243882 0.0599599108
v 0.0576947927 1.35017145 0.0566375628
v 0.0562341884 1.34738076 0.0567998104
v 0.0535917319 1.34424233 0.0573356003
v 0.0512509532 1.34230483 0.0580920577
v 0.0480822064 1.3400296 0.0588773713
v 0.0444226861 1.33917952 0.0596055016
v 0.0281642098 1.35263515 0.0637085512
v 0.025780499 1.35060728 0.0624951348
v 0.0271390211 1.34728861 0.0620798282
v 0.041533649 1.3393997 0.0604373142
v 0.04134918 1.33880174 0.0600964502
v 0.0380054861 1.33914733 0.0604993328
v 0.0344419964 1.34027719 0.0607957654
v 0.0331796668 1.3424952 0.0615779869
v 0.0290796962 1.34444094 0.0615965649
v 0.0314517505 1.34233916 0.0612763688
vt 0.172973633 0.826171875
vt 0.258544922 0.905761719
vt 0.246337891 0.76953125
vt 0.123535156 0.7421875
vt 0.330078125 0.931640625
vt 0.0819702148 0.630859375
vt 0.442138672 0.871582031
vt 0.420166016 0.950683594
vt 0.509765625 0.965332031
vt 0.667480469 0.84765625
vt 0.594238281 0.954589844
vt 0.681640625 0.920410156
vt 0.766601562 0.855957031
vt 0.836425781 0.769042969
vt 0.5 0.463867188
vt 0.157348633 0.565429688
vt 0.0717163086 0.564453125
vt 0.064453125 0.486083984
vt 0.0784912109 0.403320312
vt 0.813476562 0.648925781
vt 0.899414062 0.647949219
vt 0.924316406 0.549316406
vt 0.931152344 0.464111328
vt 0.173950195 0.364746094
vt 0.278564453 0.12902832
vt 0.101196289 0.333984375
vt 0.132568359 0.260498047
vt 0.187866211 0.177734375
vt 0.243774414 0.126342773
vt 0.329101562 0.0661621094
vt 0.43359375 0.0434265137
vt 0.8515625 0.396484375
vt 0.912597656 0.343261719
vt 0.879394531 0.256103516
vt 0.516113281 0.048828125
vt 0.521972656 0.0332336426
vt 0.617675781 0.0421447754
vt 0.71484375 0.0717773438
vt 0.743652344 0.129882812
vt 0.837890625 0.181152344
vt 0.786132812 0.125854492
vt 0.823730469 0.826171875
vt 0.750488281 0.76953125
vt 0.73828125 0.905761719
vt 0.873535156 0.7421875
vt 0.666503906 0.931640625
vt 0.915039062 0.630859375
vt 0.5546875 0.871582031
vt 0.576660156 0.950683594
vt 0.487060547 0.965332031
vt 0.329101562 0.84765625
vt 0.40234375 0.954589844
vt 0.315429688 0.920410156
vt 0.23046875 0.855957031
vt 0.160400391 0.769042969
vt 0.496582031 0.463867188
vt 0.839355469 0.565429688
vt 0.925292969 0.564453125
vt 0.932617188 0.486083984
vt 0.918457031 0.403320312
vt 0.18347168 0.648925781
vt 0.0974121094 0.647949219
vt 0.0723266602 0.549316406
vt 0.0657348633 0.464111328
vt 0.822753906 0.364746094
vt 0.718261719 0.12902832
vt 0.895507812 0.333984375
vt 0.864257812 0.260498047
vt 0.809082031 0.177734375
vt 0.752929688 0.126342773
vt 0.66796875 0.0661621094
vt 0.562988281 0.0434265137
vt 0.145507812 0.396484375
vt 0.0842895508 0.343261719
vt 0.117492676 0.256103516
vt 0.48046875 0.048828125
vt 0.475097656 0.0332336426
vt 0.379150391 0.0421447754
vt 0.282226562 0.0717773438
vt 0.253417969 0.129882812
vt 0.159057617 0.181152344
vt 0.2109375 0.125854492
vn -0.394806385 0.0901388302 0.914331973
vn -0.274258941 0.146670118 0.950405121
vn -0.281010777 0.0655478463 0.957463503
vn -0.463846743 0.0986214802 0.880409062
vn -0.25737226 0.156998768 0.953473032
vn -0.481835991 0.0887405723 0.871756375
vn -0.167116672 0.10616421 0.980204642
vn -0.171904355 0.307947069 0.935744286
vn -0.0919736996 0.268287927 0.958938181
vn -0.0803853795 0.12151055 0.989329755
vn -0.0815710276 0.266538441 0.960366368
vn 0.00414381782 0.308214039 0.951307952
vn 0.0887613669 0.216359243 0.972270608
vn 0.117400937 0.20799312 0.971059144
vn -0.145525128 -0.059529189 0.987561941
vn -0.357688516 0.00116423506 0.933840215
vn -0.591241181 -0.0503373891 0.804922283
vn -0.599636674 -0.0929350927 0.7948578
vn -0.605066299 -0.105156437 0.789200246
vn -0.0106309708 0.0397815108 0.999151826
vn 0.336277038 0.132887051 0.932340503
vn 0.276708901 -0.0177071821 0.960790575
vn 0.281601876 -0.0336345136 0.958941698
vn -0.374139786 -0.110731632 0.920737684
vn -0.254980505 -0.196548492 0.946759582
vn -0.623977482 -0.227971092 0.747449934
vn -0.609857798 -0.310857326 0.729000211
vn -0.611459374 -0.320199221 0.723595142
vn -0.62425679 -0.608911395 0.489418358
vn -0.277772039 -0.522898078 0.805866241
vn -0.245333984 -0.504465818 0.827843964
vn 0.0192667618 -0.126525745 0.991776228
vn 0.316302121 -0.184942126 0.930456519
vn 0.136257187 -0.259311229 0.956133664
vn -0.0972323939 -0.201457456 0.974659324
vn -0.110807173 -0.517858028 0.848259866
vn -0.0127677768 -0.29223597 0.956260979
vn -0.00685694441 -0.294667125 0.955575347
vn -0.0406331643 -0.196162522 0.979729176
vn 0.127619863 -0.261270255 0.956791997
vn 0.134318516 -0.323409766 0.936677456
vn 0.394811451 0.0901392177 0.914329767
vn 0.281010419 0.0655477196 0.957463622
vn 0.274259418 0.146670431 0.950405002
vn 0.463842899 0.0986202732 0.880411088
vn 0.257373065 0.156999663 0.953472674
vn 0.481831461 0.0887393877 0.871758997
vn 0.167116567 0.106163755 0.980204761
vn 0.171905115 0.307948142 0.935743868
vn 0.0919722691 0.268283457 0.958939493
vn 0.0803854838 0.121510126 0.989329755
vn 0.0815699771 0.266534299 0.96036756
vn -0.00414366322 0.308209121 0.951309562
vn -0.0887622461 0.216361657 0.972269952
vn -0.117402747 0.207995534 0.971058488
vn 0.145525232 -0.0595291518 0.987561941
vn 0.357687831 0.00116391026 0.933840513
vn 0.591243148 -0.0503376164 0.804920912
vn 0.59963727 -0.0929351971 0.794857323
vn 0.605064929 -0.10515593 0.78920126
vn 0.0106308665 0.0397814773 0.999151826
vn -0.336279899 0.132887855 0.932339251
vn -0.276709199 -0.0177072957 0.960790515
vn -0.281602114 -0.0336345099 0.958941579
vn 0.37414068 -0.11073187 0.920737386
vn 0.254979938 -0.196547657 0.94675988
vn 0.623977065 -0.22797206 0.747449934
vn 0.609864831 -0.310860842 0.72899276
vn 0.611465454 -0.32020238 0.723588586
vn 0.624251008 -0.608905971 0.489432693
vn 0.277767062 -0.522889018 0.805873752
vn 0.245330215 -0.504457951 0.827849746
vn -0.0192667954 -0.12652567 0.991776228
vn -0.316303313 -0.184942037 0.930456221
vn -0.136257917 -0.259312123 0.956133425
vn 0.0972321406 -0.201455921 0.974659622
vn 0.110795297 -0.517803013 0.848294914
vn 0.0127671557 -0.292235523 0.956261158
vn 0.00685687643 -0.294665754 0.955575764
vn 0.0406336486 -0.196161777 0.979729295
vn -0.127620339 -0.261271268 0.956791699
vn -0.134315699 -0.323401541 0.936680734
g EyeLens_0
f 3/3/3 2/2/2 1/1/1
f 3/3/3 1/1/1 4/4/4
f 5/5/5 2/2/2 3/3/3
f 4/4/4 6/6/6 3/3/3
f 7/7/7 5/5/5 3/3/3
f 8/8/8 5/5/5 7/7/7
f 9/9/9 8/8/8 7/7/7
f 9/9/9 7/7/7 10/10/10
f 11/11/11 9/9/9 10/10/10
f 12/12/12 11/11/11 10/10/10
f 12/12/12 10/10/10 13/13/13
f 13/13/13 10/10/10 14/14/14
f 7/7/7 3/3/3 15/15/15
f 10/10/10 7/7/7 15/15/15
f 3/3/3 16/16/16 15/15/15
f 6/6/6 16/16/16 3/3/3
f 6/6/6 17/17/17 16/16/16
f 16/16/16 17/17/17 18/18/18
f 18/18/18 19/19/19 16/16/16
f 10/10/10 20/20/20 14/14/14
f 15/15/15 20/20/20 10/10/10
f 21/21/21 14/14/14 20/20/20
f 22/22/22 21/21/21 20/20/20
f 22/22/22 20/20/20 23/23/23
f 19/19/19 24/24/24 16/16/16
f 16/16/16 24/24/24 15/15/15
f 15/15/15 24/24/24 25/25/25
f 26/26/26 24/24/24 19/19/19
f 27/27/27 24/24/24 26/26/26
f 25/25/25 24/24/24 27/27/27
f 28/28/28 25/25/25 27/27/27
f 25/25/25 28/28/28 29/29/29
f 25/25/25 29/29/29 30/30/30
f 30/30/30 31/31/31 25/25/25
f 20/20/20 32/32/32 23/23/23
f 15/15/15 32/32/32 20/20/20
f 33/33/33 23/23/23 32/32/32
f 32/32/32 34/34/34 33/33/33
f 31/31/31 35/35/35 25/25/25
f 25/25/25 35/35/35 15/15/15
f 31/31/31 36/36/36 35/35/35
f 36/36/36 37/37/37 35/35/35
f 37/37/37 38/38/38 35/35/35
f 32/32/32 39/39/39 34/34/34
f 15/15/15 39/39/39 32/32/32
f 35/35/35 39/39/39 15/15/15
f 38/38/38 39/39/39 35/35/35
f 39/39/39 40/40/40 34/34/34
f 41/41/41 39/39/39 38/38/38
f 40/40/40 39/39/39 41/41/41
f 44/44/44 43/43/43 42/42/42
f 42/42/42 43/43/43 45/45/45
f 44/44/44 46/46/46 43/43/43
f 47/47/47 45/45/45 43/43/43
f 46/46/46 48/48/48 43/43/43
f 46/46/46 49/49/49 48/48/48
f 49/49/49 50/50/50 48/48/48
f 48/48/48 50/50/50 51/51/51
f 50/50/50 52/52/52 51/51/51
f 52/52/52 53/53/53 51/51/51
f 51/51/51 53/53/53 54/54/54
f 51/51/51 54/54/54 55/55/55
f 43/43/43 48/48/48 56/56/56
f 48/48/48 51/51/51 56/56/56
f 57/57/57 43/43/43 56/56/56
f 57/57/57 47/47/47 43/43/43
f 58/58/58 47/47/47 57/57/57
f 58/58/58 57/57/57 59/59/59
f 60/60/60 59/59/59 57/57/57
f 61/61/61 51/51/51 55/55/55
f 61/61/61 56/56/56 51/51/51
f 55/55/55 62/62/62 61/61/61
f 62/62/62 63/63/63 61/61/61
f 61/61/61 63/63/63 64/64/64
f 65/65/65 60/60/60 57/57/57
f 65/65/65 57/57/57 56/56/56
f 65/65/65 56/56/56 66/66/66
f 65/65/65 67/67/67 60/60/60
f 65/65/65 68/68/68 67/67/67
f 65/65/65 66/66/66 68/68/68
f 66/66/66 69/69/69 68/68/68
f 69/69/69 66/66/66 70/70/70
f 70/70/70 66/66/66 71/71/71
f 72/72/72 71/71/71 66/66/66
f 73/73/73 61/61/61 64/64/64
f 73/73/73 56/56/56 61/61/61
f 64/64/64 74/74/74 73/73/73
f 75/75/75 73/73/73 74/74/74
f 76/76/76 72/72/72 66/66/66
f 76/76/76 66/66/66 56/56/56
f 77/77/77 72/72/72 76/76/76
f 78/78/78 77/77/77 76/76/76
f 79/79/79 78/78/78 76/76/76
f 80/80/80 73/73/73 75/75/75
f 80/80/80 56/56/56 73/73/73
f 80/80/80 76/76/76 56/56/56
f 80/80/80 79/79/79 76/76/76
f 81/81/81 80/80/80 75/75/75
f 80/80/80 82/82/82 79/79/79
f 80/80/80 81/81/81 82/82/82
