g EyeShadow
v 0.0512087792 1.37190366 0.0633269846
v 0.0542092174 1.36881173 0.0620021857
v 0.0507391877 1.37022758 0.063337341
v 0.0549257845 1.37051296 0.0617040321
v 0.0571695492 1.36712456 0.060232453
v 0.0579373837 1.3688482 0.0600649789
v 0.0599506833 1.36505079 0.0582824349
v 0.0609013438 1.36637414 0.0580389909
v 0.0632864609 1.36369228 0.0560254604
v 0.062488012 1.36275148 0.0563225783
v 0.0640917569 1.360497 0.0546610802
v 0.0647925287 1.36096692 0.0542734787
v 0.0653880984 1.35840726 0.0533601306
v 0.0236255303 1.36299026 0.0648308024
v 0.0265779346 1.36537075 0.0647375584
v 0.0266208649 1.36486971 0.0646377578
v 0.0303511117 1.36709833 0.0646586195
v 0.0298614446 1.36799586 0.0648058578
v 0.034072116 1.36938059 0.0648553073
v 0.0335368514 1.37066376 0.0648899674
v 0.0366158038 1.37036014 0.0647848845
v 0.036362756 1.37203157 0.06495516
v 0.0383538231 1.37268448 0.0650037155
v 0.0385037288 1.37086546 0.0648353249
v 0.0405269004 1.37302864 0.064924404
v 0.0406856053 1.37115252 0.0647191629
v 0.0435643941 1.3712455 0.0645612106
v 0.043656569 1.37324536 0.0646728128
v 0.0468352698 1.37296844 0.0643069148
v 0.0464978702 1.37095106 0.0642631054
v 0.0512087792 1.37190366 0.0633269846
v 0.0507391877 1.37022758 0.063337341
v -0.0512087792 1.37190366 0.0633269846
v -0.0507391877 1.37022758 0.063337341
v -0.0542092174 1.36881173 0.0620021857
v -0.0549257845 1.37051296 0.0617040321
v -0.0571695492 1.36712456 0.060232453
v -0.0579373837 1.3688482 0.0600649789
v -0.0599506833 1.36505079 0.0582824349
v -0.0609013438 1.36637414 0.0580389909
v -0.0632864609 1.36369228 0.0560254604
v -0.062488012 1.36275148 0.0563225783
v -0.0640917569 1.360497 0.0546610802
v -0.0647925287 1.36096692 0.0542734787
v -0.0653880984 1.35840726 0.0533601306
v -0.0236255303 1.36299026 0.0648308024
v -0.0266208649 1.36486971 0.0646377578
v -0.0265779346 1.36537075 0.0647375584
v -0.0303511117 1.36709833 0.0646586195
v -0.0298614446 1.36799586 0.0648058578
v -0.034072116 1.36938059 0.0648553073
v -0.0335368514 1.37066376 0.0648899674
v -0.0366158038 1.37036014 0.0647848845
v -0.036362756 1.37203157 0.06495516
v -0.0383538231 1.37268448 0.0650037155
v -0.0385037288 1.37086546 0.0648353249
v -0.0405269004 1.37302864 0.064924404
v -0.0406856053 1.37115252 0.0647191629
v -0.0435643941 1.3712455 0.0645612106
v -0.043656569 1.37324536 0.0646728128
v -0.0468352698 1.37296844 0.0643069148
v -0.0464978702 1.37095106 0.0642631054
v -0.0512087792 1.37190366 0.0633269846
v -0.0507391877 1.37022758 0.063337341
vt 0.375 0
vt 0.415212631 0
vt 0.385930508 0
vt 0.375 0.0343493111
vt 0.455425262 0
vt 0.375 0.0686986223
vt 0.495637894 0
vt 0.375 0.103047937
vt 0.375 0.137397245
vt 0.535850525 0
vt 0.625 0
vt 0.375 0.25
vt 0.574241638 0.201364085
vt 0.4375 0.125
vt 0.472724974 0.25
vt 0.625 0.104092248
vt 0.625 0.14056918
vt 0.510793686 0.25
vt 0.625 0.17704612
vt 0.548862457 0.25
vt 0.625 0.189153731
vt 0.566187382 0.25
vt 0.583243251 0.25
vt 0.625 0.201458842
vt 0.60616374 0.25
vt 0.625 0.217733964
vt 0.625 0.222961605
vt 0.61558187 0.25
vt 0.620290935 0.25
vt 0.625 0.225575432
vt 0.625 0.25
vt 0.625 0.22818926
vt 0.375 0
vt 0.385930508 0
vt 0.415212631 0
vt 0.375 0.0343493111
vt 0.455425262 0
vt 0.375 0.0686986223
vt 0.495637894 0
vt 0.375 0.103047937
vt 0.375 0.137397245
vt 0.535850525 0
vt 0.625 0
vt 0.375 0.25
vt 0.574241638 0.201364085
vt 0.4375 0.125
vt 0.625 0.104092248
vt 0.472724974 0.25
vt 0.625 0.14056918
vt 0.510793686 0.25
vt 0.625 0.17704612
vt 0.548862457 0.25
vt 0.625 0.189153731
vt 0.566187382 0.25
vt 0.583243251 0.25
vt 0.625 0.201458842
vt 0.60616374 0.25
vt 0.625 0.217733964
vt 0.625 0.222961605
vt 0.61558187 0.25
vt 0.620290935 0.25
vt 0.625 0.225575432
vt 0.625 0.25
vt 0.625 0.22818926
vn 0.209540457 -0.211511284 0.954649568
vn 0.257299274 -0.281501442 0.924420953
vn 0.212582037 -0.213174179 0.953606665
vn 0.25808692 -0.291706204 0.921031237
vn 0.290119141 -0.353117466 0.889459968
vn 0.287908196 -0.352442324 0.89044553
vn 0.487065017 -0.166093767 0.857426643
vn 0.486789316 -0.165697515 0.857659817
vn 0.39560166 -0.340730369 0.85287869
vn 0.412861347 -0.335053235 0.846926689
vn 0.542127013 -0.272061557 0.795035064
vn 0.549747765 -0.263720602 0.792608798
vn 0.601976216 -0.199057877 0.773304999
vn -0.131475016 0.0533957742 0.989880443
vn 0.0390357636 -0.214346394 0.975977421
vn 0.0506184325 -0.231966943 0.971405685
vn 0.104348816 -0.305248171 0.946538329
vn 0.107199602 -0.308086634 0.945299327
vn 0.102115847 -0.250233382 0.962785304
vn 0.101366431 -0.246867582 0.963732958
vn 0.0182820801 -0.075294666 0.99699378
vn 0.0151401116 -0.0796882883 0.996704876
vn 0.0358045511 -0.0958712921 0.994749606
vn 0.0311140195 -0.0959235206 0.994902253
vn 0.128861845 -0.184736565 0.974303365
vn 0.121889912 -0.186689496 0.974828184
vn 0.0880245715 -0.0643606409 0.994036913
vn 0.0884327963 -0.063963294 0.994026303
vn 0.162193879 -0.0519513488 0.985390306
vn 0.161335692 -0.0519163795 0.985533059
vn 0.209540457 -0.211511284 0.954649568
vn 0.212582037 -0.213174179 0.953606665
vn -0.209540457 -0.211511284 0.954649568
vn -0.212582037 -0.213174179 0.953606665
vn -0.257299274 -0.281501442 0.924420953
vn -0.25808692 -0.291706204 0.921031237
vn -0.290119141 -0.353117466 0.889459968
vn -0.287908196 -0.352442324 0.89044553
vn -0.487065405 -0.166093275 0.857426465
vn -0.486789733 -0.165697053 0.857659757
vn -0.39560166 -0.340730369 0.85287869
vn -0.412861347 -0.335053235 0.846926689
vn -0.542127013 -0.272061557 0.795035064
vn -0.549747765 -0.263720602 0.792608798
vn -0.602876961 -0.198252082 0.772810102
vn 0.131475016 0.0533957742 0.989880443
vn -0.0506184325 -0.231966943 0.971405685
vn -0.0390357636 -0.214346394 0.975977421
vn -0.104348816 -0.305248171 0.946538329
vn -0.107199602 -0.308086634 0.945299327
vn -0.102115847 -0.250233382 0.962785304
vn -0.101366431 -0.246867582 0.963732958
vn -0.0182819907 -0.0752937496 0.99699378
vn -0.0151401488 -0.0796872154 0.996704996
vn -0.0358045809 -0.0958694294 0.994749725
vn -0.0311141461 -0.095921658 0.994902492
vn -0.128861845 -0.184736565 0.974303365
vn -0.121889912 -0.186689496 0.974828184
vn -0.0880239159 -0.0643607005 0.994036913
vn -0.0884321183 -0.0639633238 0.994026303
vn -0.162194505 -0.0519512817 0.985390186
vn -0.161336318 -0.0519163162 0.985532939
vn -0.209540457 -0.211511284 0.954649568
vn -0.212582037 -0.213174179 0.953606665
g EyeShadow_0
f 3/3/3 2/2/2 1/1/1
f 2/2/2 4/4/4 1/1/1
f 2/2/2 5/5/5 4/4/4
f 5/5/5 6/6/6 4/4/4
f 5/5/5 7/7/7 6/6/6
f 7/7/7 8/8/8 6/6/6
f 9/9/9 8/8/8 7/7/7
f 10/10/10 9/9/9 7/7/7
f 10/10/10 11/11/11 9/9/9
f 11/11/11 12/12/12 9/9/9
f 11/11/11 13/13/13 12/12/12
f 16/16/16 15/15/15 14/14/14
f 16/16/16 17/17/17 15/15/15
f 17/17/17 18/18/18 15/15/15
f 17/17/17 19/19/19 18/18/18
f 19/19/19 20/20/20 18/18/18
f 19/19/19 21/21/21 20/20/20
f 21/21/21 22/22/22 20/20/20
f 23/23/23 22/22/22 21/21/21
f 24/24/24 23/23/23 21/21/21
f 25/25/25 23/23/23 24/24/24
f 26/26/26 25/25/25 24/24/24
f 26/26/26 27/27/27 25/25/25
f 27/27/27 28/28/28 25/25/25
f 29/29/29 28/28/28 27/27/27
f 30/30/30 29/29/29 27/27/27
f 31/31/31 29/29/29 30/30/30
f 32/32/32 31/31/31 30/30/30
f 35/35/35 34/34/34 33/33/33
f 36/36/36 35/35/35 33/33/33
f 37/37/37 35/35/35 36/36/36
f 38/38/38 37/37/37 36/36/36
f 39/39/39 37/37/37 38/38/38
f 40/40/40 39/39/39 38/38/38
f 40/40/40 41/41/41 39/39/39
f 41/41/41 42/42/42 39/39/39
f 43/43/43 42/42/42 41/41/41
f 44/44/44 43/43/43 41/41/41
f 45/45/45 43/43/43 44/44/44
f 48/48/48 47/47/47 46/46/46
f 49/49/49 47/47/47 48/48/48
f 50/50/50 49/49/49 48/48/48
f 51/51/51 49/49/49 50/50/50
f 52/52/52 51/51/51 50/50/50
f 53/53/53 51/51/51 52/52/52
f 54/54/54 53/53/53 52/52/52
f 54/54/54 55/55/55 53/53/53
f 55/55/55 56/56/56 53/53/53
f 55/55/55 57/57/57 56/56/56
f 57/57/57 58/58/58 56/56/56
f 59/59/59 58/58/58 57/57/57
f 60/60/60 59/59/59 57/57/57
f 60/60/60 61/61/61 59/59/59
f 61/61/61 62/62/62 59/59/59
f 61/61/61 63/63/63 62/62/62
f 63/63/63 64/64/64 62/62/62
