g Loafer
v 0.0783520415 0.0634050295 0.0396656878
v 0.0813762918 0.048665572 0.0424406566
v 0.0838367194 0.0479238443 0.044920668
v 0.0806845278 0.0647910908 0.0413555279
v 0.0751508474 0.0723078474 0.0397739746
v 0.0770048648 0.0740258992 0.0416959375
v 0.0682813153 0.0758044869 0.0401137359
v 0.077445969 0.0647170916 0.0496576093
v 0.0697528496 0.0782440156 0.0422012135
v 0.0615256503 0.0773141161 0.0405496024
v 0.0614448339 0.0720255673 0.0516898371
v 0.0769713074 0.0567607954 0.0613643974
v 0.0616377704 0.0800055414 0.042845767
v 0.0850903094 0.0439130962 0.0573136806
v 0.0530420728 0.078474313 0.042765107
v 0.0548482537 0.0760818347 0.0406118147
v 0.0454633459 0.074475728 0.042539537
v 0.0467736609 0.0725788996 0.0405916795
v 0.0449240096 0.0666255206 0.0502955951
v 0.0407439619 0.0655209422 0.0416388735
v 0.0421165265 0.0632115528 0.0396111421
v 0.0402487889 0.0486437939 0.0385144427
v 0.0381000526 0.0495598391 0.0402695872
v 0.0404702052 0.0596872382 0.0477140546
v 0.0384054892 0.0446196161 0.055990275
v 0.0439431183 0.0587273315 0.0610194057
v 0.0433245376 0.0595382005 0.0613904446
v 0.0436072685 0.0538061187 0.0703863427
v 0.0468530506 0.055331409 0.0711840764
v 0.038357459 0.0408952385 0.0669921562
v 0.0373001434 0.0374027379 0.0784783363
v 0.0432754755 0.0466170013 0.0822978392
v 0.0509546362 0.0492295586 0.0841894671
v 0.0431498811 0.0447015278 0.0821861178
v 0.0436159745 0.0388059728 0.0954322591
v 0.0373340361 0.03399726 0.0945593789
v 0.0605759285 0.042501878 0.095097512
v 0.0509844832 0.0473056734 0.0840667933
v 0.0462901257 0.0356259532 0.112076551
v 0.0397406146 0.0319827385 0.114888109
v 0.0593863651 0.0373348929 0.110212885
v 0.0510681793 0.0335720219 0.125754014
v 0.0460716039 0.0314073265 0.135439515
v 0.0584979318 0.0341161154 0.129820406
v 0.0572744645 0.031004658 0.139597207
v 0.0675317496 0.033360742 0.127154157
v 0.07163807 0.0306250583 0.135062322
v 0.0756322443 0.0355762467 0.109354906
v 0.0828130245 0.0314490199 0.109948374
v 0.0787108243 0.0388456136 0.0939322188
v 0.0861884877 0.0332277007 0.0936119258
v 0.078453064 0.0449154936 0.0822154284
v 0.086565353 0.0371743068 0.0784048513
v 0.079330191 0.0465817489 0.0821728855
v 0.0859864503 0.0405659825 0.0673155263
v 0.0703698024 0.0483212881 0.0841857493
v 0.0701402351 0.0501825027 0.0845539048
v 0.0607951544 0.0507392883 0.0833630264
v 0.0608292148 0.0525732413 0.0834704116
v 0.0609659813 0.056942571 0.0758005753
v 0.0697506592 0.0544323623 0.0765636042
v 0.0512830727 0.0541077778 0.0766814575
v 0.0780469328 0.0531279966 0.0703822374
v 0.0773699954 0.0577812977 0.0618374795
v 0.0744941607 0.0546725243 0.0712004229
v 0.0693876073 0.0533037856 0.0757025331
v 0.0609858371 0.0557143725 0.0748986676
v 0.0739769712 0.0535699017 0.070502378
v 0.0691046491 0.0560840517 0.0707364231
v 0.0694897175 0.0573013425 0.0713476762
v 0.0689653978 0.0628386661 0.0634146184
v 0.0516443439 0.0520900711 0.0758392438
v 0.0610353015 0.0577721409 0.071348764
v 0.0610063076 0.0590621084 0.0720025152
v 0.0518776923 0.0562070012 0.070793882
v 0.047364939 0.0531338379 0.070445329
v 0.0514653996 0.0574402548 0.071399495
v 0.0611914396 0.0647158697 0.0640301853
v 0.0517270751 0.0631089061 0.0634423569
v 0.0611120798 0.0635069311 0.0633412302
v 0.0516777299 0.0620744228 0.0629226416
v 0.068501167 0.0617280044 0.0627970025
v 0.0883364007 4.53730536E-06 0.00743688457
v 0.0887088776 0.00850128103 0.00693913642
v 0.0855947733 4.52432414E-06 -0.0215443447
v 0.08740367 0.0162245985 -0.0209255833
v 0.0748580396 0.0163253639 -0.0392718986
v 0.0742599666 4.53835219E-06 -0.0374219529
v 0.0580908284 0.016325362 -0.0490294434
v 0.0577201396 4.52243694E-06 -0.0466264673
v 0.07378304 0.0163253695 -0.03782795
v 0.057993751 0.016325362 -0.0469018891
v 0.0850289613 0.0163253825 -0.0209198613
v 0.0869741589 0.0163253807 0.00632626982
v 0.0890031978 0.0163253825 0.00651796861
v 0.088771686 0.0118876165 0.0383045562
v 0.0905735791 0.0119092911 0.0383200347
v 0.0902909562 0.00423729001 0.0383838005
v 0.0948802754 0.00854473095 0.0589223914
v 0.0930978954 0.00853547081 0.0588809513
v 0.0946863517 0.000523691298 0.059023805
v 0.0959568694 0.00855139922 0.0753365532
v 0.0978122577 0.00855558738 0.0753111988
v 0.0978699178 0.000523691066 0.0755279213
v 0.100074343 0.000523690775 0.0948856175
v 0.100029953 0.00854151323 0.0946842358
v 0.098338522 0.00854151323 0.0948134884
v 0.0960175768 0.00128561608 0.112832762
v 0.0961214155 0.0096473163 0.112861335
v 0.0942387879 0.0096465284 0.112894945
v 0.0795979276 0.00309501635 0.146508858
v 0.0793347359 0.0118336333 0.146551564
v 0.0578740016 0.00447215792 0.15307498
v 0.07744544 0.0117332079 0.14497821
v 0.0573984832 0.0132426843 0.152961776
v 0.0574294515 0.0129169421 0.150561914
v 0.0593987778 0.0582478084 0.0530207194
v 0.079023011 0.0440477394 0.0429153778
v 0.0813762918 0.048665572 0.0424406566
v 0.0711656138 0.0598308742 0.0496346354
v 0.0783520415 0.0634050295 0.0396656878
v 0.0751508474 0.0723078474 0.0397739746
v 0.0682813153 0.0758044869 0.0401137359
v 0.0607165545 0.0609718487 0.0521708466
v 0.0615256503 0.0773141161 0.0405496024
v 0.0548482537 0.0760818347 0.0406118147
v 0.0509070009 0.0607186407 0.0501154847
v 0.0392174646 0.0426067002 0.0419443585
v 0.0467736609 0.0725788996 0.0405916795
v 0.0402487889 0.0486437939 0.0385144427
v 0.0421165265 0.0632115528 0.0396111421
v 0.0573984832 0.0132426843 0.152961776
v 0.0578740016 0.00447215792 0.15307498
v 0.0381027386 0.00347885583 0.144597769
v 0.0379855409 0.012195236 0.144610807
v 0.0574294515 0.0129169421 0.150561914
v 0.0398116708 0.0119821131 0.143685892
v 0.0314513184 0.00976569671 0.117291503
v 0.0298429094 0.00978601538 0.117500558
v 0.0298642144 0.00146709674 0.117282219
v 0.0267572198 0.000523694616 0.0961800739
v 0.0266807098 0.00854151603 0.0964705274
v 0.0284895729 0.00854151603 0.0965957269
v 0.030061461 0.00052369386 0.0761249214
v 0.0305521619 0.00854501594 0.0760110617
v 0.0326187685 0.00854949187 0.0759880468
v 0.0334674977 0.000523692986 0.0588597171
v 0.0358139537 0.00857541803 0.0589062758
v 0.0341458023 0.0085564144 0.0588730797
v 0.0364326052 0.00440575043 0.0384104997
v 0.0388329141 0.0121419737 0.0383279547
v 0.0372287072 0.0121189179 0.0383347198
v 0.0348245427 0.00849880185 0.00696015824
v 0.0354725979 0.0163253769 0.00668787304
v 0.0376366973 0.0163253769 0.00653217593
v 0.0361765698 0.0163253751 -0.0203072429
v 0.0342234783 0.0163253751 -0.0208061337
v 0.0350226127 0.000176038797 -0.0207920521
v 0.034239199 4.53377561E-06 0.00749532226
v 0.0422794819 -3.15120701E-06 -0.0366495252
v 0.0414132141 0.0163253751 -0.0395022556
v 0.0424218997 0.0163253751 -0.0381656103
v 0.0577201396 4.52243694E-06 -0.0466264673
v 0.057993751 0.016325362 -0.0469018891
v 0.0580908284 0.016325362 -0.0490294434
v 0.0801112279 0.0484455824 0.00286159874
v 0.0813762918 0.048665572 0.0424406566
v 0.079023011 0.0440477394 0.0429153778
v 0.0815386623 0.060132999 0.0014669823
v 0.0838367194 0.0479238443 0.044920668
v 0.079158403 0.0662466735 -0.017561309
v 0.0759132579 0.0604182892 -0.0210834388
v 0.0693493858 0.0648906827 -0.0341374539
v 0.0703132227 0.0723065734 -0.0331958868
v 0.0590224154 0.0665885508 -0.038728632
v 0.059304364 0.0751698092 -0.0390630662
v 0.0591349006 0.0745850652 -0.0408877134
v 0.0815845653 0.0653996393 -0.0190809797
v 0.0711468533 0.0716551393 -0.0354603902
v 0.058680851 0.0648382381 -0.044264257
v 0.0861728191 0.0480700061 0.0402019769
v 0.0882699266 0.0416504033 0.0612748414
v 0.0850903094 0.0439130962 0.0573136806
v 0.0859864503 0.0405659825 0.0673155263
v 0.086565353 0.0371743068 0.0784048513
v 0.0846022815 0.0588812232 0.00169846893
v 0.0866470039 0.0480043925 0.00282957498
v 0.0834783465 0.0559314489 -0.0209615398
v 0.0730335489 0.0616868548 -0.0376729742
v 0.0749963447 0.0416212268 -0.0397261977
v 0.0580074601 0.0430093296 -0.0483654626
v 0.0861534774 0.038177371 -0.0229748338
v 0.07378304 0.0163253695 -0.03782795
v 0.057993751 0.016325362 -0.0469018891
v 0.0850289613 0.0163253825 -0.0209198613
v 0.0885084718 0.0322850347 0.00504311081
v 0.0900265127 0.0257275905 0.038255766
v 0.0869741589 0.0163253807 0.00632626982
v 0.088771686 0.0118876165 0.0383045562
v 0.0930978954 0.00853547081 0.0588809513
v 0.0888185576 0.0381273888 0.0387577787
v 0.0914644226 0.0333819874 0.059903767
v 0.0939617902 0.0214008968 0.0590789057
v 0.0969829932 0.0191477127 0.0755328462
v 0.0959568694 0.00855139922 0.0753365532
v 0.093468532 0.0299792159 0.076287508
v 0.0982725695 0.01794127 0.094568871
v 0.098338522 0.00854151323 0.0948134884
v 0.0942387879 0.0096465284 0.112894945
v 0.0943187103 0.0269119963 0.0939825252
v 0.0895759165 0.0368473157 0.0770639703
v 0.089564614 0.0329147354 0.0936180726
v 0.0861884877 0.0332277007 0.0936119258
v 0.0936832577 0.0177461039 0.112507567
v 0.0905638412 0.0264728796 0.111045778
v 0.0864940435 0.0309741963 0.110445909
v 0.0828130245 0.0314490199 0.109948374
v 0.07163807 0.0306250583 0.135062322
v 0.0740105063 0.0305368211 0.138957337
v 0.0572744645 0.031004658 0.139597207
v 0.0775931031 0.0190735068 0.144055948
v 0.07744544 0.0117332079 0.14497821
v 0.0574294515 0.0129169421 0.150561914
v 0.0763643533 0.0264463536 0.141330585
v 0.0569458567 0.0307746381 0.143666372
v 0.0565554425 0.0265196171 0.146673098
v 0.056946557 0.0202151705 0.149163246
v 0.039602533 0.0201583151 0.142782003
v 0.0398116708 0.0119821131 0.143685892
v 0.0314513184 0.00976569671 0.117291503
v 0.0439585485 0.0314727612 0.138659731
v 0.0460716039 0.0314073265 0.135439515
v 0.0415700749 0.0270987786 0.14104037
v 0.0314065441 0.0192080401 0.117097616
v 0.0365968272 0.032344453 0.114507377
v 0.0397406146 0.0319827385 0.114888109
v 0.0344143845 0.0343962573 0.094200477
v 0.0373340361 0.03399726 0.0945593789
v 0.0373001434 0.0374027379 0.0784783363
v 0.0338375829 0.0269993674 0.11593131
v 0.0282389112 0.018912971 0.0961601436
v 0.0284895729 0.00854151603 0.0965957269
v 0.0326187685 0.00854949187 0.0759880468
v 0.0309773777 0.0279370118 0.095117718
v 0.0344117135 0.037230134 0.0777113214
v 0.038357459 0.0408952385 0.0669921562
v 0.035836447 0.0420713462 0.0608703829
v 0.0384054892 0.0446196161 0.055990275
v 0.0381000526 0.0495598391 0.0402695872
v 0.0320925266 0.030051915 0.0769115537
v 0.0304893889 0.0205308106 0.076398395
v 0.0332799442 0.0233441442 0.0595640205
v 0.0358139537 0.00857541803 0.0589062758
v 0.0340950973 0.0339443795 0.0605084598
v 0.0354695283 0.0276708379 0.0392828733
v 0.0388329141 0.0121419737 0.0383279547
v 0.0376366973 0.0163253769 0.00653217593
v 0.0352146253 0.0397882909 0.0399720408
v 0.0367877148 0.0337066129 0.00462972885
v 0.0361765698 0.0163253751 -0.0203072429
v 0.0364117958 0.047913447 0.0402891785
v 0.0382617228 0.0493912287 0.00194696407
v 0.0369330198 0.0386613496 -0.0198632535
v 0.0411868431 0.0601303466 0.00151213503
v 0.0402487889 0.0486437939 0.0385144427
v 0.0392174646 0.0426067002 0.0419443585
v 0.0432075784 0.0527276546 0.00126455154
v 0.0424935371 0.0416272543 -0.0382754765
v 0.0424218997 0.0163253751 -0.0381656103
v 0.057993751 0.016325362 -0.0469018891
v 0.0580074601 0.0430093296 -0.0483654626
v 0.0395395085 0.0552063398 -0.0185346268
v 0.0388549827 0.0586172529 0.00168992823
v 0.0433948226 0.0656291246 -0.0163510609
v 0.0464452542 0.0585254952 -0.0186040085
v 0.0508240126 0.0635626465 -0.0338776447
v 0.0456015728 0.0617449284 -0.0348917842
v 0.058680851 0.0648382381 -0.044264257
v 0.0473490842 0.0711902827 -0.0333928615
v 0.0591349006 0.0745850652 -0.0408877134
v 0.0413588807 0.0643627942 -0.0176243205
v 0.0487978533 0.0722452104 -0.0319824368
v 0.0590224154 0.0665885508 -0.038728632
v 0.059304364 0.0751698092 -0.0390630662
v -0.0783520266 0.0634050295 0.0396656878
v -0.083836697 0.0479238518 0.0449206717
v -0.0813762844 0.0486655757 0.0424406566
v -0.0806845203 0.0647910982 0.0413555279
v -0.0751508474 0.0723078549 0.039773982
v -0.0770048574 0.0740259066 0.041695945
v -0.0682813078 0.0758044869 0.0401137434
v -0.0774459466 0.0647170991 0.0496576168
v -0.0697528422 0.078244023 0.042201221
v -0.0615256429 0.0773141235 0.0405496061
v -0.0614448301 0.0720255673 0.051689852
v -0.0769712999 0.0567607991 0.061364416
v -0.0616377667 0.0800055414 0.0428457744
v -0.0850903243 0.0439130962 0.0573136732
v -0.0530420691 0.078474313 0.0427651107
v -0.05484825 0.0760818347 0.0406118184
v -0.0454633385 0.074475728 0.042539537
v -0.0467736535 0.0725788996 0.0405916795
v -0.044923991 0.0666255206 0.0502955914
v -0.0407439508 0.0655209422 0.0416388735
v -0.0421165153 0.0632115602 0.0396111421
v -0.040248774 0.0486437865 0.0385144353
v -0.0381000377 0.0495598353 0.0402695835
v -0.0404701903 0.0596872382 0.0477140471
v -0.0384054892 0.0446196124 0.0559902787
v -0.0439431146 0.0587273315 0.0610194132
v -0.0433245301 0.0595382005 0.0613904558
v -0.0436072685 0.0538061112 0.0703863427
v -0.0468530506 0.0553314053 0.0711840838
v -0.0383574404 0.0408952385 0.0669921413
v -0.0373001248 0.0374027379 0.0784783289
v -0.0432754569 0.0466170013 0.0822978318
v -0.0509546176 0.0492295548 0.0841894597
v -0.0431498624 0.0447015241 0.0821861029
v -0.0436159559 0.0388059728 0.0954322442
v -0.0373340137 0.03399726 0.0945593789
v -0.0605759099 0.0425018743 0.0950975046
v -0.0509844609 0.0473056622 0.0840667784
v -0.0462900996 0.0356259495 0.112076536
v -0.039740596 0.0319827348 0.114888102
v -0.0593863428 0.0373348892 0.110212877
v -0.051068157 0.0335720181 0.125754014
v -0.0460715778 0.0314073227 0.1354395
v -0.0584979095 0.0341161154 0.129820406
v -0.0572744347 0.0310046524 0.139597192
v -0.0675317273 0.033360742 0.127154142
v -0.07163807 0.0306250565 0.135062307
v -0.075632222 0.035576243 0.109354883
v -0.0828130245 0.0314490162 0.109948367
v -0.0787108019 0.0388456099 0.0939321965
v -0.0861884952 0.033227697 0.0936119035
v -0.0784530416 0.0449154936 0.0822154209
v -0.0865653679 0.0371743068 0.0784048513
v -0.0793301761 0.0465817489 0.0821728706
v -0.0859864727 0.0405659825 0.0673155263
v -0.0703697875 0.0483212881 0.0841857344
v -0.0701402202 0.0501825027 0.0845538974
v -0.0607951358 0.0507392809 0.083363004
v -0.0608291961 0.0525732376 0.0834703892
v -0.0609659627 0.0569425672 0.0758005679
v -0.0697506443 0.0544323623 0.0765635967
v -0.0512830541 0.054107774 0.0766814351
v -0.0780469179 0.0531279966 0.0703822225
v -0.077369988 0.0577813052 0.0618375018
v -0.0744941458 0.0546725243 0.071200408
v -0.0693875924 0.0533037856 0.0757025257
v -0.0609858222 0.0557143688 0.0748986602
v -0.0739769563 0.0535699017 0.0705023631
v -0.0691046417 0.0560840555 0.070736438
v -0.06948971 0.0573013499 0.0713476911
v -0.0689653903 0.0628386661 0.0634146258
v -0.0516443253 0.0520900674 0.0758392289
v -0.0610352978 0.0577721447 0.0713487715
v -0.0610063002 0.0590621121 0.0720025226
v -0.0518776923 0.0562069975 0.0707938969
v -0.047364939 0.0531338342 0.070445329
v -0.0514653996 0.0574402511 0.0713995025
v -0.0611914322 0.0647158772 0.0640302002
v -0.0517270751 0.0631089061 0.0634423643
v -0.0611120686 0.0635069385 0.0633412451
v -0.0516777225 0.0620744228 0.0629226491
v -0.0685011595 0.0617280081 0.0627970174
v -0.0883371979 4.53535677E-06 0.00743689155
v -0.085595578 4.53732218E-06 -0.0215443373
v -0.0887096897 0.00850127824 0.00693914341
v -0.0874044746 0.0162245948 -0.0209255777
v -0.074858807 0.0163253769 -0.0392718911
v -0.0742607564 4.53189114E-06 -0.0374219455
v -0.0580916107 0.0163253713 -0.0490294434
v -0.0577209219 4.53032089E-06 -0.0466264673
v -0.0737838224 0.0163253751 -0.0378279425
v -0.0579945259 0.0163253713 -0.0469018891
v -0.0850297436 0.0163253788 -0.0209198557
v -0.0869749635 0.0163253788 0.00632627821
v -0.0890039876 0.0163253788 0.00651797559
v -0.0887716785 0.011887623 0.0383045822
v -0.0905735642 0.0119092986 0.0383200645
v -0.0902909413 0.00423729606 0.0383838303
v -0.0948802829 0.00854472816 0.0589223839
v -0.0930979028 0.00853546802 0.0588809513
v -0.0946863666 0.000523689203 0.0590237975
v -0.0959568769 0.00855139736 0.0753365532
v -0.0978122726 0.00855558552 0.0753111988
v -0.0978699252 0.000523689436 0.0755279213
v -0.100074366 0.000523690018 0.0948856175
v -0.100029975 0.00854151137 0.0946842358
v -0.0983385444 0.00854151323 0.0948134884
v -0.0960175768 0.00128561119 0.112832755
v -0.0961214155 0.00964731164 0.112861328
v -0.0942387879 0.00964652374 0.11289493
v -0.0795979202 0.00309501425 0.146508858
v -0.0793347359 0.0118336305 0.146551564
v -0.0578739978 0.00447215559 0.15307498
v -0.07744544 0.0117332051 0.14497821
v -0.0573984794 0.0132426815 0.152961776
v -0.057429444 0.0129169403 0.150561914
v -0.0593987703 0.0582478121 0.0530207343
v -0.0813762844 0.0486655757 0.0424406566
v -0.0790229961 0.0440477468 0.0429153778
v -0.0711655915 0.0598308779 0.0496346429
v -0.0783520266 0.0634050295 0.0396656878
v -0.0751508474 0.0723078549 0.039773982
v -0.0682813078 0.0758044869 0.0401137434
v -0.0607165471 0.0609718561 0.0521708615
v -0.0615256429 0.0773141235 0.0405496061
v -0.05484825 0.0760818347 0.0406118184
v -0.050906986 0.0607186407 0.0501154847
v -0.0392174609 0.0426067002 0.0419443659
v -0.0467736535 0.0725788996 0.0405916795
v -0.040248774 0.0486437865 0.0385144353
v -0.0421165153 0.0632115602 0.0396111421
v -0.0573984794 0.0132426815 0.152961776
v -0.0381027311 0.00347885373 0.144597769
v -0.0578739978 0.00447215559 0.15307498
v -0.0379855335 0.0121952342 0.144610807
v -0.057429444 0.0129169403 0.150561914
v -0.0398116671 0.0119821103 0.143685892
v -0.0314512961 0.00976569392 0.117291495
v -0.0298428889 0.00978601165 0.117500551
v -0.0298641939 0.00146709383 0.117282204
v -0.0267571993 0.000523694733 0.0961800739
v -0.0266806874 0.00854151603 0.0964705274
v -0.0284895506 0.00854151603 0.0965957269
v -0.0300614443 0.00052369386 0.0761249065
v -0.0305521488 0.00854501594 0.0760110468
v -0.0326187499 0.00854949187 0.0759880394
v -0.0334674753 0.000523693045 0.0588597097
v -0.0358139277 0.00857541803 0.0589062683
v -0.0341457836 0.0085564144 0.0588730685
v -0.0364326052 0.00440574856 0.0384105034
v -0.0388329104 0.0121419728 0.0383279659
v -0.0372287035 0.012118916 0.0383347273
v -0.034825325 0.00849880185 0.00696015358
v -0.0354733877 0.0163253751 0.00668786699
v -0.0376374871 0.0163253751 0.00653216988
v -0.0361773632 0.0163253732 -0.0203072429
v -0.0342242718 0.0163253713 -0.0208061337
v -0.0350234061 0.000176037473 -0.0207920521
v -0.034239985 4.53360371E-06 0.00749531714
v -0.0422802679 -3.15263719E-06 -0.0366495252
v -0.0414140075 0.0163253713 -0.0395022556
v -0.0424226783 0.0163253713 -0.038165614
v -0.0577209219 4.53032089E-06 -0.0466264673
v -0.0579945259 0.0163253713 -0.0469018891
v -0.0580916107 0.0163253713 -0.0490294434
v -0.0801112279 0.0484455861 0.00286159874
v -0.0790229961 0.0440477468 0.0429153778
v -0.0813762844 0.0486655757 0.0424406566
v -0.0815386623 0.0601330027 0.00146698114
v -0.083836697 0.0479238518 0.0449206717
v -0.0791583955 0.0662466735 -0.017561309
v -0.0759132504 0.0604182892 -0.0210834499
v -0.0693501756 0.0648906827 -0.0341374539
v -0.070314005 0.0723065734 -0.0331958868
v -0.0590224005 0.0665885508 -0.0387286022
v -0.0593051426 0.0751698092 -0.0390630662
v -0.0591356866 0.0745850652 -0.0408877134
v -0.0815845653 0.0653996393 -0.0190809797
v -0.071147643 0.0716551393 -0.0354603902
v -0.0586816408 0.0648382381 -0.044264257
v -0.0861727968 0.0480700098 0.0402019843
v -0.088269949 0.0416504033 0.0612748377
v -0.0850903243 0.0439130962 0.0573136732
v -0.0859864727 0.0405659825 0.0673155263
v -0.0865653679 0.0371743068 0.0784048513
v -0.0846022889 0.0588812307 0.00169845694
v -0.0866470113 0.0480043888 0.00282958313
v -0.0834783465 0.0559314489 -0.0209615398
v -0.0730343312 0.0616868548 -0.0376729742
v -0.0749963298 0.0416212343 -0.039726194
v -0.0580074526 0.043009337 -0.0483654551
v -0.0861534849 0.0381773673 -0.022974832
v -0.0737838224 0.0163253751 -0.0378279425
v -0.0579945259 0.0163253713 -0.0469018891
v -0.0850297436 0.0163253788 -0.0209198557
v -0.088509284 0.0322850309 0.00504311686
v -0.0900264978 0.025727598 0.0382557958
v -0.0869749635 0.0163253788 0.00632627821
v -0.0887716785 0.011887623 0.0383045822
v -0.0930979028 0.00853546802 0.0588809513
v -0.088818565 0.0381273925 0.0387577973
v -0.0914644301 0.0333819874 0.0599037632
v -0.0939617977 0.021400895 0.0590789057
v -0.0969830081 0.0191477109 0.0755328462
v -0.0959568769 0.00855139736 0.0753365532
v -0.0934685469 0.0299792141 0.076287508
v -0.0982725769 0.0179412663 0.0945688486
v -0.0983385444 0.00854151323 0.0948134884
v -0.0942387879 0.00964652374 0.11289493
v -0.0943187252 0.0269119926 0.0939825028
v -0.0895759389 0.036847312 0.0770639703
v -0.0895646289 0.0329147317 0.0936180577
v -0.0861884952 0.033227697 0.0936119035
v -0.0936832577 0.0177460983 0.112507559
v -0.0905638412 0.0264728758 0.11104577
v -0.0864940435 0.0309741925 0.110445894
v -0.0828130245 0.0314490162 0.109948367
v -0.07163807 0.0306250565 0.135062307
v -0.0740105063 0.0305368174 0.138957322
v -0.0572744347 0.0310046524 0.139597192
v -0.0775931031 0.0190735031 0.144055933
v -0.07744544 0.0117332051 0.14497821
v -0.057429444 0.0129169403 0.150561914
v -0.0763643533 0.0264463518 0.141330585
v -0.0569458343 0.0307746325 0.143666357
v -0.0565554164 0.0265196133 0.146673083
v -0.0569465347 0.0202151667 0.149163216
v -0.0396025255 0.0201583114 0.142782003
v -0.0398116671 0.0119821103 0.143685892
v -0.0314512961 0.00976569392 0.117291495
v -0.0439585373 0.0314727575 0.138659731
v -0.0460715778 0.0314073227 0.1354395
v -0.0415700674 0.0270987768 0.14104037
v -0.0314065218 0.0192080382 0.117097601
v -0.0365968011 0.0323444493 0.11450737
v -0.039740596 0.0319827348 0.114888102
v -0.0344143622 0.0343962573 0.094200477
v -0.0373340137 0.03399726 0.0945593789
v -0.0373001248 0.0374027379 0.0784783289
v -0.0338375606 0.0269993655 0.115931295
v -0.0282388888 0.018912971 0.0961601436
v -0.0284895506 0.00854151603 0.0965957269
v -0.0326187499 0.00854949187 0.0759880394
v -0.0309773553 0.0279370118 0.095117718
v -0.0344116949 0.037230134 0.077711314
v -0.0383574404 0.0408952385 0.0669921413
v -0.0358364508 0.0420713425 0.0608703904
v -0.0384054892 0.0446196124 0.0559902787
v -0.0381000377 0.0495598353 0.0402695835
v -0.0320925079 0.030051915 0.0769115463
v -0.0304893702 0.0205308106 0.0763983876
v -0.0332799219 0.0233441442 0.059564013
v -0.0358139277 0.00857541803 0.0589062683
v -0.034095075 0.0339443795 0.0605084449
v -0.0354695208 0.0276708342 0.0392828807
v -0.0388329104 0.0121419728 0.0383279659
v -0.0376374871 0.0163253751 0.00653216988
v -0.0352146253 0.0397882909 0.0399720445
v -0.0364117809 0.0479134396 0.040289171
v -0.0367877074 0.0337066092 0.0046297228
v -0.0361773632 0.0163253732 -0.0203072429
v -0.0382617041 0.0493912287 0.00194695569
v -0.0411868319 0.0601303466 0.0015121313
v -0.040248774 0.0486437865 0.0385144353
v -0.0392174609 0.0426067002 0.0419443659
v -0.0432075746 0.0527276546 0.00126455154
v -0.0369330086 0.0386613496 -0.0198632553
v -0.0388549753 0.0586172529 0.00168992707
v -0.0433948115 0.0656291246 -0.0163510609
v -0.0464452505 0.0585254952 -0.0186040085
v -0.0508240014 0.0635626465 -0.0338776484
v -0.0424935371 0.0416272394 -0.038275484
v -0.0424226783 0.0163253713 -0.038165614
v -0.0579945259 0.0163253713 -0.0469018891
v -0.0580074526 0.043009337 -0.0483654551
v -0.0395394973 0.0552063361 -0.0185346305
v -0.045602344 0.0617449284 -0.0348917842
v -0.0586816408 0.0648382381 -0.044264257
v -0.0473498665 0.0711902827 -0.0333928615
v -0.0591356866 0.0745850652 -0.0408877134
v -0.041358877 0.0643627942 -0.0176243205
v -0.0487986282 0.0722452104 -0.0319824368
v -0.0590224005 0.0665885508 -0.0387286022
v -0.0593051426 0.0751698092 -0.0390630662
v -0.058528088 4.53217626E-06 -0.0252742264
v -0.0742607564 4.53189114E-06 -0.0374219455
v -0.085595578 4.53732218E-06 -0.0215443373
v -0.0577209219 4.53032089E-06 -0.0466264673
v -0.0422802679 -3.15263719E-06 -0.0366495252
v -0.0350234061 0.000176037473 -0.0207920521
v -0.034239985 4.53360371E-06 0.00749531714
v -0.0883371979 4.53535677E-06 0.00743689155
v -0.034825325 0.00849880185 0.00696015358
v -0.0887096897 0.00850127824 0.00693914341
v -0.0902909413 0.00423729606 0.0383838303
v -0.0364326052 0.00440574856 0.0384105034
v -0.0946863666 0.000523689203 0.0590237975
v -0.0334674753 0.000523693045 0.0588597097
v -0.0978699252 0.000523689436 0.0755279213
v -0.0300614443 0.00052369386 0.0761249065
v -0.0267571993 0.000523694733 0.0961800739
v -0.100074366 0.000523690018 0.0948856175
v -0.0525662787 0.00162091432 0.126823828
v -0.0960175768 0.00128561119 0.112832755
v -0.0298641939 0.00146709383 0.117282204
v -0.0795979202 0.00309501425 0.146508858
v -0.0381027311 0.00347885373 0.144597769
v -0.0578739978 0.00447215559 0.15307498
v 0.0585273094 4.53240273E-06 -0.0252742246
v 0.0855947733 4.52432414E-06 -0.0215443447
v 0.0742599666 4.53835219E-06 -0.0374219529
v 0.0577201396 4.52243694E-06 -0.0466264673
v 0.0422794819 -3.15120701E-06 -0.0366495252
v 0.0350226127 0.000176038797 -0.0207920521
v 0.034239199 4.53377561E-06 0.00749532226
v 0.0883364007 4.53730536E-06 0.00743688457
v 0.0348245427 0.00849880185 0.00696015824
v 0.0887088776 0.00850128103 0.00693913642
v 0.0902909562 0.00423729001 0.0383838005
v 0.0364326052 0.00440575043 0.0384104997
v 0.0946863517 0.000523691298 0.059023805
v 0.0334674977 0.000523692986 0.0588597171
v 0.0978699178 0.000523691066 0.0755279213
v 0.030061461 0.00052369386 0.0761249214
v 0.0267572198 0.000523694616 0.0961800739
v 0.100074343 0.000523690775 0.0948856175
v 0.0525663048 0.00162091805 0.126823828
v 0.0960175768 0.00128561608 0.112832762
v 0.0298642144 0.00146709674 0.117282219
v 0.0795979276 0.00309501635 0.146508858
v 0.0381027386 0.00347885583 0.144597769
v 0.0578740016 0.00447215792 0.15307498
vt 0.887461364 0.390426308
vt 0.902543247 0.375624835
vt 0.900852561 0.37159574
vt 0.884374678 0.388281643
vt 0.877850592 0.395640552
vt 0.876941741 0.391527236
vt 0.868170321 0.397754312
vt 0.876069844 0.37714985
vt 0.868527532 0.39308393
vt 0.857850194 0.397718489
vt 0.858312428 0.37789771
vt 0.881967485 0.356266975
vt 0.858141065 0.393104017
vt 0.900536358 0.353403211
vt 0.847483695 0.391795218
vt 0.848024607 0.396751761
vt 0.838083565 0.389387906
vt 0.836675942 0.393167019
vt 0.83806771 0.375228226
vt 0.831082404 0.38570267
vt 0.827476978 0.388826936
vt 0.810328484 0.37863943
vt 0.81138581 0.376130939
vt 0.826996505 0.374522388
vt 0.817065775 0.353959084
vt 0.8331182 0.355814159
vt 0.833415687 0.354365408
vt 0.831755579 0.339473754
vt 0.837431133 0.33930704
vt 0.817588151 0.338069052
vt 0.817245245 0.320746064
vt 0.830315471 0.320988566
vt 0.842555285 0.320176601
vt 0.828478098 0.31918931
vt 0.826361656 0.29417938
vt 0.81397897 0.293907702
vt 0.857134223 0.292453587
vt 0.84191364 0.317599356
vt 0.83169353 0.265533417
vt 0.820655704 0.265151441
vt 0.855238378 0.26471433
vt 0.841128528 0.253185451
vt 0.83368504 0.242503628
vt 0.854608476 0.248427212
vt 0.853898644 0.228320315
vt 0.869896889 0.251172125
vt 0.880596757 0.240007386
vt 0.883688092 0.263785779
vt 0.89691782 0.261842608
vt 0.890613556 0.291268587
vt 0.903897464 0.289575696
vt 0.886571944 0.318689138
vt 0.902622581 0.320863187
vt 0.886453092 0.321443945
vt 0.901927233 0.338269562
vt 0.873078942 0.317822725
vt 0.872090578 0.320393175
vt 0.85771364 0.319876134
vt 0.857846439 0.322474539
vt 0.858086109 0.332889259
vt 0.870895982 0.331731141
vt 0.843661964 0.331198215
vt 0.883999646 0.339804798
vt 0.881272197 0.354922414
vt 0.877719581 0.339471519
vt 0.870359659 0.333520591
vt 0.858011723 0.334852099
vt 0.876549184 0.339277029
vt 0.869727552 0.340089977
vt 0.869944811 0.341874897
vt 0.86895895 0.354926705
vt 0.84418875 0.332918406
vt 0.858075917 0.340274632
vt 0.858044028 0.342301309
vt 0.844759762 0.339673609
vt 0.838635385 0.339125931
vt 0.844528496 0.341462284
vt 0.85827142 0.355245501
vt 0.845386744 0.354622662
vt 0.858091593 0.356987715
vt 0.844811082 0.356025428
vt 0.86887908 0.35665375
vt 0.977787971 0.0626231655
vt 0.982041359 0.0626231655
vt 0.977787852 0.0412503257
vt 0.989205003 0.0412503257
vt 0.989205003 0.0247387737
vt 0.977787852 0.0247387737
vt 0.989204884 0.0101008266
vt 0.977787971 0.0101008266
vt 0.990949035 0.0247387737
vt 0.990949035 0.0101008266
vt 0.990948915 0.0412503257
vt 0.990948915 0.0626231655
vt 0.989204884 0.0626231655
vt 0.990948915 0.0811420754
vt 0.989205003 0.0811420754
vt 0.982041359 0.0811420754
vt 0.989204884 0.103633717
vt 0.990949035 0.103633717
vt 0.982041359 0.103633717
vt 0.990948915 0.119633317
vt 0.989204884 0.119633317
vt 0.982041359 0.119633317
vt 0.982041359 0.138665885
vt 0.989204884 0.138665885
vt 0.990948915 0.138665885
vt 0.982041359 0.156805426
vt 0.989205003 0.156805426
vt 0.990949035 0.156805456
vt 0.982041359 0.178619295
vt 0.989204884 0.178619295
vt 0.982041359 0.202784091
vt 0.990949035 0.178619295
vt 0.989204884 0.202784091
vt 0.990949035 0.202767164
vt 0.879870176 0.0276982412
vt 0.859825969 0.0279842094
vt 0.860958934 0.0310925469
vt 0.869989872 0.0370320603
vt 0.863253295 0.0420548096
vt 0.867358565 0.0459138229
vt 0.872544944 0.0475596562
vt 0.878842711 0.0373826995
vt 0.878505826 0.048433274
vt 0.884253502 0.0474969372
vt 0.886972904 0.0369480774
vt 0.898554325 0.0270407423
vt 0.890990257 0.0456531122
vt 0.897126973 0.0312085971
vt 0.895023346 0.0420633331
vt 0.981314301 0.403168857
vt 0.987819791 0.403168857
vt 0.987819791 0.379086494
vt 0.981314182 0.379086494
vt 0.979470968 0.403168857
vt 0.979470968 0.379086494
vt 0.979470968 0.357272625
vt 0.981314301 0.357272685
vt 0.987819672 0.357272685
vt 0.987819791 0.339133084
vt 0.981314182 0.339133084
vt 0.979470968 0.339133084
vt 0.987819672 0.320100546
vt 0.981314182 0.320100546
vt 0.979470968 0.320100546
vt 0.987819672 0.304100931
vt 0.979470968 0.304100931
vt 0.981314301 0.304100931
vt 0.987819791 0.281609297
vt 0.979470968 0.281609297
vt 0.981314182 0.281609297
vt 0.987819791 0.262713462
vt 0.981314301 0.262713462
vt 0.979470968 0.262713462
vt 0.979470968 0.240986109
vt 0.981314182 0.240986109
vt 0.993177176 0.240986109
vt 0.993177176 0.262713462
vt 0.993177176 0.224859804
vt 0.981314182 0.224859804
vt 0.979470968 0.224859804
vt 0.993177176 0.210568041
vt 0.979470968 0.210568041
vt 0.981314182 0.210568041
vt 0.910923421 0.346314847
vt 0.92319268 0.320807576
vt 0.919690371 0.31724599
vt 0.921011031 0.351593763
vt 0.925704539 0.318642259
vt 0.919621646 0.373659253
vt 0.912381947 0.374857128
vt 0.91113776 0.390390754
vt 0.917550027 0.391045034
vt 0.909391701 0.404306114
vt 0.917470932 0.403955162
vt 0.918925941 0.40398252
vt 0.922249138 0.374261975
vt 0.919605374 0.391621649
vt 0.92549926 0.404131413
vt 0.927520573 0.32336235
vt 0.933266938 0.30140236
vt 0.928738654 0.30521521
vt 0.9313941 0.294969797
vt 0.934099555 0.283927172
vt 0.924366832 0.351302952
vt 0.935026944 0.348519325
vt 0.930716455 0.374616593
vt 0.9283548 0.390974104
vt 0.94543314 0.388739705
vt 0.945120752 0.404304564
vt 0.947427332 0.370911092
vt 0.968056142 0.387812197
vt 0.968056142 0.404548645
vt 0.968056142 0.367675126
vt 0.950361907 0.344417214
vt 0.952311933 0.322506905
vt 0.968056142 0.341760874
vt 0.968056142 0.321391165
vt 0.968056142 0.298975348
vt 0.939401031 0.323772192
vt 0.943629682 0.299585283
vt 0.954836786 0.298989028
vt 0.955059588 0.283501267
vt 0.968056142 0.283261955
vt 0.946694314 0.284302562
vt 0.956754148 0.265151054
vt 0.968056142 0.265048921
vt 0.968056142 0.248415083
vt 0.950056255 0.265492618
vt 0.937517643 0.285453737
vt 0.942666531 0.2655828
vt 0.938496828 0.264579892
vt 0.958364844 0.248445645
vt 0.951621652 0.248865813
vt 0.945417762 0.24721387
vt 0.940627337 0.245587066
vt 0.94238317 0.226435125
vt 0.947947502 0.227335379
vt 0.94418931 0.205179781
vt 0.961094201 0.228371009
vt 0.968056142 0.228010118
vt 0.968056142 0.205118805
vt 0.9532637 0.229273245
vt 0.948833704 0.205147207
vt 0.954800844 0.204873279
vt 0.961951315 0.205005109
vt 0.959804416 0.184501305
vt 0.968056142 0.184085101
vt 0.968056142 0.164691478
vt 0.944856584 0.185856491
vt 0.940348268 0.186349705
vt 0.951825917 0.184933215
vt 0.956395209 0.165254459
vt 0.942262232 0.165812477
vt 0.938274205 0.167927042
vt 0.939092815 0.146202832
vt 0.935904622 0.147318527
vt 0.929921329 0.128591448
vt 0.948882163 0.165604338
vt 0.955046296 0.147168294
vt 0.968056142 0.147903085
vt 0.968056142 0.129683971
vt 0.947217643 0.146551684
vt 0.933296502 0.12707676
vt 0.927850604 0.115362734
vt 0.930848897 0.108656347
vt 0.927248418 0.102782167
vt 0.927476287 0.084467262
vt 0.941411972 0.127681434
vt 0.951815188 0.129404157
vt 0.951062799 0.112722047
vt 0.968056142 0.112944901
vt 0.939352632 0.110679358
vt 0.951636136 0.0864763707
vt 0.968056142 0.0882851481
vt 0.968056142 0.0664144754
vt 0.937003016 0.0840766728
vt 0.951287866 0.0628216863
vt 0.968056142 0.0395232737
vt 0.929773808 0.0847396851
vt 0.9352718 0.0580568761
vt 0.947803378 0.037535727
vt 0.925624013 0.0563177764
vt 0.925848842 0.0832133591
vt 0.921763182 0.0900722146
vt 0.918328941 0.0537294447
vt 0.945134938 0.021744296
vt 0.968056142 0.0207623392
vt 0.968056142 0.00394368172
vt 0.944665551 0.00337535143
vt 0.930830598 0.0363559425
vt 0.927634239 0.056530863
vt 0.922156453 0.0367696434
vt 0.913721263 0.0307816267
vt 0.908777773 0.021809876
vt 0.927357316 0.0200855881
vt 0.922380269 0.00579482317
vt 0.919155061 0.0196516216
vt 0.91459626 0.00813214481
vt 0.92443651 0.0361066908
vt 0.917295277 0.0199111402
vt 0.906698465 0.0141268373
vt 0.913152993 0.00923582911
vt 0.112538643 0.390426308
vt 0.099147439 0.37159574
vt 0.0974567533 0.375624835
vt 0.115625322 0.388281643
vt 0.122149408 0.395640552
vt 0.123058259 0.391527236
vt 0.131829679 0.397754312
vt 0.123930164 0.37714985
vt 0.131472468 0.39308393
vt 0.142149806 0.397718489
vt 0.141687572 0.37789771
vt 0.118032522 0.356266975
vt 0.141858935 0.393104017
vt 0.0994636416 0.353403211
vt 0.152516305 0.391795218
vt 0.151975393 0.396751761
vt 0.161916435 0.389387906
vt 0.163324058 0.393167019
vt 0.16193229 0.375228226
vt 0.168917596 0.38570267
vt 0.172523022 0.388826936
vt 0.189671516 0.37863943
vt 0.18861419 0.376130939
vt 0.173003495 0.374522388
vt 0.182934225 0.353959084
vt 0.1668818 0.355814159
vt 0.166584313 0.354365408
vt 0.168244421 0.339473754
vt 0.162568867 0.33930704
vt 0.182411849 0.338069052
vt 0.182754755 0.320746064
vt 0.169684529 0.320988566
vt 0.157444715 0.320176601
vt 0.171521902 0.31918931
vt 0.173638344 0.29417938
vt 0.18602103 0.293907702
vt 0.142865777 0.292453587
vt 0.15808636 0.317599356
vt 0.16830647 0.265533417
vt 0.179344296 0.265151441
vt 0.144761622 0.26471433
vt 0.158871472 0.253185451
vt 0.16631496 0.242503628
vt 0.145391524 0.248427212
vt 0.146101356 0.228320315
vt 0.130103111 0.251172125
vt 0.119403243 0.240007386
vt 0.116311908 0.263785779
vt 0.10308218 0.261842608
vt 0.109386437 0.291268587
vt 0.0961025357 0.289575696
vt 0.113428064 0.318689138
vt 0.0973774195 0.320863187
vt 0.113546908 0.321443945
vt 0.0980727673 0.338269562
vt 0.126921058 0.317822725
vt 0.127909422 0.320393175
vt 0.14228636 0.319876134
vt 0.142153561 0.322474539
vt 0.141913891 0.332889259
vt 0.129104018 0.331731141
vt 0.156338036 0.331198215
vt 0.116000347 0.339804798
vt 0.118727803 0.354922414
vt 0.122280419 0.339471519
vt 0.129640341 0.333520591
vt 0.141988277 0.334852099
vt 0.123450823 0.339277029
vt 0.130272448 0.340089977
vt 0.130055189 0.341874897
vt 0.13104105 0.354926705
vt 0.15581125 0.332918406
vt 0.141924083 0.340274632
vt 0.141955972 0.342301309
vt 0.155240238 0.339673609
vt 0.161364615 0.339125931
vt 0.155471504 0.341462284
vt 0.14172858 0.355245501
vt 0.154613256 0.354622662
vt 0.141908407 0.356987715
vt 0.155188918 0.356025428
vt 0.13112092 0.35665375
vt 0.0222120285 0.0626231655
vt 0.0222121477 0.0412503257
vt 0.0179586411 0.0626231655
vt 0.0107949972 0.0412503257
vt 0.0107949972 0.0247387737
vt 0.0222121477 0.0247387737
vt 0.0107951164 0.0101008266
vt 0.0222120285 0.0101008266
vt 0.00905096531 0.0247387737
vt 0.00905096531 0.0101008266
vt 0.00905108452 0.0412503257
vt 0.00905108452 0.0626231655
vt 0.0107951164 0.0626231655
vt 0.00905108452 0.0811420754
vt 0.0107949972 0.0811420754
vt 0.0179586411 0.0811420754
vt 0.0107951164 0.103633717
vt 0.00905096531 0.103633717
vt 0.0179586411 0.103633717
vt 0.00905108452 0.119633317
vt 0.0107951164 0.119633317
vt 0.0179586411 0.119633317
vt 0.0179586411 0.138665885
vt 0.0107951164 0.138665885
vt 0.00905108452 0.138665885
vt 0.0179586411 0.156805426
vt 0.0107949972 0.156805426
vt 0.00905096531 0.156805456
vt 0.0179586411 0.178619295
vt 0.0107951164 0.178619295
vt 0.0179586411 0.202784091
vt 0.00905096531 0.178619295
vt 0.0107951164 0.202784091
vt 0.00905096531 0.202767164
vt 0.120129824 0.0276982412
vt 0.139041066 0.0310925469
vt 0.140174031 0.0279842094
vt 0.130010128 0.0370320603
vt 0.136746705 0.0420548096
vt 0.132641435 0.0459138229
vt 0.127455056 0.0475596562
vt 0.121157289 0.0373826995
vt 0.121494167 0.048433274
vt 0.115746498 0.0474969372
vt 0.113027103 0.0369480774
vt 0.101445667 0.0270407423
vt 0.109009743 0.0456531122
vt 0.102873027 0.0312085971
vt 0.104976647 0.0420633331
vt 0.0186856985 0.403168857
vt 0.0121802092 0.379086494
vt 0.0121802092 0.403168857
vt 0.0186858177 0.379086494
vt 0.0205290318 0.403168857
vt 0.0205290318 0.379086494
vt 0.0205290318 0.357272625
vt 0.0186856985 0.357272685
vt 0.0121803284 0.357272685
vt 0.0121802092 0.339133084
vt 0.0186858177 0.339133084
vt 0.0205290318 0.339133084
vt 0.0121803284 0.320100546
vt 0.0186858177 0.320100546
vt 0.0205290318 0.320100546
vt 0.0121803284 0.304100931
vt 0.0205290318 0.304100931
vt 0.0186856985 0.304100931
vt 0.0121802092 0.281609297
vt 0.0205290318 0.281609297
vt 0.0186858177 0.281609297
vt 0.0121802092 0.262713462
vt 0.0186856985 0.262713462
vt 0.0205290318 0.262713462
vt 0.0205290318 0.240986109
vt 0.0186858177 0.240986109
vt 0.00682282448 0.240986109
vt 0.00682282448 0.262713462
vt 0.00682282448 0.224859804
vt 0.0186858177 0.224859804
vt 0.0205290318 0.224859804
vt 0.00682282448 0.210568041
vt 0.0205290318 0.210568041
vt 0.0186858177 0.210568041
vt 0.0890765786 0.346314847
vt 0.0803096294 0.31724599
vt 0.0768073201 0.320807576
vt 0.0789889693 0.351593763
vt 0.0742954612 0.318642259
vt 0.0803783536 0.373659253
vt 0.087618053 0.374857128
vt 0.0888622403 0.390390754
vt 0.0824499726 0.391045034
vt 0.0906082988 0.404306114
vt 0.082529068 0.403955162
vt 0.081074059 0.40398252
vt 0.0777508616 0.374261975
vt 0.0803946257 0.391621649
vt 0.0745007396 0.404131413
vt 0.0724794269 0.32336235
vt 0.0667330623 0.30140236
vt 0.0712613463 0.30521521
vt 0.0686058998 0.294969797
vt 0.065900445 0.283927172
vt 0.0756331682 0.351302952
vt 0.0649730563 0.348519325
vt 0.069283545 0.374616593
vt 0.0716452003 0.390974104
vt 0.0545668602 0.388739705
vt 0.0548792481 0.404304564
vt 0.0525726676 0.370911092
vt 0.0319438577 0.387812197
vt 0.0319438577 0.404548645
vt 0.0319438577 0.367675126
vt 0.0496380925 0.344417214
vt 0.047688067 0.322506905
vt 0.0319438577 0.341760874
vt 0.0319438577 0.321391165
vt 0.0319438577 0.298975348
vt 0.0605989695 0.323772192
vt 0.0563703179 0.299585283
vt 0.0451632142 0.298989028
vt 0.044940412 0.283501267
vt 0.0319438577 0.283261955
vt 0.0533056855 0.284302562
vt 0.043245852 0.265151054
vt 0.0319438577 0.265048921
vt 0.0319438577 0.248415083
vt 0.0499437451 0.265492618
vt 0.062482357 0.285453737
vt 0.0573334694 0.2655828
vt 0.0615031719 0.264579892
vt 0.0416351557 0.248445645
vt 0.0483783484 0.248865813
vt 0.0545822382 0.24721387
vt 0.0593726635 0.245587066
vt 0.0576168299 0.226435125
vt 0.0520524979 0.227335379
vt 0.0558106899 0.205179781
vt 0.0389057994 0.228371009
vt 0.0319438577 0.228010118
vt 0.0319438577 0.205118805
vt 0.0467363 0.229273245
vt 0.051166296 0.205147207
vt 0.0451991558 0.204873279
vt 0.0380486846 0.205005109
vt 0.0401955843 0.184501305
vt 0.0319438577 0.184085101
vt 0.0319438577 0.164691478
vt 0.0551434159 0.185856491
vt 0.0596517324 0.186349705
vt 0.0481740832 0.184933215
vt 0.0436047912 0.165254459
vt 0.0577377677 0.165812477
vt 0.0617257953 0.167927042
vt 0.0609071851 0.146202832
vt 0.0640953779 0.147318527
vt 0.070078671 0.128591448
vt 0.0511178374 0.165604338
vt 0.0449537039 0.147168294
vt 0.0319438577 0.147903085
vt 0.0319438577 0.129683971
vt 0.0527823567 0.146551684
vt 0.0667034984 0.12707676
vt 0.0721493959 0.115362734
vt 0.0691511035 0.108656347
vt 0.0727515817 0.102782167
vt 0.0725237131 0.084467262
vt 0.058588028 0.127681434
vt 0.0481848121 0.129404157
vt 0.0489372015 0.112722047
vt 0.0319438577 0.112944901
vt 0.0606473684 0.110679358
vt 0.0483638644 0.0864763707
vt 0.0319438577 0.0882851481
vt 0.0319438577 0.0664144754
vt 0.0629969835 0.0840766728
vt 0.0702261925 0.0847396851
vt 0.0487121344 0.0628216863
vt 0.0319438577 0.0395232737
vt 0.0647282004 0.0580568761
vt 0.0743759871 0.0563177764
vt 0.0741511583 0.0832133591
vt 0.0782368183 0.0900722146
vt 0.0816710591 0.0537294447
vt 0.0521966219 0.037535727
vt 0.0723657608 0.056530863
vt 0.0778435469 0.0367696434
vt 0.0862787366 0.0307816267
vt 0.0912222266 0.021809876
vt 0.0548650622 0.021744296
vt 0.0319438577 0.0207623392
vt 0.0319438577 0.00394368172
vt 0.0553344488 0.00337535143
vt 0.0691694021 0.0363559425
vt 0.072642684 0.0200855881
vt 0.0776197314 0.00579482317
vt 0.0808449388 0.0196516216
vt 0.0854037404 0.00813214481
vt 0.0755634904 0.0361066908
vt 0.0827047229 0.0199111402
vt 0.0933015347 0.0141268373
vt 0.0868470073 0.00923582911
vt 0.129887104 0.07808204
vt 0.116747081 0.0689905435
vt 0.107675247 0.0821590275
vt 0.129805803 0.0609566793
vt 0.142605066 0.0683098063
vt 0.149786472 0.0806987807
vt 0.150646925 0.103363618
vt 0.107169628 0.105463147
vt 0.150748432 0.110188521
vt 0.107244909 0.112295777
vt 0.107334077 0.128850371
vt 0.148510039 0.126835957
vt 0.10607636 0.147843897
vt 0.151729107 0.145505369
vt 0.102566242 0.160823375
vt 0.15612036 0.158153176
vt 0.160531282 0.172118202
vt 0.103088863 0.176816657
vt 0.141284823 0.191601858
vt 0.106957972 0.191334754
vt 0.158263683 0.186519206
vt 0.117297649 0.207125172
vt 0.152882814 0.203408897
vt 0.138006508 0.217210293
vt 0.870112896 0.07808204
vt 0.892324746 0.0821590275
vt 0.883252919 0.0689905435
vt 0.870194197 0.0609566793
vt 0.857394934 0.0683098063
vt 0.850213528 0.0806987807
vt 0.849353075 0.103363618
vt 0.892830372 0.105463147
vt 0.849251568 0.110188521
vt 0.892755091 0.112295777
vt 0.892665923 0.128850371
vt 0.851489961 0.126835957
vt 0.89392364 0.147843897
vt 0.848270893 0.145505369
vt 0.897433758 0.160823375
vt 0.84387964 0.158153176
vt 0.839468718 0.172118202
vt 0.896911144 0.176816657
vt 0.858715177 0.191601858
vt 0.893042028 0.191334754
vt 0.841736317 0.186519206
vt 0.882702351 0.207125172
vt 0.847117186 0.203408897
vt 0.861993492 0.217210293
vn -0.304841727 -0.195399091 -0.932143033
vn -0.84212023 0.366413355 -0.395695329
vn 0.784141004 0.602590442 0.14834936
vn 0.959161222 0.241567045 -0.147157148
vn -0.142526209 -0.144340813 -0.9792099
vn 0.703732491 0.700322151 0.11962235
vn -0.184941322 -0.372819811 -0.909286618
vn 0.707054913 0.575888753 0.410396665
vn 0.389897406 0.823871613 0.411358207
vn -0.0500961691 -0.40539822 -0.912766516
vn 0.0701377541 0.775586367 0.627332866
vn 0.76455307 0.589672863 0.260277927
vn 0.0255148355 0.96658951 0.255056351
vn 0.822015703 0.541609347 0.17592445
vn -0.317731738 0.865500808 0.387240231
vn 0.11371424 -0.381967634 -0.91715312
vn -0.658536434 0.748641431 0.076587826
vn 0.152827963 -0.151337519 -0.976596475
vn -0.6016258 0.644923031 0.471296817
vn -0.913330555 0.36291486 -0.184716225
vn 0.387363523 -0.0330310762 -0.921335101
vn 0.952539742 0.146471709 -0.266859591
vn -0.759799838 0.649053574 0.0378641337
vn -0.935117304 0.285408586 0.209994063
vn -0.885737658 0.422056437 0.193228409
vn -0.705854475 0.623713017 0.33578518
vn -0.844961941 0.490368664 0.213489905
vn -0.895285845 0.403846413 0.188072756
vn -0.346297264 0.789106369 0.507335544
vn -0.841107905 0.509727538 0.180873826
vn -0.700460792 0.684930563 0.200561136
vn -0.788533092 0.523664057 0.322477132
vn -0.28212896 0.713869929 0.640931368
vn -0.499519706 0.757052243 0.421131849
vn -0.39091289 0.871441483 0.296271771
vn -0.446850717 0.87354219 0.192998499
vn 0.0162023753 0.928946793 0.369858444
vn -0.239420012 0.78921932 0.56551832
vn -0.278342456 0.936385512 0.213793337
vn -0.234629482 0.962861717 0.133590013
vn 0.00723123271 0.969192266 0.246199429
vn -0.204140633 0.961909056 0.181817234
vn -0.0663016066 0.991110444 0.115344226
vn 0.0150436265 0.972806334 0.23113142
vn 0.0193191264 0.987000406 0.159552902
vn 0.245590836 0.941785932 0.229617551
vn 0.149809673 0.977343082 0.149524257
vn 0.288146436 0.92441237 0.249866426
vn 0.3153781 0.932181776 0.177689716
vn 0.39988789 0.851595759 0.338931382
vn 0.471792012 0.849409938 0.236463606
vn 0.472050518 0.729669392 0.494722903
vn 0.653243423 0.721539974 0.229462847
vn 0.734178126 0.598978758 0.319697946
vn 0.768986225 0.613708913 0.178945512
vn 0.251935363 0.738668621 0.625217795
vn 0.29735139 0.751091301 0.589443803
vn -0.0377919413 0.644403338 0.763751328
vn -0.0300432052 0.793731213 0.607526302
vn -0.03150611 0.944414616 0.327243537
vn 0.31315574 0.874757588 0.369773567
vn -0.281574756 0.877838016 0.387447923
vn 0.817584813 0.546975613 0.179924384
vn 0.767756999 0.620339096 0.160401002
vn 0.413678974 0.801213861 0.432349563
vn 0.135243386 0.989114165 0.0579858311
vn -0.03977843 0.970851779 0.236356616
vn -0.281233281 0.825100899 0.490016669
vn 0.209550723 0.631843328 0.746232152
vn 0.356274039 0.722584128 0.592402756
vn 0.350240022 0.85033083 0.392771542
vn -0.0756059736 0.995122492 0.0633642897
vn -0.0206489041 0.639720798 0.768329859
vn 0.00847714581 0.742912352 0.669335067
vn -0.214684367 0.546570361 0.809426546
vn 0.540029466 0.789639473 0.291268975
vn -0.278289378 0.720427155 0.635247767
vn 0.0121960873 0.880706787 0.473504633
vn -0.280062467 0.853030503 0.440345436
vn 0.021538876 0.908506274 0.417315781
vn -0.326681554 0.844182193 0.425012618
vn 0.429273307 0.801208556 0.416880429
vn 0.154846132 -0.786629319 0.597693026
vn 0.294803649 -0.950665295 0.0965724736
vn 0.616733611 -0.737438202 -0.275362641
vn 0.92033565 0.0730466098 -0.384248108
vn 0.675512433 -0.00690282742 -0.737316251
vn 0.58865273 -0.512464166 -0.625194728
vn -0.000873383775 -0.0707007125 -0.997497141
vn -0.0145618627 -0.488104463 -0.872663677
vn 0.670574963 0.00945751369 -0.741781473
vn -0.0182485245 0.0507870056 -0.998542786
vn 0.949669659 0.0283991061 -0.311963052
vn 0.997215509 0.0289522298 -0.0687231272
vn 0.948990345 0.31416595 -0.0267789178
vn 0.993459225 0.0389400683 -0.107342146
vn 0.976375818 0.203053549 -0.0738875866
vn 0.129705608 -0.977123916 -0.168538824
vn 0.966831803 0.180325761 -0.180883259
vn 0.980456114 0.0744704232 -0.182098612
vn 0.120075785 -0.986953795 -0.107257001
vn 0.984815836 0.103679873 -0.139242128
vn 0.967062652 0.21065253 -0.142882496
vn 0.116799451 -0.993008137 -0.0171109624
vn 0.156527504 -0.987483859 0.0193585623
vn 0.980564892 0.191280797 0.0436359793
vn 0.977923036 0.203696564 0.0466297306
vn 0.468388319 -0.854191244 0.225764647
vn 0.914353967 0.188586593 0.35831809
vn 0.881392479 0.330161333 0.337847382
vn 0.399041891 -0.811001778 0.427833676
vn 0.698211312 0.205729306 0.685694158
vn -0.0332767218 -0.710448623 0.702961862
vn 0.657259405 0.450889319 0.603911459
vn -0.0565060899 0.195202842 0.979133725
vn -0.0161858462 0.473713279 0.880530298
vn 0.186199695 0.0245747305 -0.982204497
vn -0.907698393 0.265521169 -0.324934095
vn -0.84212023 0.366413355 -0.395695329
vn -0.408483028 -0.165564299 -0.897624671
vn -0.304841727 -0.195399091 -0.932143033
vn -0.142526209 -0.144340813 -0.9792099
vn -0.184941322 -0.372819811 -0.909286618
vn -0.0471120141 -0.538710058 -0.841172934
vn -0.0500961691 -0.40539822 -0.912766516
vn 0.11371424 -0.381967634 -0.91715312
vn 0.502007484 -0.27056402 -0.8214522
vn 0.930632293 0.0337558165 -0.364395291
vn 0.152827963 -0.151337519 -0.976596475
vn 0.952539742 0.146471709 -0.266859591
vn 0.387363523 -0.0330310762 -0.921335101
vn -0.0565060899 0.195202842 0.979133725
vn -0.0332767218 -0.710448623 0.702961862
vn -0.568124652 -0.658640325 0.493383408
vn -0.770562232 0.162622213 0.616269231
vn -0.0161858462 0.473713279 0.880530298
vn -0.761933148 0.361050606 0.537680626
vn -0.956946254 0.201712444 0.208724767
vn -0.959285021 0.180577993 0.217172265
vn -0.649516582 -0.735995293 0.190890387
vn -0.166800708 -0.985931516 0.0107963197
vn -0.979326248 0.202131316 -0.00793405063
vn -0.990558147 0.135826975 -0.0185924992
vn -0.120541096 -0.99244678 -0.0227822252
vn -0.945010543 0.27378273 -0.178880215
vn -0.984551489 0.0176341217 -0.174204901
vn -0.122157268 -0.986770988 -0.106586635
vn -0.985844851 -0.0495319292 -0.160176858
vn -0.950251222 0.279321641 -0.137847513
vn -0.134038419 -0.978547454 -0.156456083
vn -0.997109234 -0.0452867225 -0.0610102043
vn -0.947403908 0.318499535 0.0313650183
vn -0.320639104 -0.932539761 0.166012421
vn -0.912201703 0.402636528 0.0759719014
vn -0.999520779 0.0304381177 0.00563545851
vn -0.984190166 0.115115233 -0.134603843
vn -0.969396532 0.0885305032 -0.228981644
vn -0.685546458 -0.708782732 -0.166292563
vn -0.150816098 -0.809246659 0.567780077
vn -0.664923251 -0.504866779 -0.550442159
vn -0.744023621 -0.0307937749 -0.667443335
vn -0.776887 0.0886505321 -0.623368144
vn -0.0145618627 -0.488104463 -0.872663677
vn -0.0182485245 0.0507870056 -0.998542786
vn -0.000873383775 -0.0707007125 -0.997497141
vn -0.969812214 0.228459433 0.0852672458
vn -0.84212023 0.366413355 -0.395695329
vn -0.907698393 0.265521169 -0.324934095
vn -0.808880389 0.545648098 0.219044849
vn 0.784141004 0.602590442 0.14834936
vn -0.765536547 0.523533463 0.373987198
vn -0.917293906 0.172317117 0.358996898
vn -0.713433087 0.0633214563 0.697856545
vn -0.500452757 0.479011267 0.721176207
vn 0.100486487 -0.0129170585 0.994854569
vn 0.0424913168 0.430952668 0.901373506
vn -0.0708266571 0.42531085 -0.902271748
vn 0.901715517 0.377955854 -0.20990099
vn 0.676903844 0.398175329 -0.61907804
vn -0.0741152167 0.232299164 -0.969816506
vn 0.883522153 0.46306771 0.070404619
vn 0.897946179 0.439433277 0.0243105069
vn 0.822015703 0.541609347 0.17592445
vn 0.768986225 0.613708913 0.178945512
vn 0.653243423 0.721539974 0.229462847
vn 0.910576046 0.411625236 0.0376307666
vn 0.986343741 0.160862118 -0.0353480019
vn 0.942030251 0.176504523 -0.28535068
vn 0.679006457 0.194819242 -0.707810402
vn 0.675225496 0.027717771 -0.737090349
vn -0.0450427495 0.0585349016 -0.997268677
vn 0.947580278 0.021459328 -0.318796515
vn 0.670574963 0.00945751369 -0.741781473
vn -0.0182485245 0.0507870056 -0.998542786
vn 0.949669659 0.0283991061 -0.311963052
vn 0.998028338 0.0113198031 -0.061735522
vn 0.995854497 0.0137046957 -0.0899222121
vn 0.997215509 0.0289522298 -0.0687231272
vn 0.993459225 0.0389400683 -0.107342146
vn 0.980456114 0.0744704232 -0.182098612
vn 0.983383596 0.178614393 -0.032459408
vn 0.9617064 0.265139937 -0.0694378167
vn 0.985585868 0.0571355037 -0.159235969
vn 0.987511039 0.120576814 -0.101405971
vn 0.984815836 0.103679873 -0.139242128
vn 0.924199462 0.381618619 -0.0149201397
vn 0.980635285 0.180519193 0.0759434178
vn 0.977923036 0.203696564 0.0466297306
vn 0.881392479 0.330161333 0.337847382
vn 0.88231492 0.457566231 0.110243514
vn 0.763105512 0.637452304 0.106416836
vn 0.645116448 0.747033298 0.160518274
vn 0.471792012 0.849409938 0.236463606
vn 0.908325315 0.207813144 0.36298576
vn 0.826162577 0.466363668 0.31616509
vn 0.549471498 0.803792238 0.228033423
vn 0.3153781 0.932181776 0.177689716
vn 0.149809673 0.977343082 0.149524257
vn 0.442046463 0.79676944 0.412011266
vn 0.0193191264 0.987000406 0.159552902
vn 0.711638272 0.233783439 0.662507653
vn 0.657259405 0.450889319 0.603911459
vn -0.0161858462 0.473713279 0.880530298
vn 0.668715 0.464752525 0.580366433
vn 0.0136423996 0.791030347 0.611624837
vn -0.0166703276 0.443184018 0.89627558
vn -0.0264718905 0.249667957 0.967969656
vn -0.801043212 0.185193956 0.569238961
vn -0.761933148 0.361050606 0.537680626
vn -0.956946254 0.201712444 0.208724767
vn -0.538859904 0.748752236 0.386005342
vn -0.0663016066 0.991110444 0.115344226
vn -0.728815436 0.437674552 0.526563406
vn -0.962821603 0.146970555 0.226658657
vn -0.650495827 0.739004314 0.175293684
vn -0.234629482 0.962861717 0.133590013
vn -0.730658829 0.674003243 0.108891003
vn -0.446850717 0.87354219 0.192998499
vn -0.700460792 0.684930563 0.200561136
vn -0.89363873 0.397075832 0.209142774
vn -0.996336579 0.0849683359 0.00969183259
vn -0.990558147 0.135826975 -0.0185924992
vn -0.984551489 0.0176341217 -0.174204901
vn -0.939439654 0.338289917 0.0548922792
vn -0.83677578 0.544243693 0.0600412302
vn -0.841107905 0.509727538 0.180873826
vn -0.946417689 0.320977837 0.0355917364
vn -0.885737658 0.422056437 0.193228409
vn -0.759799838 0.649053574 0.0378641337
vn -0.969924212 0.237006143 -0.0554527268
vn -0.990274012 -0.00257422519 -0.139107153
vn -0.987673581 -0.0723266155 -0.138815612
vn -0.985844851 -0.0495319292 -0.160176858
vn -0.989886403 0.129790187 -0.0572657511
vn -0.995886147 -0.0639074221 -0.0642389953
vn -0.997109234 -0.0452867225 -0.0610102043
vn -0.999520779 0.0304381177 0.00563545851
vn -0.996243477 0.0748369247 -0.0435709246
vn -0.999911547 0.000358484336 -0.0132927625
vn -0.984190166 0.115115233 -0.134603843
vn -0.960639119 0.277183503 0.0184906758
vn -0.994735122 0.0970861539 -0.0328088254
vn -0.987667203 0.0710746944 -0.139505923
vn 0.813952863 0.530935705 0.235770971
vn 0.952539742 0.146471709 -0.266859591
vn 0.930632293 0.0337558165 -0.364395291
vn 0.978197932 0.159136117 0.133433923
vn -0.785787046 0.0845051855 -0.612697005
vn -0.776887 0.0886505321 -0.623368144
vn -0.0182485245 0.0507870056 -0.998542786
vn -0.0450427495 0.0585349016 -0.997268677
vn -0.975585818 0.161087289 -0.149275765
vn -0.955227911 0.295841694 0.00415095594
vn 0.760653734 0.543009579 0.355733812
vn 0.924335182 0.242179811 0.294878483
vn 0.805502594 0.116853721 0.580956757
vn -0.791221976 0.214000359 -0.572862744
vn -0.0741152167 0.232299164 -0.969816506
vn -0.777995825 0.369955957 -0.507794261
vn -0.0708266571 0.42531085 -0.902271748
vn -0.941485763 0.316095084 -0.11699754
vn 0.645969033 0.44933033 0.617111206
vn 0.100486487 -0.0129170585 0.994854569
vn 0.0424913168 0.430952668 0.901373506
vn 0.304842353 -0.195399225 -0.932142854
vn -0.784141302 0.602590263 0.148348704
vn 0.842120171 0.366413623 -0.395695299
vn -0.959161401 0.241566494 -0.147156253
vn 0.142525896 -0.144339338 -0.979210198
vn -0.703732312 0.700322151 0.119623072
vn 0.184941098 -0.372819275 -0.909286797
vn -0.707055151 0.575888634 0.410396218
vn -0.389897376 0.823871434 0.411358476
vn 0.0500959456 -0.405398339 -0.912766516
vn -0.0701375082 0.775586367 0.627332807
vn -0.76455313 0.589673162 0.260277003
vn -0.025514463 0.96658951 0.25505653
vn -0.822015226 0.541610181 0.175924212
vn 0.317732036 0.865500748 0.387240082
vn -0.113714993 -0.38196823 -0.917152822
vn 0.658536077 0.748641849 0.076587826
vn -0.152828529 -0.151337788 -0.976596355
vn 0.601626277 0.644922674 0.471296638
vn 0.913330495 0.36291486 -0.184716672
vn -0.387363791 -0.0330311395 -0.921335042
vn -0.952539623 0.146473527 -0.266859233
vn 0.759799898 0.649053454 0.0378642306
vn 0.935117304 0.285408527 0.209994212
vn 0.885737658 0.422056377 0.193228632
vn 0.705854356 0.623712957 0.335785568
vn 0.844961762 0.490368903 0.213489905
vn 0.895285666 0.40384689 0.188072518
vn 0.346297383 0.789106071 0.507335961
vn 0.841107726 0.509727895 0.180873394
vn 0.700460434 0.68493104 0.200560823
vn 0.788532853 0.523664653 0.322476774
vn 0.282128215 0.71386987 0.640931666
vn 0.499519259 0.757052243 0.421132237
vn 0.390912712 0.871441483 0.296271712
vn 0.446850181 0.873542428 0.192998484
vn -0.0162024777 0.928946793 0.369858295
vn 0.239419371 0.789219379 0.565518439
vn 0.278342456 0.936385632 0.213793203
vn 0.234629169 0.962861776 0.133589819
vn -0.00723122386 0.969192266 0.246199459
vn 0.204140559 0.961909175 0.181817174
vn 0.0663012937 0.991110444 0.115344062
vn -0.015043648 0.972806334 0.231131241
vn -0.0193191003 0.987000406 0.159552678
vn -0.245590448 0.941786289 0.229617178
vn -0.149809569 0.977343202 0.149524048
vn -0.288146079 0.924412608 0.249866307
vn -0.315377265 0.932182133 0.177689806
vn -0.399887025 0.851595998 0.338931471
vn -0.47179091 0.849410415 0.236464188
vn -0.472049624 0.729669809 0.494723231
vn -0.653242469 0.72154063 0.229463682
vn -0.734177291 0.598979592 0.319698334
vn -0.768985271 0.613709986 0.178946167
vn -0.251935333 0.73866868 0.625217795
vn -0.297351301 0.751091123 0.589444041
vn 0.0377919152 0.644403636 0.76375109
vn 0.0300437696 0.793730974 0.607526481
vn 0.0315068625 0.944414496 0.327243716
vn -0.313155442 0.874757588 0.369774044
vn 0.281574219 0.877838314 0.387447804
vn -0.817583978 0.546976507 0.179925144
vn -0.767756581 0.620339513 0.160401553
vn -0.41367957 0.801213205 0.43234989
vn -0.135243386 0.989114165 0.0579874516
vn 0.0397783518 0.970851362 0.2363583
vn 0.281233907 0.825099528 0.490018606
vn -0.209551096 0.631841063 0.746234
vn -0.356274366 0.722583532 0.592403173
vn -0.350240499 0.850330472 0.39277193
vn 0.0756057575 0.995122492 0.063364394
vn 0.0206486098 0.639718056 0.768332303
vn -0.00847658794 0.742912352 0.669335127
vn 0.214684203 0.546568096 0.809428275
vn -0.540029109 0.789638698 0.291272074
vn 0.278289557 0.720427215 0.635247529
vn -0.012195562 0.880706906 0.473504722
vn 0.280062675 0.853030682 0.44034493
vn -0.0215379596 0.908506334 0.417315692
vn 0.326681942 0.844181776 0.425013095
vn -0.429273725 0.801208556 0.416879952
vn -0.154845998 -0.78662926 0.597693264
vn -0.61673367 -0.737437785 -0.275363415
vn -0.294807702 -0.950663388 0.0965795442
vn -0.920335114 0.0730473623 -0.384248883
vn -0.675512195 -0.00690258062 -0.737316489
vn -0.588652551 -0.512464464 -0.625194669
vn 0.000872742326 -0.070700936 -0.997497141
vn 0.0145613337 -0.488104254 -0.872663856
vn -0.670578361 0.00947952829 -0.741778135
vn 0.0182391908 0.0507861041 -0.998543024
vn -0.949667752 0.0284230094 -0.311966687
vn -0.997215748 0.0289622452 -0.0687158704
vn -0.94899112 0.314164817 -0.026762981
vn -0.993460774 0.0389393643 -0.107328072
vn -0.976376355 0.203057066 -0.0738711879
vn -0.129704461 -0.977124393 -0.168536827
vn -0.966831625 0.180326536 -0.180883795
vn -0.980455995 0.074470371 -0.182099327
vn -0.120075747 -0.986953676 -0.107257113
vn -0.984815717 0.103681035 -0.139242262
vn -0.967062414 0.210653305 -0.142882735
vn -0.116799273 -0.993008137 -0.0171109531
vn -0.156527385 -0.987483859 0.0193585604
vn -0.980564654 0.19128187 0.0436362252
vn -0.977922678 0.203698158 0.0466303267
vn -0.468388051 -0.854191422 0.225764662
vn -0.914353669 0.188587546 0.358318329
vn -0.8813923 0.330161631 0.337847382
vn -0.399041563 -0.811002016 0.427833557
vn -0.698211372 0.205729529 0.685693979
vn 0.0332766585 -0.710448563 0.702961922
vn -0.657259285 0.450889826 0.603911042
vn 0.0565059595 0.195203021 0.979133725
vn 0.0161854234 0.473714679 0.880529583
vn -0.186199799 0.0245748814 -0.982204497
vn 0.842120171 0.366413623 -0.395695299
vn 0.907697976 0.26552245 -0.324934095
vn 0.408483267 -0.165563926 -0.897624612
vn 0.304842353 -0.195399225 -0.932142854
vn 0.142525896 -0.144339338 -0.979210198
vn 0.184941098 -0.372819275 -0.909286797
vn 0.0471116751 -0.538710237 -0.841172874
vn 0.0500959456 -0.405398339 -0.912766516
vn -0.113714993 -0.38196823 -0.917152822
vn -0.502007902 -0.27056402 -0.821451843
vn -0.930631876 0.0337573774 -0.364396483
vn -0.152828529 -0.151337788 -0.976596355
vn -0.952539623 0.146473527 -0.266859233
vn -0.387363791 -0.0330311395 -0.921335042
vn 0.0565059595 0.195203021 0.979133725
vn 0.568124712 -0.658640146 0.493383616
vn 0.0332766585 -0.710448563 0.702961922
vn 0.770562232 0.162622511 0.61626929
vn 0.0161854234 0.473714679 0.880529583
vn 0.761932731 0.361051202 0.537680686
vn 0.956946135 0.201712504 0.208725125
vn 0.959285021 0.180578008 0.217172593
vn 0.649516761 -0.735995054 0.19089061
vn 0.166800544 -0.985931516 0.0107962713
vn 0.979326248 0.20213148 -0.00793417078
vn 0.990558147 0.135826573 -0.0185925625
vn 0.120541044 -0.992446899 -0.0227821842
vn 0.945010424 0.273782909 -0.17888017
vn 0.984551609 0.0176339447 -0.174204841
vn 0.122157246 -0.986770988 -0.106586769
vn 0.985844731 -0.0495321676 -0.16017735
vn 0.950251222 0.279321283 -0.137848005
vn 0.134039283 -0.978547037 -0.156458214
vn 0.997108042 -0.045300778 -0.0610198304
vn 0.947405398 0.318496823 0.0313489437
vn 0.320634753 -0.932542741 0.166004002
vn 0.912202001 0.402638972 0.0759569928
vn 0.999521852 0.0304058921 0.00562468823
vn 0.984193861 0.115078412 -0.134608224
vn 0.969396651 0.0885300413 -0.228981644
vn 0.685546577 -0.708782494 -0.166292608
vn 0.150816128 -0.809246838 0.567780018
vn 0.664923489 -0.50486666 -0.5504421
vn 0.74402374 -0.0307941716 -0.667443216
vn 0.776885152 0.0886247531 -0.623373866
vn 0.0145613337 -0.488104254 -0.872663856
vn 0.0182391908 0.0507861041 -0.998543024
vn 0.000872742326 -0.070700936 -0.997497141
vn 0.969812095 0.228460133 0.0852671266
vn 0.907697976 0.26552245 -0.324934095
vn 0.842120171 0.366413623 -0.395695299
vn 0.808879256 0.545649588 0.219045028
vn -0.784141302 0.602590263 0.148348704
vn 0.765541196 0.523532629 0.373978883
vn 0.91729933 0.172324181 0.358979583
vn 0.71343565 0.063339904 0.697852075
vn 0.500444829 0.479023039 0.721173942
vn -0.100512855 -0.012934559 0.994851649
vn -0.0424564816 0.430937469 0.901382387
vn 0.0708263367 0.425310969 -0.902271748
vn -0.901720822 0.377952933 -0.209883377
vn -0.6769135 0.398173362 -0.619068742
vn 0.0741066411 0.232300133 -0.969816923
vn -0.883521676 0.463068724 0.0704050958
vn -0.897945642 0.439434469 0.0243101679
vn -0.822015226 0.541610181 0.175924212
vn -0.768985271 0.613709986 0.178946167
vn -0.653242469 0.72154063 0.229463682
vn -0.910576046 0.411625117 0.0376309305
vn -0.986341178 0.160877302 -0.0353468508
vn -0.942032456 0.176503956 -0.285343945
vn -0.679015756 0.194806919 -0.707804978
vn -0.675224125 0.0277210418 -0.737091541
vn 0.0450533219 0.0585364252 -0.997268081
vn -0.947579026 0.0214751326 -0.318799108
vn -0.670578361 0.00947952829 -0.741778135
vn 0.0182391908 0.0507861041 -0.998543024
vn -0.949667752 0.0284230094 -0.311966687
vn -0.998028457 0.011338816 -0.0617302805
vn -0.995855629 0.0137128439 -0.0899081752
vn -0.997215748 0.0289622452 -0.0687158704
vn -0.993460774 0.0389393643 -0.107328072
vn -0.980455995 0.074470371 -0.182099327
vn -0.983381748 0.17862615 -0.0324518159
vn -0.9617064 0.265139908 -0.0694383308
vn -0.985585749 0.0571350232 -0.159236699
vn -0.98751092 0.120577216 -0.101406068
vn -0.984815717 0.103681035 -0.139242262
vn -0.924199343 0.381618887 -0.0149201453
vn -0.980635285 0.180519149 0.0759438053
vn -0.977922678 0.203698158 0.0466303267
vn -0.8813923 0.330161631 0.337847382
vn -0.882314801 0.457566172 0.110244051
vn -0.763105631 0.637452245 0.106416896
vn -0.645115972 0.747033477 0.160518587
vn -0.47179091 0.849410415 0.236464188
vn -0.908325434 0.20781298 0.362985849
vn -0.826162577 0.466363579 0.316165239
vn -0.54947114 0.803792357 0.228033543
vn -0.315377265 0.932182133 0.177689806
vn -0.149809569 0.977343202 0.149524048
vn -0.442046225 0.79676944 0.412011653
vn -0.0193191003 0.987000406 0.159552678
vn -0.711638331 0.233783633 0.662507474
vn -0.657259285 0.450889826 0.603911042
vn 0.0161854234 0.473714679 0.880529583
vn -0.668714881 0.464752525 0.580366731
vn -0.0136424247 0.791030228 0.611624956
vn 0.0166700911 0.443183571 0.896275878
vn 0.0264720041 0.249668255 0.967969537
vn 0.801043093 0.185193837 0.56923908
vn 0.761932731 0.361051202 0.537680686
vn 0.956946135 0.201712504 0.208725125
vn 0.5388605 0.748751819 0.386005312
vn 0.0663012937 0.991110444 0.115344062
vn 0.728815734 0.437674165 0.526563287
vn 0.962821603 0.1469706 0.22665897
vn 0.650496006 0.739004016 0.175293893
vn 0.234629169 0.962861776 0.133589819
vn 0.730658889 0.674003184 0.108891033
vn 0.446850181 0.873542428 0.192998484
vn 0.700460434 0.68493104 0.200560823
vn 0.89363873 0.397075713 0.209142983
vn 0.996336579 0.0849683508 0.00969175622
vn 0.990558147 0.135826573 -0.0185925625
vn 0.984551609 0.0176339447 -0.174204841
vn 0.939439654 0.338289887 0.0548922233
vn 0.83677572 0.544243872 0.0600408725
vn 0.841107726 0.509727895 0.180873394
vn 0.94641757 0.320978373 0.0355916955
vn 0.885737658 0.422056377 0.193228632
vn 0.759799898 0.649053454 0.0378642306
vn 0.969924212 0.237006396 -0.0554527976
vn 0.990274012 -0.0025742338 -0.139107123
vn 0.987673461 -0.0723265335 -0.138816044
vn 0.985844731 -0.0495321676 -0.16017735
vn 0.989886403 0.129790634 -0.0572660416
vn 0.995885193 -0.0639163256 -0.0642448291
vn 0.997108042 -0.045300778 -0.0610198304
vn 0.999521852 0.0304058921 0.00562468823
vn 0.996243477 0.0748367161 -0.0435708761
vn 0.960639179 0.277183115 0.0184907727
vn 0.999911547 0.000339833176 -0.013297596
vn 0.984193861 0.115078412 -0.134608224
vn 0.994735122 0.0970857516 -0.0328087881
vn -0.813951969 0.530937016 0.235770956
vn -0.952539623 0.146473527 -0.266859233
vn -0.930631876 0.0337573774 -0.364396483
vn -0.978197515 0.159138054 0.133434296
vn 0.98766762 0.0710582361 -0.139510706
vn 0.955228031 0.295841455 0.00415091589
vn -0.76065886 0.543000102 0.355737418
vn -0.924339652 0.24215737 0.294882864
vn -0.805514812 0.116809644 0.58094871
vn 0.785788238 0.0845011324 -0.612695992
vn 0.776885152 0.0886247531 -0.623373866
vn 0.0182391908 0.0507861041 -0.998543024
vn 0.0450533219 0.0585364252 -0.997268081
vn 0.97558254 0.161096126 -0.14928697
vn 0.791212082 0.214014858 -0.572870851
vn 0.0741066411 0.232300133 -0.969816923
vn 0.777986109 0.369958162 -0.507807493
vn 0.0708263367 0.425310969 -0.902271748
vn 0.941481948 0.316098034 -0.117020689
vn -0.645987153 0.449285805 0.617124736
vn -0.100512855 -0.012934559 0.994851649
vn -0.0424564816 0.430937469 0.901382387
vn 0.00118669798 -0.999999285 -0.000156819879
vn -0.588652551 -0.512464464 -0.625194669
vn -0.61673367 -0.737437785 -0.275363415
vn 0.0145613337 -0.488104254 -0.872663856
vn 0.664923489 -0.50486666 -0.5504421
vn 0.685546577 -0.708782494 -0.166292608
vn 0.150816128 -0.809246838 0.567780018
vn -0.154845998 -0.78662926 0.597693264
vn 0.320634753 -0.932542741 0.166004002
vn -0.294807702 -0.950663388 0.0965795442
vn -0.129704461 -0.977124393 -0.168536827
vn 0.134039283 -0.978547037 -0.156458214
vn -0.120075747 -0.986953676 -0.107257113
vn 0.122157246 -0.986770988 -0.106586769
vn -0.116799273 -0.993008137 -0.0171109531
vn 0.120541044 -0.992446899 -0.0227821842
vn 0.166800544 -0.985931516 0.0107962713
vn -0.156527385 -0.987483859 0.0193585604
vn 0.00234872987 -0.998542905 0.0539128371
vn -0.468388051 -0.854191422 0.225764662
vn 0.649516761 -0.735995054 0.19089061
vn -0.399041563 -0.811002016 0.427833557
vn 0.568124712 -0.658640146 0.493383616
vn 0.0332766585 -0.710448563 0.702961922
vn -0.00118675421 -0.999999285 -0.000156762224
vn 0.616733611 -0.737438202 -0.275362641
vn 0.58865273 -0.512464166 -0.625194728
vn -0.0145618627 -0.488104463 -0.872663677
vn -0.664923251 -0.504866779 -0.550442159
vn -0.685546458 -0.708782732 -0.166292563
vn -0.150816098 -0.809246659 0.567780077
vn 0.154846132 -0.786629319 0.597693026
vn -0.320639104 -0.932539761 0.166012421
vn 0.294803649 -0.950665295 0.0965724736
vn 0.129705608 -0.977123916 -0.168538824
vn -0.134038419 -0.978547454 -0.156456083
vn 0.120075785 -0.986953795 -0.107257001
vn -0.122157268 -0.986770988 -0.106586635
vn 0.116799451 -0.993008137 -0.0171109624
vn -0.120541096 -0.99244678 -0.0227822252
vn -0.166800708 -0.985931516 0.0107963197
vn 0.156527504 -0.987483859 0.0193585623
vn -0.00234870706 -0.998542905 0.0539128892
vn 0.468388319 -0.854191244 0.225764647
vn -0.649516582 -0.735995293 0.190890387
vn 0.399041891 -0.811001778 0.427833676
vn -0.568124652 -0.658640325 0.493383408
vn -0.0332767218 -0.710448623 0.702961862
g Loafer_0
f 3/3/3 2/2/2 1/1/1
f 4/4/4 3/3/3 1/1/1
f 4/4/4 1/1/1 5/5/5
f 6/6/6 4/4/4 5/5/5
f 6/6/6 5/5/5 7/7/7
f 4/4/4 8/8/8 3/3/3
f 4/4/4 6/6/6 8/8/8
f 9/9/9 6/6/6 7/7/7
f 6/6/6 9/9/9 8/8/8
f 9/9/9 7/7/7 10/10/10
f 9/9/9 11/11/11 8/8/8
f 12/12/12 8/8/8 11/11/11
f 3/3/3 8/8/8 12/12/12
f 9/9/9 13/13/13 11/11/11
f 13/13/13 9/9/9 10/10/10
f 14/14/14 3/3/3 12/12/12
f 15/15/15 13/13/13 10/10/10
f 11/11/11 13/13/13 15/15/15
f 16/16/16 15/15/15 10/10/10
f 17/17/17 15/15/15 16/16/16
f 18/18/18 17/17/17 16/16/16
f 15/15/15 17/17/17 19/19/19
f 11/11/11 15/15/15 19/19/19
f 20/20/20 17/17/17 18/18/18
f 19/19/19 17/17/17 20/20/20
f 21/21/21 20/20/20 18/18/18
f 21/21/21 22/22/22 20/20/20
f 22/22/22 23/23/23 20/20/20
f 24/24/24 20/20/20 23/23/23
f 24/24/24 19/19/19 20/20/20
f 25/25/25 24/24/24 23/23/23
f 19/19/19 24/24/24 26/26/26
f 11/11/11 19/19/19 26/26/26
f 24/24/24 25/25/25 26/26/26
f 25/25/25 27/27/27 26/26/26
f 28/28/28 27/27/27 25/25/25
f 29/29/29 27/27/27 28/28/28
f 30/30/30 28/28/28 25/25/25
f 30/30/30 31/31/31 28/28/28
f 29/29/29 28/28/28 32/32/32
f 31/31/31 32/32/32 28/28/28
f 29/29/29 32/32/32 33/33/33
f 34/34/34 32/32/32 31/31/31
f 33/33/33 32/32/32 34/34/34
f 34/34/34 31/31/31 35/35/35
f 31/31/31 36/36/36 35/35/35
f 34/34/34 35/35/35 37/37/37
f 38/38/38 34/34/34 37/37/37
f 38/38/38 33/33/33 34/34/34
f 39/39/39 35/35/35 36/36/36
f 40/40/40 39/39/39 36/36/36
f 39/39/39 41/41/41 35/35/35
f 41/41/41 37/37/37 35/35/35
f 42/42/42 39/39/39 40/40/40
f 42/42/42 41/41/41 39/39/39
f 43/43/43 42/42/42 40/40/40
f 44/44/44 42/42/42 43/43/43
f 44/44/44 41/41/41 42/42/42
f 45/45/45 44/44/44 43/43/43
f 46/46/46 44/44/44 45/45/45
f 46/46/46 41/41/41 44/44/44
f 47/47/47 46/46/46 45/45/45
f 48/48/48 41/41/41 46/46/46
f 48/48/48 46/46/46 47/47/47
f 37/37/37 41/41/41 48/48/48
f 49/49/49 48/48/48 47/47/47
f 50/50/50 48/48/48 49/49/49
f 50/50/50 37/37/37 48/48/48
f 51/51/51 50/50/50 49/49/49
f 50/50/50 51/51/51 52/52/52
f 37/37/37 50/50/50 52/52/52
f 51/51/51 53/53/53 52/52/52
f 53/53/53 54/54/54 52/52/52
f 54/54/54 53/53/53 55/55/55
f 56/56/56 37/37/37 52/52/52
f 56/56/56 52/52/52 57/57/57
f 52/52/52 54/54/54 57/57/57
f 56/56/56 58/58/58 37/37/37
f 56/56/56 57/57/57 58/58/58
f 58/58/58 38/38/38 37/37/37
f 38/38/38 58/58/58 33/33/33
f 57/57/57 59/59/59 58/58/58
f 58/58/58 59/59/59 33/33/33
f 60/60/60 59/59/59 57/57/57
f 33/33/33 59/59/59 60/60/60
f 61/61/61 57/57/57 54/54/54
f 61/61/61 60/60/60 57/57/57
f 62/62/62 33/33/33 60/60/60
f 62/62/62 29/29/29 33/33/33
f 63/63/63 54/54/54 55/55/55
f 63/63/63 55/55/55 64/64/64
f 55/55/55 14/14/14 64/64/64
f 12/12/12 64/64/64 14/14/14
f 65/65/65 54/54/54 63/63/63
f 65/65/65 61/61/61 54/54/54
f 65/65/65 63/63/63 64/64/64
f 61/61/61 66/66/66 60/60/60
f 60/60/60 67/67/67 62/62/62
f 66/66/66 67/67/67 60/60/60
f 68/68/68 66/66/66 61/61/61
f 65/65/65 68/68/68 61/61/61
f 69/69/69 66/66/66 68/68/68
f 69/69/69 68/68/68 65/65/65
f 66/66/66 69/69/69 67/67/67
f 70/70/70 65/65/65 64/64/64
f 70/70/70 69/69/69 65/65/65
f 71/71/71 64/64/64 12/12/12
f 71/71/71 70/70/70 64/64/64
f 67/67/67 72/72/72 62/62/62
f 62/62/62 72/72/72 29/29/29
f 69/69/69 73/73/73 67/67/67
f 73/73/73 69/69/69 70/70/70
f 72/72/72 67/67/67 73/73/73
f 74/74/74 73/73/73 70/70/70
f 70/70/70 71/71/71 74/74/74
f 75/75/75 72/72/72 73/73/73
f 75/75/75 73/73/73 74/74/74
f 72/72/72 76/76/76 29/29/29
f 72/72/72 75/75/75 76/76/76
f 29/29/29 76/76/76 77/77/77
f 76/76/76 75/75/75 77/77/77
f 77/77/77 75/75/75 74/74/74
f 29/29/29 77/77/77 27/27/27
f 77/77/77 74/74/74 78/78/78
f 71/71/71 78/78/78 74/74/74
f 77/77/77 79/79/79 27/27/27
f 79/79/79 77/77/77 78/78/78
f 26/26/26 27/27/27 79/79/79
f 80/80/80 78/78/78 71/71/71
f 79/79/79 78/78/78 80/80/80
f 81/81/81 26/26/26 79/79/79
f 81/81/81 79/79/79 80/80/80
f 81/81/81 11/11/11 26/26/26
f 81/81/81 80/80/80 11/11/11
f 82/82/82 80/80/80 71/71/71
f 82/82/82 11/11/11 80/80/80
f 82/82/82 71/71/71 12/12/12
f 82/82/82 12/12/12 11/11/11
f 85/85/85 84/84/84 83/83/83
f 86/86/86 84/84/84 85/85/85
f 86/86/86 85/85/85 87/87/87
f 85/85/85 88/88/88 87/87/87
f 87/87/87 88/88/88 89/89/89
f 88/88/88 90/90/90 89/89/89
f 91/91/91 87/87/87 89/89/89
f 87/87/87 91/91/91 86/86/86
f 92/92/92 91/91/91 89/89/89
f 91/91/91 93/93/93 86/86/86
f 93/93/93 94/94/94 86/86/86
f 94/94/94 95/95/95 86/86/86
f 95/95/95 84/84/84 86/86/86
f 94/94/94 96/96/96 95/95/95
f 95/95/95 97/97/97 84/84/84
f 96/96/96 97/97/97 95/95/95
f 97/97/97 98/98/98 84/84/84
f 99/99/99 97/97/97 96/96/96
f 98/98/98 97/97/97 99/99/99
f 100/100/100 99/99/99 96/96/96
f 101/101/101 98/98/98 99/99/99
f 100/100/100 102/102/102 99/99/99
f 99/99/99 103/103/103 101/101/101
f 102/102/102 103/103/103 99/99/99
f 103/103/103 104/104/104 101/101/101
f 105/105/105 104/104/104 103/103/103
f 103/103/103 102/102/102 106/106/106
f 106/106/106 105/105/105 103/103/103
f 102/102/102 107/107/107 106/106/106
f 108/108/108 105/105/105 106/106/106
f 106/106/106 107/107/107 109/109/109
f 109/109/109 108/108/108 106/106/106
f 107/107/107 110/110/110 109/109/109
f 111/111/111 108/108/108 109/109/109
f 109/109/109 110/110/110 112/112/112
f 112/112/112 111/111/111 109/109/109
f 113/113/113 111/111/111 112/112/112
f 110/110/110 114/114/114 112/112/112
f 115/115/115 113/113/113 112/112/112
f 112/112/112 114/114/114 115/115/115
f 114/114/114 116/116/116 115/115/115
f 119/119/119 118/118/118 117/117/117
f 120/120/120 119/119/119 117/117/117
f 121/121/121 119/119/119 120/120/120
f 122/122/122 121/121/121 120/120/120
f 123/123/123 122/122/122 120/120/120
f 120/120/120 124/124/124 123/123/123
f 120/120/120 117/117/117 124/124/124
f 124/124/124 125/125/125 123/123/123
f 125/125/125 124/124/124 126/126/126
f 117/117/117 127/127/127 124/124/124
f 124/124/124 127/127/127 126/126/126
f 127/127/127 117/117/117 128/128/128
f 129/129/129 126/126/126 127/127/127
f 130/130/130 127/127/127 128/128/128
f 131/131/131 129/129/129 127/127/127
f 130/130/130 131/131/131 127/127/127
f 134/134/134 133/133/133 132/132/132
f 135/135/135 134/134/134 132/132/132
f 132/132/132 136/136/136 135/135/135
f 136/136/136 137/137/137 135/135/135
f 135/135/135 137/137/137 138/138/138
f 135/135/135 139/139/139 134/134/134
f 139/139/139 135/135/135 138/138/138
f 139/139/139 140/140/140 134/134/134
f 141/141/141 140/140/140 139/139/139
f 139/139/139 138/138/138 142/142/142
f 142/142/142 141/141/141 139/139/139
f 138/138/138 143/143/143 142/142/142
f 144/144/144 141/141/141 142/142/142
f 142/142/142 143/143/143 145/145/145
f 145/145/145 144/144/144 142/142/142
f 143/143/143 146/146/146 145/145/145
f 147/147/147 144/144/144 145/145/145
f 146/146/146 148/148/148 145/145/145
f 149/149/149 147/147/147 145/145/145
f 148/148/148 149/149/149 145/145/145
f 147/147/147 149/149/149 150/150/150
f 148/148/148 151/151/151 149/149/149
f 149/149/149 152/152/152 150/150/150
f 151/151/151 152/152/152 149/149/149
f 153/153/153 150/150/150 152/152/152
f 154/154/154 152/152/152 151/151/151
f 154/154/154 153/153/153 152/152/152
f 155/155/155 154/154/154 151/151/151
f 155/155/155 156/156/156 154/154/154
f 157/157/157 153/153/153 154/154/154
f 156/156/156 157/157/157 154/154/154
f 153/153/153 157/157/157 158/158/158
f 159/159/159 153/153/153 158/158/158
f 160/160/160 158/158/158 157/157/157
f 157/157/157 156/156/156 161/161/161
f 161/161/161 160/160/160 157/157/157
f 156/156/156 162/162/162 161/161/161
f 163/163/163 160/160/160 161/161/161
f 162/162/162 164/164/164 161/161/161
f 165/165/165 163/163/163 161/161/161
f 164/164/164 165/165/165 161/161/161
f 168/168/168 167/167/167 166/166/166
f 167/167/167 169/169/169 166/166/166
f 169/169/169 167/167/167 170/170/170
f 169/169/169 171/171/171 166/166/166
f 171/171/171 172/172/172 166/166/166
f 173/173/173 172/172/172 171/171/171
f 174/174/174 173/173/173 171/171/171
f 175/175/175 173/173/173 174/174/174
f 176/176/176 175/175/175 174/174/174
f 176/176/176 174/174/174 177/177/177
f 174/174/174 171/171/171 178/178/178
f 178/178/178 171/171/171 169/169/169
f 174/174/174 179/179/179 177/177/177
f 179/179/179 174/174/174 178/178/178
f 177/177/177 179/179/179 180/180/180
f 169/169/169 170/170/170 181/181/181
f 182/182/182 181/181/181 170/170/170
f 183/183/183 182/182/182 170/170/170
f 184/184/184 182/182/182 183/183/183
f 184/184/184 185/185/185 182/182/182
f 186/186/186 178/178/178 169/169/169
f 186/186/186 169/169/169 181/181/181
f 178/178/178 186/186/186 187/187/187
f 186/186/186 181/181/181 187/187/187
f 179/179/179 178/178/178 188/188/188
f 188/188/188 178/178/178 187/187/187
f 179/179/179 189/189/189 180/180/180
f 189/189/189 179/179/179 188/188/188
f 180/180/180 189/189/189 190/190/190
f 191/191/191 180/180/180 190/190/190
f 189/189/189 188/188/188 192/192/192
f 192/192/192 188/188/188 187/187/187
f 190/190/190 189/189/189 192/192/192
f 191/191/191 190/190/190 193/193/193
f 194/194/194 191/191/191 193/193/193
f 193/193/193 190/190/190 195/195/195
f 190/190/190 192/192/192 195/195/195
f 192/192/192 196/196/196 195/195/195
f 196/196/196 192/192/192 187/187/187
f 197/197/197 196/196/196 187/187/187
f 196/196/196 198/198/198 195/195/195
f 196/196/196 197/197/197 198/198/198
f 197/197/197 199/199/199 198/198/198
f 200/200/200 199/199/199 197/197/197
f 201/201/201 197/197/197 187/187/187
f 181/181/181 201/201/201 187/187/187
f 201/201/201 181/181/181 202/202/202
f 197/197/197 201/201/201 202/202/202
f 181/181/181 182/182/182 202/202/202
f 203/203/203 200/200/200 197/197/197
f 203/203/203 197/197/197 202/202/202
f 200/200/200 203/203/203 204/204/204
f 203/203/203 202/202/202 204/204/204
f 205/205/205 200/200/200 204/204/204
f 202/202/202 182/182/182 206/206/206
f 202/202/202 206/206/206 204/204/204
f 205/205/205 204/204/204 207/207/207
f 208/208/208 205/205/205 207/207/207
f 209/209/209 208/208/208 207/207/207
f 210/210/210 207/207/207 204/204/204
f 206/206/206 210/210/210 204/204/204
f 182/182/182 211/211/211 206/206/206
f 185/185/185 211/211/211 182/182/182
f 206/206/206 211/211/211 212/212/212
f 211/211/211 185/185/185 212/212/212
f 210/210/210 206/206/206 212/212/212
f 185/185/185 213/213/213 212/212/212
f 214/214/214 209/209/209 207/207/207
f 214/214/214 207/207/207 210/210/210
f 215/215/215 210/210/210 212/212/212
f 215/215/215 214/214/214 210/210/210
f 212/212/212 213/213/213 216/216/216
f 216/216/216 215/215/215 212/212/212
f 213/213/213 217/217/217 216/216/216
f 217/217/217 218/218/218 216/216/216
f 218/218/218 219/219/219 216/216/216
f 215/215/215 216/216/216 219/219/219
f 218/218/218 220/220/220 219/219/219
f 209/209/209 214/214/214 221/221/221
f 222/222/222 209/209/209 221/221/221
f 222/222/222 221/221/221 223/223/223
f 214/214/214 215/215/215 224/224/224
f 224/224/224 215/215/215 219/219/219
f 221/221/221 214/214/214 224/224/224
f 220/220/220 225/225/225 219/219/219
f 219/219/219 225/225/225 224/224/224
f 224/224/224 226/226/226 221/221/221
f 225/225/225 226/226/226 224/224/224
f 221/221/221 227/227/227 223/223/223
f 226/226/226 227/227/227 221/221/221
f 227/227/227 228/228/228 223/223/223
f 227/227/227 226/226/226 228/228/228
f 228/228/228 229/229/229 223/223/223
f 230/230/230 229/229/229 228/228/228
f 225/225/225 220/220/220 231/231/231
f 220/220/220 232/232/232 231/231/231
f 226/226/226 225/225/225 233/233/233
f 226/226/226 233/233/233 228/228/228
f 225/225/225 231/231/231 233/233/233
f 234/234/234 230/230/230 228/228/228
f 234/234/234 228/228/228 233/233/233
f 231/231/231 232/232/232 235/235/235
f 232/232/232 236/236/236 235/235/235
f 235/235/235 236/236/236 237/237/237
f 236/236/236 238/238/238 237/237/237
f 238/238/238 239/239/239 237/237/237
f 240/240/240 233/233/233 231/231/231
f 235/235/235 240/240/240 231/231/231
f 240/240/240 234/234/234 233/233/233
f 240/240/240 235/235/235 237/237/237
f 230/230/230 234/234/234 241/241/241
f 242/242/242 230/230/230 241/241/241
f 243/243/243 242/242/242 241/241/241
f 234/234/234 240/240/240 244/244/244
f 241/241/241 234/234/234 244/244/244
f 244/244/244 240/240/240 237/237/237
f 239/239/239 245/245/245 237/237/237
f 245/245/245 239/239/239 246/246/246
f 247/247/247 245/245/245 246/246/246
f 246/246/246 248/248/248 247/247/247
f 248/248/248 249/249/249 247/247/247
f 245/245/245 250/250/250 237/237/237
f 250/250/250 244/244/244 237/237/237
f 245/245/245 247/247/247 250/250/250
f 241/241/241 244/244/244 251/251/251
f 251/251/251 243/243/243 241/241/241
f 244/244/244 250/250/250 251/251/251
f 251/251/251 252/252/252 243/243/243
f 252/252/252 253/253/253 243/243/243
f 250/250/250 254/254/254 251/251/251
f 247/247/247 254/254/254 250/250/250
f 254/254/254 252/252/252 251/251/251
f 252/252/252 255/255/255 253/253/253
f 255/255/255 256/256/256 253/253/253
f 257/257/257 256/256/256 255/255/255
f 254/254/254 258/258/258 252/252/252
f 254/254/254 247/247/247 258/258/258
f 258/258/258 255/255/255 252/252/252
f 259/259/259 257/257/257 255/255/255
f 257/257/257 259/259/259 260/260/260
f 247/247/247 261/261/261 258/258/258
f 249/249/249 261/261/261 247/247/247
f 255/255/255 258/258/258 262/262/262
f 259/259/259 255/255/255 262/262/262
f 258/258/258 261/261/261 262/262/262
f 259/259/259 263/263/263 260/260/260
f 259/259/259 262/262/262 263/263/263
f 249/249/249 264/264/264 261/261/261
f 249/249/249 265/265/265 264/264/264
f 265/265/265 266/266/266 264/264/264
f 266/266/266 267/267/267 264/264/264
f 263/263/263 268/268/268 260/260/260
f 268/268/268 269/269/269 260/260/260
f 269/269/269 268/268/268 270/270/270
f 268/268/268 271/271/271 270/270/270
f 262/262/262 272/272/272 263/263/263
f 263/263/263 272/272/272 268/268/268
f 261/261/261 273/273/273 262/262/262
f 264/264/264 273/273/273 261/261/261
f 272/272/272 262/262/262 273/273/273
f 274/274/274 264/264/264 267/267/267
f 264/264/264 274/274/274 273/273/273
f 275/275/275 274/274/274 267/267/267
f 275/275/275 276/276/276 274/274/274
f 268/268/268 277/277/277 271/271/271
f 272/272/272 277/277/277 268/268/268
f 277/277/277 278/278/278 271/271/271
f 277/277/277 279/279/279 278/278/278
f 279/279/279 277/277/277 272/272/272
f 279/279/279 280/280/280 278/278/278
f 281/281/281 272/272/272 273/273/273
f 274/274/274 281/281/281 273/273/273
f 281/281/281 279/279/279 272/272/272
f 276/276/276 282/282/282 274/274/274
f 274/274/274 282/282/282 281/281/281
f 282/282/282 279/279/279 281/281/281
f 279/279/279 282/282/282 280/280/280
f 276/276/276 283/283/283 282/282/282
f 282/282/282 284/284/284 280/280/280
f 283/283/283 284/284/284 282/282/282
f 287/287/287 286/286/286 285/285/285
f 286/286/286 288/288/288 285/285/285
f 285/285/285 288/288/288 289/289/289
f 288/288/288 290/290/290 289/289/289
f 289/289/289 290/290/290 291/291/291
f 292/292/292 288/288/288 286/286/286
f 290/290/290 288/288/288 292/292/292
f 290/290/290 293/293/293 291/291/291
f 293/293/293 290/290/290 292/292/292
f 291/291/291 293/293/293 294/294/294
f 295/295/295 293/293/293 292/292/292
f 292/292/292 296/296/296 295/295/295
f 292/292/292 286/286/286 296/296/296
f 297/297/297 293/293/293 295/295/295
f 293/293/293 297/297/297 294/294/294
f 286/286/286 298/298/298 296/296/296
f 297/297/297 299/299/299 294/294/294
f 297/297/297 295/295/295 299/299/299
f 299/299/299 300/300/300 294/294/294
f 299/299/299 301/301/301 300/300/300
f 301/301/301 302/302/302 300/300/300
f 301/301/301 299/299/299 303/303/303
f 299/299/299 295/295/295 303/303/303
f 301/301/301 304/304/304 302/302/302
f 301/301/301 303/303/303 304/304/304
f 304/304/304 305/305/305 302/302/302
f 306/306/306 305/305/305 304/304/304
f 307/307/307 306/306/306 304/304/304
f 304/304/304 308/308/308 307/307/307
f 303/303/303 308/308/308 304/304/304
f 308/308/308 309/309/309 307/307/307
f 308/308/308 303/303/303 310/310/310
f 303/303/303 295/295/295 310/310/310
f 309/309/309 308/308/308 310/310/310
f 311/311/311 309/309/309 310/310/310
f 311/311/311 312/312/312 309/309/309
f 311/311/311 313/313/313 312/312/312
f 312/312/312 314/314/314 309/309/309
f 315/315/315 314/314/314 312/312/312
f 312/312/312 313/313/313 316/316/316
f 316/316/316 315/315/315 312/312/312
f 316/316/316 313/313/313 317/317/317
f 316/316/316 318/318/318 315/315/315
f 316/316/316 317/317/317 318/318/318
f 315/315/315 318/318/318 319/319/319
f 320/320/320 315/315/315 319/319/319
f 319/319/319 318/318/318 321/321/321
f 318/318/318 322/322/322 321/321/321
f 317/317/317 322/322/322 318/318/318
f 319/319/319 323/323/323 320/320/320
f 323/323/323 324/324/324 320/320/320
f 325/325/325 323/323/323 319/319/319
f 321/321/321 325/325/325 319/319/319
f 323/323/323 326/326/326 324/324/324
f 325/325/325 326/326/326 323/323/323
f 326/326/326 327/327/327 324/324/324
f 326/326/326 328/328/328 327/327/327
f 325/325/325 328/328/328 326/326/326
f 328/328/328 329/329/329 327/327/327
f 328/328/328 330/330/330 329/329/329
f 325/325/325 330/330/330 328/328/328
f 330/330/330 331/331/331 329/329/329
f 325/325/325 332/332/332 330/330/330
f 330/330/330 332/332/332 331/331/331
f 325/325/325 321/321/321 332/332/332
f 332/332/332 333/333/333 331/331/331
f 332/332/332 334/334/334 333/333/333
f 321/321/321 334/334/334 332/332/332
f 334/334/334 335/335/335 333/333/333
f 335/335/335 334/334/334 336/336/336
f 334/334/334 321/321/321 336/336/336
f 337/337/337 335/335/335 336/336/336
f 338/338/338 337/337/337 336/336/336
f 337/337/337 338/338/338 339/339/339
f 321/321/321 340/340/340 336/336/336
f 336/336/336 340/340/340 341/341/341
f 338/338/338 336/336/336 341/341/341
f 342/342/342 340/340/340 321/321/321
f 341/341/341 340/340/340 342/342/342
f 322/322/322 342/342/342 321/321/321
f 342/342/342 322/322/322 317/317/317
f 343/343/343 341/341/341 342/342/342
f 343/343/343 342/342/342 317/317/317
f 343/343/343 344/344/344 341/341/341
f 343/343/343 317/317/317 344/344/344
f 341/341/341 345/345/345 338/338/338
f 344/344/344 345/345/345 341/341/341
f 317/317/317 346/346/346 344/344/344
f 313/313/313 346/346/346 317/317/317
f 338/338/338 347/347/347 339/339/339
f 339/339/339 347/347/347 348/348/348
f 298/298/298 339/339/339 348/348/348
f 348/348/348 296/296/296 298/298/298
f 338/338/338 349/349/349 347/347/347
f 345/345/345 349/349/349 338/338/338
f 347/347/347 349/349/349 348/348/348
f 350/350/350 345/345/345 344/344/344
f 351/351/351 344/344/344 346/346/346
f 351/351/351 350/350/350 344/344/344
f 350/350/350 352/352/352 345/345/345
f 352/352/352 349/349/349 345/345/345
f 350/350/350 353/353/353 352/352/352
f 352/352/352 353/353/353 349/349/349
f 353/353/353 350/350/350 351/351/351
f 349/349/349 354/354/354 348/348/348
f 353/353/353 354/354/354 349/349/349
f 348/348/348 355/355/355 296/296/296
f 354/354/354 355/355/355 348/348/348
f 356/356/356 351/351/351 346/346/346
f 356/356/356 346/346/346 313/313/313
f 357/357/357 353/353/353 351/351/351
f 353/353/353 357/357/357 354/354/354
f 351/351/351 356/356/356 357/357/357
f 357/357/357 358/358/358 354/354/354
f 355/355/355 354/354/354 358/358/358
f 356/356/356 359/359/359 357/357/357
f 357/357/357 359/359/359 358/358/358
f 360/360/360 356/356/356 313/313/313
f 359/359/359 356/356/356 360/360/360
f 360/360/360 313/313/313 361/361/361
f 359/359/359 360/360/360 361/361/361
f 359/359/359 361/361/361 358/358/358
f 361/361/361 313/313/313 311/311/311
f 358/358/358 361/361/361 362/362/362
f 362/362/362 355/355/355 358/358/358
f 363/363/363 361/361/361 311/311/311
f 361/361/361 363/363/363 362/362/362
f 311/311/311 310/310/310 363/363/363
f 362/362/362 364/364/364 355/355/355
f 362/362/362 363/363/363 364/364/364
f 310/310/310 365/365/365 363/363/363
f 363/363/363 365/365/365 364/364/364
f 295/295/295 365/365/365 310/310/310
f 364/364/364 365/365/365 295/295/295
f 364/364/364 366/366/366 355/355/355
f 295/295/295 366/366/366 364/364/364
f 355/355/355 366/366/366 296/296/296
f 296/296/296 366/366/366 295/295/295
f 369/369/369 368/368/368 367/367/367
f 369/369/369 370/370/370 368/368/368
f 368/368/368 370/370/370 371/371/371
f 372/372/372 368/368/368 371/371/371
f 372/372/372 371/371/371 373/373/373
f 374/374/374 372/372/372 373/373/373
f 371/371/371 375/375/375 373/373/373
f 375/375/375 371/371/371 370/370/370
f 375/375/375 376/376/376 373/373/373
f 377/377/377 375/375/375 370/370/370
f 378/378/378 377/377/377 370/370/370
f 379/379/379 378/378/378 370/370/370
f 369/369/369 379/379/379 370/370/370
f 380/380/380 378/378/378 379/379/379
f 381/381/381 379/379/379 369/369/369
f 381/381/381 380/380/380 379/379/379
f 382/382/382 381/381/381 369/369/369
f 381/381/381 383/383/383 380/380/380
f 381/381/381 382/382/382 383/383/383
f 383/383/383 384/384/384 380/380/380
f 382/382/382 385/385/385 383/383/383
f 386/386/386 384/384/384 383/383/383
f 387/387/387 383/383/383 385/385/385
f 387/387/387 386/386/386 383/383/383
f 388/388/388 387/387/387 385/385/385
f 388/388/388 389/389/389 387/387/387
f 386/386/386 387/387/387 390/390/390
f 389/389/389 390/390/390 387/387/387
f 391/391/391 386/386/386 390/390/390
f 389/389/389 392/392/392 390/390/390
f 391/391/391 390/390/390 393/393/393
f 392/392/392 393/393/393 390/390/390
f 394/394/394 391/391/391 393/393/393
f 392/392/392 395/395/395 393/393/393
f 394/394/394 393/393/393 396/396/396
f 395/395/395 396/396/396 393/393/393
f 395/395/395 397/397/397 396/396/396
f 398/398/398 394/394/394 396/396/396
f 397/397/397 399/399/399 396/396/396
f 398/398/398 396/396/396 399/399/399
f 400/400/400 398/398/398 399/399/399
f 403/403/403 402/402/402 401/401/401
f 402/402/402 404/404/404 401/401/401
f 402/402/402 405/405/405 404/404/404
f 405/405/405 406/406/406 404/404/404
f 406/406/406 407/407/407 404/404/404
f 408/408/408 404/404/404 407/407/407
f 401/401/401 404/404/404 408/408/408
f 409/409/409 408/408/408 407/407/407
f 408/408/408 409/409/409 410/410/410
f 411/411/411 401/401/401 408/408/408
f 411/411/411 408/408/408 410/410/410
f 401/401/401 411/411/411 412/412/412
f 410/410/410 413/413/413 411/411/411
f 411/411/411 414/414/414 412/412/412
f 413/413/413 415/415/415 411/411/411
f 415/415/415 414/414/414 411/411/411
f 418/418/418 417/417/417 416/416/416
f 417/417/417 419/419/419 416/416/416
f 420/420/420 416/416/416 419/419/419
f 421/421/421 420/420/420 419/419/419
f 421/421/421 419/419/419 422/422/422
f 423/423/423 419/419/419 417/417/417
f 419/419/419 423/423/423 422/422/422
f 424/424/424 423/423/423 417/417/417
f 424/424/424 425/425/425 423/423/423
f 422/422/422 423/423/423 426/426/426
f 425/425/425 426/426/426 423/423/423
f 427/427/427 422/422/422 426/426/426
f 425/425/425 428/428/428 426/426/426
f 427/427/427 426/426/426 429/429/429
f 428/428/428 429/429/429 426/426/426
f 430/430/430 427/427/427 429/429/429
f 428/428/428 431/431/431 429/429/429
f 432/432/432 430/430/430 429/429/429
f 431/431/431 433/433/433 429/429/429
f 433/433/433 432/432/432 429/429/429
f 433/433/433 431/431/431 434/434/434
f 435/435/435 432/432/432 433/433/433
f 436/436/436 433/433/433 434/434/434
f 436/436/436 435/435/435 433/433/433
f 434/434/434 437/437/437 436/436/436
f 436/436/436 438/438/438 435/435/435
f 437/437/437 438/438/438 436/436/436
f 438/438/438 439/439/439 435/435/435
f 440/440/440 439/439/439 438/438/438
f 437/437/437 441/441/441 438/438/438
f 441/441/441 440/440/440 438/438/438
f 441/441/441 437/437/437 442/442/442
f 437/437/437 443/443/443 442/442/442
f 442/442/442 444/444/444 441/441/441
f 440/440/440 441/441/441 445/445/445
f 444/444/444 445/445/445 441/441/441
f 446/446/446 440/440/440 445/445/445
f 444/444/444 447/447/447 445/445/445
f 448/448/448 446/446/446 445/445/445
f 447/447/447 449/449/449 445/445/445
f 449/449/449 448/448/448 445/445/445
f 452/452/452 451/451/451 450/450/450
f 453/453/453 452/452/452 450/450/450
f 452/452/452 453/453/453 454/454/454
f 455/455/455 453/453/453 450/450/450
f 456/456/456 455/455/455 450/450/450
f 456/456/456 457/457/457 455/455/455
f 457/457/457 458/458/458 455/455/455
f 457/457/457 459/459/459 458/458/458
f 459/459/459 460/460/460 458/458/458
f 458/458/458 460/460/460 461/461/461
f 455/455/455 458/458/458 462/462/462
f 455/455/455 462/462/462 453/453/453
f 463/463/463 458/458/458 461/461/461
f 458/458/458 463/463/463 462/462/462
f 463/463/463 461/461/461 464/464/464
f 454/454/454 453/453/453 465/465/465
f 465/465/465 466/466/466 454/454/454
f 466/466/466 467/467/467 454/454/454
f 466/466/466 468/468/468 467/467/467
f 469/469/469 468/468/468 466/466/466
f 462/462/462 470/470/470 453/453/453
f 453/453/453 470/470/470 465/465/465
f 470/470/470 462/462/462 471/471/471
f 465/465/465 470/470/470 471/471/471
f 462/462/462 463/463/463 472/472/472
f 462/462/462 472/472/472 471/471/471
f 473/473/473 463/463/463 464/464/464
f 463/463/463 473/473/473 472/472/472
f 473/473/473 464/464/464 474/474/474
f 464/464/464 475/475/475 474/474/474
f 472/472/472 473/473/473 476/476/476
f 472/472/472 476/476/476 471/471/471
f 473/473/473 474/474/474 476/476/476
f 474/474/474 475/475/475 477/477/477
f 475/475/475 478/478/478 477/477/477
f 474/474/474 477/477/477 479/479/479
f 476/476/476 474/474/474 479/479/479
f 480/480/480 476/476/476 479/479/479
f 476/476/476 480/480/480 471/471/471
f 480/480/480 481/481/481 471/471/471
f 482/482/482 480/480/480 479/479/479
f 481/481/481 480/480/480 482/482/482
f 483/483/483 481/481/481 482/482/482
f 483/483/483 484/484/484 481/481/481
f 481/481/481 485/485/485 471/471/471
f 485/485/485 465/465/465 471/471/471
f 465/465/465 485/485/485 486/486/486
f 485/485/485 481/481/481 486/486/486
f 466/466/466 465/465/465 486/486/486
f 484/484/484 487/487/487 481/481/481
f 481/481/481 487/487/487 486/486/486
f 487/487/487 484/484/484 488/488/488
f 486/486/486 487/487/487 488/488/488
f 484/484/484 489/489/489 488/488/488
f 466/466/466 486/486/486 490/490/490
f 490/490/490 486/486/486 488/488/488
f 488/488/488 489/489/489 491/491/491
f 489/489/489 492/492/492 491/491/491
f 492/492/492 493/493/493 491/491/491
f 491/491/491 494/494/494 488/488/488
f 494/494/494 490/490/490 488/488/488
f 495/495/495 466/466/466 490/490/490
f 495/495/495 469/469/469 466/466/466
f 495/495/495 490/490/490 496/496/496
f 469/469/469 495/495/495 496/496/496
f 490/490/490 494/494/494 496/496/496
f 497/497/497 469/469/469 496/496/496
f 493/493/493 498/498/498 491/491/491
f 491/491/491 498/498/498 494/494/494
f 494/494/494 499/499/499 496/496/496
f 498/498/498 499/499/499 494/494/494
f 497/497/497 496/496/496 500/500/500
f 499/499/499 500/500/500 496/496/496
f 501/501/501 497/497/497 500/500/500
f 502/502/502 501/501/501 500/500/500
f 503/503/503 502/502/502 500/500/500
f 500/500/500 499/499/499 503/503/503
f 504/504/504 502/502/502 503/503/503
f 498/498/498 493/493/493 505/505/505
f 493/493/493 506/506/506 505/505/505
f 505/505/505 506/506/506 507/507/507
f 499/499/499 498/498/498 508/508/508
f 499/499/499 508/508/508 503/503/503
f 498/498/498 505/505/505 508/508/508
f 509/509/509 504/504/504 503/503/503
f 509/509/509 503/503/503 508/508/508
f 510/510/510 508/508/508 505/505/505
f 510/510/510 509/509/509 508/508/508
f 511/511/511 505/505/505 507/507/507
f 511/511/511 510/510/510 505/505/505
f 512/512/512 511/511/511 507/507/507
f 510/510/510 511/511/511 512/512/512
f 513/513/513 512/512/512 507/507/507
f 513/513/513 514/514/514 512/512/512
f 504/504/504 509/509/509 515/515/515
f 516/516/516 504/504/504 515/515/515
f 509/509/509 510/510/510 517/517/517
f 517/517/517 510/510/510 512/512/512
f 515/515/515 509/509/509 517/517/517
f 514/514/514 518/518/518 512/512/512
f 512/512/512 518/518/518 517/517/517
f 516/516/516 515/515/515 519/519/519
f 520/520/520 516/516/516 519/519/519
f 520/520/520 519/519/519 521/521/521
f 522/522/522 520/520/520 521/521/521
f 523/523/523 522/522/522 521/521/521
f 517/517/517 524/524/524 515/515/515
f 524/524/524 519/519/519 515/515/515
f 518/518/518 524/524/524 517/517/517
f 519/519/519 524/524/524 521/521/521
f 518/518/518 514/514/514 525/525/525
f 514/514/514 526/526/526 525/525/525
f 526/526/526 527/527/527 525/525/525
f 524/524/524 518/518/518 528/528/528
f 518/518/518 525/525/525 528/528/528
f 524/524/524 528/528/528 521/521/521
f 529/529/529 523/523/523 521/521/521
f 523/523/523 529/529/529 530/530/530
f 529/529/529 531/531/531 530/530/530
f 532/532/532 530/530/530 531/531/531
f 533/533/533 532/532/532 531/531/531
f 534/534/534 529/529/529 521/521/521
f 528/528/528 534/534/534 521/521/521
f 531/531/531 529/529/529 534/534/534
f 528/528/528 525/525/525 535/535/535
f 527/527/527 535/535/535 525/525/525
f 534/534/534 528/528/528 535/535/535
f 536/536/536 535/535/535 527/527/527
f 537/537/537 536/536/536 527/527/527
f 538/538/538 534/534/534 535/535/535
f 538/538/538 531/531/531 534/534/534
f 536/536/536 538/538/538 535/535/535
f 539/539/539 536/536/536 537/537/537
f 540/540/540 539/539/539 537/537/537
f 540/540/540 541/541/541 539/539/539
f 542/542/542 538/538/538 536/536/536
f 531/531/531 538/538/538 542/542/542
f 539/539/539 542/542/542 536/536/536
f 543/543/543 533/533/533 531/531/531
f 543/543/543 531/531/531 542/542/542
f 541/541/541 544/544/544 539/539/539
f 544/544/544 541/541/541 545/545/545
f 542/542/542 539/539/539 546/546/546
f 539/539/539 544/544/544 546/546/546
f 543/543/543 542/542/542 546/546/546
f 547/547/547 533/533/533 543/543/543
f 548/548/548 533/533/533 547/547/547
f 549/549/549 548/548/548 547/547/547
f 550/550/550 549/549/549 547/547/547
f 551/551/551 544/544/544 545/545/545
f 546/546/546 544/544/544 551/551/551
f 552/552/552 543/543/543 546/546/546
f 552/552/552 547/547/547 543/543/543
f 547/547/547 553/553/553 550/550/550
f 553/553/553 547/547/547 552/552/552
f 553/553/553 554/554/554 550/550/550
f 555/555/555 554/554/554 553/553/553
f 556/556/556 551/551/551 545/545/545
f 557/557/557 556/556/556 545/545/545
f 556/556/556 557/557/557 558/558/558
f 559/559/559 556/556/556 558/558/558
f 560/560/560 546/546/546 551/551/551
f 546/546/546 560/560/560 552/552/552
f 560/560/560 551/551/551 556/556/556
f 561/561/561 556/556/556 559/559/559
f 561/561/561 560/560/560 556/556/556
f 562/562/562 561/561/561 559/559/559
f 563/563/563 561/561/561 562/562/562
f 561/561/561 563/563/563 560/560/560
f 564/564/564 563/563/563 562/562/562
f 560/560/560 565/565/565 552/552/552
f 563/563/563 565/565/565 560/560/560
f 565/565/565 553/553/553 552/552/552
f 566/566/566 555/555/555 553/553/553
f 566/566/566 553/553/553 565/565/565
f 563/563/563 566/566/566 565/565/565
f 566/566/566 563/563/563 564/564/564
f 567/567/567 555/555/555 566/566/566
f 568/568/568 566/566/566 564/564/564
f 568/568/568 567/567/567 566/566/566
f 571/571/571 570/570/570 569/569/569
f 572/572/572 569/569/569 570/570/570
f 572/572/572 573/573/573 569/569/569
f 574/574/574 569/569/569 573/573/573
f 569/569/569 574/574/574 575/575/575
f 571/571/571 569/569/569 576/576/576
f 576/576/576 569/569/569 575/575/575
f 575/575/575 577/577/577 576/576/576
f 577/577/577 578/578/578 576/576/576
f 579/579/579 578/578/578 577/577/577
f 580/580/580 579/579/579 577/577/577
f 579/579/579 580/580/580 581/581/581
f 580/580/580 582/582/582 581/581/581
f 581/581/581 582/582/582 583/583/583
f 582/582/582 584/584/584 583/583/583
f 584/584/584 585/585/585 583/583/583
f 585/585/585 586/586/586 583/583/583
f 585/585/585 587/587/587 586/586/586
f 586/586/586 587/587/587 588/588/588
f 589/589/589 587/587/587 585/585/585
f 588/588/588 587/587/587 590/590/590
f 589/589/589 591/591/591 587/587/587
f 592/592/592 590/590/590 587/587/587
f 592/592/592 587/587/587 591/591/591
f 595/595/595 594/594/594 593/593/593
f 593/593/593 596/596/596 595/595/595
f 597/597/597 596/596/596 593/593/593
f 593/593/593 598/598/598 597/597/597
f 598/598/598 593/593/593 599/599/599
f 593/593/593 594/594/594 600/600/600
f 593/593/593 600/600/600 599/599/599
f 601/601/601 599/599/599 600/600/600
f 602/602/602 601/601/601 600/600/600
f 602/602/602 603/603/603 601/601/601
f 603/603/603 604/604/604 601/601/601
f 604/604/604 603/603/603 605/605/605
f 606/606/606 604/604/604 605/605/605
f 606/606/606 605/605/605 607/607/607
f 608/608/608 606/606/606 607/607/607
f 609/609/609 608/608/608 607/607/607
f 610/610/610 609/609/609 607/607/607
f 611/611/611 609/609/609 610/610/610
f 611/611/611 610/610/610 612/612/612
f 611/611/611 613/613/613 609/609/609
f 611/611/611 612/612/612 614/614/614
f 615/615/615 613/613/613 611/611/611
f 614/614/614 616/616/616 611/611/611
f 611/611/611 616/616/616 615/615/615
