g Brow
v -0.067963019 1.39405823 0.0632191822
v -0.0678016841 1.39381731 0.0629785135
v -0.0723562017 1.39109695 0.0593019426
v -0.0639253482 1.39671862 0.0666507259
v -0.0635461137 1.39643919 0.0664742962
v -0.0591569878 1.39925563 0.0703468323
v -0.0587653592 1.39883208 0.0698575079
v -0.0542422719 1.40056717 0.0726438835
v -0.0547856465 1.4012022 0.0732259378
v -0.0495153144 1.40182281 0.075277701
v -0.0593445748 1.39974439 0.0697849244
v -0.0639253482 1.39671862 0.0666507259
v -0.0639787391 1.39703143 0.0660253391
v -0.067963019 1.39405823 0.0632191822
v -0.0679642409 1.39429033 0.0627809614
v -0.0723562017 1.39109695 0.0593019426
v -0.0548020266 1.40184021 0.0726230443
v -0.0500342213 1.40347803 0.0753548518
v -0.0500214659 1.40258646 0.075972721
v -0.045434501 1.40465379 0.0772594661
v -0.0454051532 1.40355492 0.0779951438
v -0.045030646 1.40262961 0.0771230385
v -0.0403534174 1.40304923 0.078682743
v -0.0404437929 1.40406668 0.0797244161
v -0.0404939055 1.40537608 0.0788704008
v -0.03543685 1.40570831 0.0803238451
v -0.0354478769 1.40435314 0.0811465234
v -0.035362266 1.4031508 0.080090113
v -0.030477142 1.40562868 0.0815561637
v -0.0305097271 1.40292466 0.0812964439
v -0.0305178687 1.40415108 0.0823390335
v -0.0260769576 1.40483749 0.0824924335
v -0.0261549056 1.40354896 0.0831999257
v -0.0261549056 1.40354896 0.0831999257
v -0.0263596717 1.40254569 0.0822155774
v -0.0225166921 1.40277982 0.0838012323
v -0.0224810746 1.40366173 0.0830630958
v -0.0226947572 1.4021244 0.0829248503
v -0.0225166921 1.40277982 0.0838012323
v -0.0199955199 1.40270901 0.0834314972
v -0.0199590195 1.40224361 0.084021315
v -0.0179378521 1.40160155 0.0842413977
v -0.0177321173 1.40168679 0.0839107186
v -0.016636312 1.40100646 0.0842372626
v -0.0199590195 1.40224361 0.084021315
v -0.0200885236 1.40175223 0.0833390579
v -0.0180697814 1.40135765 0.083753258
v -0.0179378521 1.40160155 0.0842413977
v -0.016636312 1.40100646 0.0842372626
v 0.016636312 1.40100646 0.0842372626
v 0.0177321173 1.40168679 0.0839107186
v 0.0179378521 1.40160155 0.0842413977
v 0.0199590195 1.40224361 0.084021315
v 0.0199955199 1.40270901 0.0834314972
v 0.0225166921 1.40277982 0.0838012323
v 0.0224810746 1.40366173 0.0830630958
v 0.0261549056 1.40354896 0.0831999257
v 0.0260769576 1.40483749 0.0824924335
v 0.0305178724 1.40415108 0.0823390335
v 0.030477142 1.40562868 0.0815561637
v 0.0354368538 1.40570831 0.0803238451
v 0.0354478806 1.40435314 0.0811465234
v 0.0404437929 1.40406668 0.0797244161
v 0.0404939055 1.40537608 0.0788704008
v 0.0454051532 1.40355492 0.0779951438
v 0.0454345085 1.40465379 0.0772594661
v 0.0500214659 1.40258646 0.075972721
v 0.050034225 1.40347803 0.0753548518
v 0.0548020266 1.40184021 0.0726230443
v 0.045030646 1.40262961 0.0771230385
v 0.0403534174 1.40304923 0.078682743
v 0.035362266 1.4031508 0.080090113
v 0.0305097271 1.40292466 0.0812964439
v 0.0263596717 1.40254569 0.0822155774
v 0.0261549056 1.40354896 0.0831999257
v 0.0225166921 1.40277982 0.0838012323
v 0.0226947572 1.4021244 0.0829248503
v 0.0199590195 1.40224361 0.084021315
v 0.0200885236 1.40175223 0.0833390579
v 0.0179378521 1.40160155 0.0842413977
v 0.0180697814 1.40135765 0.083753258
v 0.016636312 1.40100646 0.0842372626
v 0.0495153144 1.40182281 0.075277701
v 0.0547856465 1.4012022 0.0732259527
v 0.0542422719 1.40056717 0.0726438835
v 0.0587653592 1.39883208 0.0698575079
v 0.0591569878 1.39925563 0.0703468323
v 0.0593445748 1.39974439 0.0697849244
v 0.0635461137 1.39643919 0.0664742962
v 0.0639253482 1.39671862 0.0666507259
v 0.0639253482 1.39671862 0.0666507259
v 0.0639787391 1.39703143 0.0660253391
v 0.0678016841 1.39381731 0.0629785135
v 0.067963019 1.39405823 0.0632191822
v 0.0723562017 1.39109695 0.0593019426
v 0.067963019 1.39405823 0.0632191822
v 0.0679642409 1.39429033 0.0627809614
v 0.0723562017 1.39109695 0.0593019426
v -0.00817038212 1.39375937 0.0803789049
v -0.0114240609 1.39225662 0.0789767504
v -0.00840504374 1.39406884 0.0801383704
v -0.00598791474 1.39516902 0.0808090195
v -0.0062031406 1.39554942 0.0806597099
v -0.00418842677 1.39664805 0.081144616
v -0.0042736074 1.39700341 0.0809443817
v -0.00289820298 1.39822114 0.0809894353
v -0.00272742985 1.39794564 0.0812272504
v -0.00158743828 1.39946175 0.0810103044
v -0.0114240609 1.39225662 0.0789767504
v -0.00817038212 1.39375937 0.0803789049
v -0.00800972059 1.3934809 0.0796026662
v -0.00598791474 1.39516902 0.0808090195
v -0.00569445733 1.39492798 0.0802862346
v -0.00418842677 1.39664805 0.081144616
v -0.00398191111 1.39653063 0.0807424411
v -0.00259882677 1.39782941 0.0809159353
v -0.00272742985 1.39794564 0.0812272504
v -0.00158743828 1.39946175 0.0810103044
v 0.00817038212 1.39375937 0.0803789049
v 0.00840504374 1.39406884 0.0801383704
v 0.0114240609 1.39225662 0.0789767504
v 0.00598791474 1.39516902 0.0808090195
v 0.0062031406 1.39554942 0.0806597099
v 0.00418842677 1.39664805 0.081144616
v 0.0042736074 1.39700341 0.0809443817
v 0.00289820298 1.39822114 0.0809894353
v 0.00272742985 1.39794564 0.0812272504
v 0.00158743828 1.39946175 0.0810103044
v 0.0114240609 1.39225662 0.0789767504
v 0.00800972059 1.3934809 0.0796026662
v 0.00817038212 1.39375937 0.0803789049
v 0.00598791474 1.39516902 0.0808090195
v 0.00569445733 1.39492798 0.0802862346
v 0.00418842677 1.39664805 0.081144616
v 0.00398191111 1.39653063 0.0807424411
v 0.00259882677 1.39782941 0.0809159353
v 0.00272742985 1.39794564 0.0812272504
v 0.00158743828 1.39946175 0.0810103044
vt 0.927095056 0.961501241
vt 0.927095056 0.957806349
vt 0.944549382 0.957806349
vt 0.913043499 0.967205822
vt 0.913043499 0.957806349
vt 0.896588981 0.973947525
vt 0.896588981 0.957806349
vt 0.883142352 0.957806349
vt 0.883142352 0.973947525
vt 0.870797634 0.957806349
vt 0.896588981 0.991572857
vt 0.913043499 0.980689228
vt 0.913043499 0.991572857
vt 0.927095056 0.98613447
vt 0.927095056 0.991572857
vt 0.944549382 0.991572857
vt 0.883142292 0.991572857
vt 0.870797634 0.991572857
vt 0.870797634 0.973947525
vt 0.854643762 0.991572857
vt 0.854643762 0.973947525
vt 0.854471326 0.957806349
vt 0.84306401 0.957806349
vt 0.843926013 0.973947525
vt 0.843926013 0.991572857
vt 0.833505988 0.991572857
vt 0.833505988 0.973947525
vt 0.833122909 0.957806349
vt 0.821717024 0.991572857
vt 0.82173574 0.957806349
vt 0.821687222 0.973947525
vt 0.810482144 0.991572857
vt 0.81043011 0.97758621
vt 0.81043011 0.969351292
vt 0.810514987 0.957806349
vt 0.804689169 0.980841875
vt 0.804689169 0.991572857
vt 0.804689169 0.957806349
vt 0.804689169 0.966287136
vt 0.796947002 0.991572857
vt 0.796947002 0.98448056
vt 0.789204836 0.98467207
vt 0.789204836 0.991572857
vt 0.78246212 0.991572857
vt 0.796947002 0.962648451
vt 0.796947002 0.957806349
vt 0.789204836 0.957806349
vt 0.789204836 0.962839961
vt 0.782404363 0.957806349
vt 0.78246212 0.991572857
vt 0.789204836 0.991572857
vt 0.789204836 0.98467207
vt 0.796947002 0.98448056
vt 0.796947002 0.991572857
vt 0.804689169 0.980841875
vt 0.804689169 0.991572857
vt 0.81043011 0.97758621
vt 0.810482144 0.991572857
vt 0.821687222 0.973947525
vt 0.821717024 0.991572857
vt 0.833505988 0.991572857
vt 0.833505988 0.973947525
vt 0.843926013 0.973947525
vt 0.843926013 0.991572857
vt 0.854643762 0.973947525
vt 0.854643762 0.991572857
vt 0.870797634 0.973947525
vt 0.870797634 0.991572857
vt 0.883142292 0.991572857
vt 0.854471326 0.957806349
vt 0.84306401 0.957806349
vt 0.833122909 0.957806349
vt 0.82173574 0.957806349
vt 0.810514987 0.957806349
vt 0.81043011 0.969351292
vt 0.804689169 0.966287136
vt 0.804689169 0.957806349
vt 0.796947002 0.962648451
vt 0.796947002 0.957806349
vt 0.789204836 0.962839961
vt 0.789204836 0.957806349
vt 0.782404363 0.957806349
vt 0.870797634 0.957806349
vt 0.883142352 0.973947525
vt 0.883142352 0.957806349
vt 0.896588981 0.957806349
vt 0.896588981 0.973947525
vt 0.896588981 0.991572857
vt 0.913043499 0.957806349
vt 0.913043499 0.980689228
vt 0.913043499 0.967205822
vt 0.913043499 0.991572857
vt 0.927095056 0.957806349
vt 0.927095056 0.961501241
vt 0.944549382 0.957806349
vt 0.927095056 0.98613447
vt 0.927095056 0.991572857
vt 0.944549382 0.991572857
vt 0.637833714 0.986397564
vt 0.606868267 0.988806665
vt 0.637793899 0.987752616
vt 0.658385456 0.986335635
vt 0.658647299 0.987814546
vt 0.677551687 0.986244321
vt 0.677850902 0.98790586
vt 0.694399536 0.98736912
vt 0.694376171 0.986781001
vt 0.700093985 0.988051653
vt 0.608417511 0.989096761
vt 0.637946069 0.992326379
vt 0.637813807 0.98707509
vt 0.659133613 0.992326379
vt 0.658516347 0.98707509
vt 0.67863071 0.992326379
vt 0.677701354 0.98707509
vt 0.694387853 0.98707509
vt 0.694812357 0.992326379
vt 0.700093925 0.988051653
vt 0.637833714 0.986397564
vt 0.637793899 0.987752616
vt 0.606260359 0.98857826
vt 0.658385456 0.986335635
vt 0.658647299 0.987814546
vt 0.677551687 0.986244321
vt 0.677850902 0.98790586
vt 0.694399536 0.98736912
vt 0.694376171 0.986781001
vt 0.700093985 0.988051653
vt 0.606564343 0.988692462
vt 0.637813807 0.98707509
vt 0.637946069 0.992326379
vt 0.659133613 0.992326379
vt 0.658516347 0.98707509
vt 0.67863071 0.992326379
vt 0.677701354 0.98707509
vt 0.694387853 0.98707509
vt 0.694812357 0.992326379
vt 0.700093925 0.988051653
vn -0.673673928 0.054922998 0.736984968
vn -0.121873796 -0.716354668 0.687009931
vn -0.724692822 0.204524934 0.658019602
vn -0.626620948 -0.00817350391 0.779281318
vn -0.117230505 -0.728677571 0.674748957
vn -0.522046685 -0.149662599 0.839683533
vn -0.105261892 -0.747276843 0.656122863
vn -0.141043618 -0.740766287 0.656789124
vn -0.474310517 -0.162844777 0.865165353
vn -0.161163971 -0.722472668 0.672353625
vn -0.661056101 0.521809042 0.539184749
vn -0.626620948 -0.00817350391 0.779281318
vn -0.700816691 0.57789731 0.41819948
vn -0.673673928 0.054922998 0.736984968
vn -0.708542407 0.616753221 0.342903972
vn -0.724692822 0.204524934 0.658019602
vn -0.579617321 0.513950467 0.632375538
vn -0.489371479 0.50958252 0.707701325
vn -0.417982399 -0.142431542 0.897220135
vn -0.380441755 0.50728929 0.773253977
vn -0.346738935 -0.0952871591 0.933108985
vn -0.158035919 -0.712751031 0.683381736
vn -0.168937728 -0.698758006 0.695123971
vn -0.295776486 -0.0859002247 0.951387048
vn -0.299328625 0.511768758 0.805291891
vn -0.232716277 0.499723941 0.834337533
vn -0.259748101 -0.071862556 0.962998867
vn -0.190602779 -0.665207386 0.721920907
vn -0.158130497 0.482326418 0.861600876
vn -0.216378674 -0.644125998 0.73367697
vn -0.220395729 -0.0689317435 0.972971857
vn -0.0649303049 0.502372205 0.862210035
vn -0.17128484 -0.070336923 0.98270756
vn -0.17128484 -0.070336923 0.98270756
vn -0.230019376 -0.664682806 0.710836112
vn -0.118321069 -0.0913283303 0.988766491
vn 0.041300565 0.591917157 0.804939985
vn -0.22781758 -0.72129339 0.654091001
vn -0.118321069 -0.0913283303 0.988766491
vn 0.148371533 0.727449834 0.669927299
vn -0.0749670491 -0.084032625 0.993638933
vn -0.0522351824 0.037667539 0.997924209
vn 0.260913491 0.817525506 0.5133968
vn -0.209888741 -0.465032071 0.86005348
vn -0.0749670491 -0.084032625 0.993638933
vn -0.233670026 -0.772357941 0.590645015
vn -0.298226804 -0.782858551 0.546070695
vn -0.0522351824 0.037667539 0.997924209
vn -0.209888741 -0.465032071 0.86005348
vn 0.209913701 -0.465096563 0.860012472
vn -0.260913402 0.817525566 0.513396621
vn 0.0522374734 0.0376595333 0.997924328
vn 0.074972488 -0.0840576068 0.993636489
vn -0.148371965 0.727449358 0.669927716
vn 0.118324392 -0.0913424119 0.988764882
vn -0.0412997566 0.591915488 0.804941237
vn 0.171282858 -0.0703418776 0.98270756
vn 0.0649289265 0.502366006 0.86221379
vn 0.22039707 -0.0689343214 0.972971261
vn 0.15813902 0.482348561 0.861586869
vn 0.232729867 0.499752313 0.83431679
vn 0.259758264 -0.0718523934 0.962996781
vn 0.295785934 -0.0858903229 0.951385021
vn 0.299332589 0.511775553 0.805286169
vn 0.346739352 -0.0952878445 0.933108807
vn 0.380442739 0.507290423 0.773252726
vn 0.417960763 -0.142418981 0.897232234
vn 0.489344954 0.509559512 0.707736313
vn 0.579588175 0.513929069 0.632419527
vn 0.158035889 -0.712751031 0.683381677
vn 0.168940127 -0.698769391 0.695111871
vn 0.190602288 -0.665203989 0.721924186
vn 0.216371551 -0.644105971 0.733696699
vn 0.230017185 -0.664680183 0.710839212
vn 0.171282858 -0.0703418776 0.98270756
vn 0.118324392 -0.0913424119 0.988764882
vn 0.227817819 -0.72129631 0.654087663
vn 0.074972488 -0.0840576068 0.993636489
vn 0.233670712 -0.772363842 0.590637028
vn 0.0522374734 0.0376595333 0.997924328
vn 0.298227191 -0.782864749 0.546061575
vn 0.209913701 -0.465096563 0.860012472
vn 0.161159813 -0.722462475 0.672365606
vn 0.47428152 -0.162850082 0.865180254
vn 0.141037717 -0.740775049 0.656780541
vn 0.105257317 -0.747273862 0.656126976
vn 0.522044718 -0.149680495 0.839681506
vn 0.661061347 0.521811724 0.539175689
vn 0.117219798 -0.728630781 0.67480129
vn 0.626600146 -0.00814567599 0.779298306
vn 0.626600146 -0.00814567599 0.779298306
vn 0.700811803 0.577890217 0.418217272
vn 0.121865422 -0.716342211 0.687024534
vn 0.673641026 0.0549365431 0.737013996
vn 0.724674582 0.204502389 0.658046722
vn 0.673641026 0.0549365431 0.737013996
vn 0.708530664 0.616742015 0.342948228
vn 0.724674582 0.204502389 0.658046722
vn 0.0978226364 -0.590741932 0.800908685
vn 0.113836475 -0.798227251 0.591501892
vn -0.423299879 0.27063629 0.864623189
vn 0.159892648 -0.477257907 0.864094496
vn -0.36581558 0.26891914 0.890989006
vn 0.147684842 -0.311719626 0.938626707
vn -0.383645207 0.346467376 0.856023848
vn -0.406647056 0.416282088 0.81323266
vn 0.178035334 -0.170620933 0.969119132
vn 0.160987139 0.0201178025 0.986751437
vn 0.113836475 -0.798227251 0.591501892
vn 0.0978226364 -0.590741932 0.800908685
vn 0.32547617 -0.848421514 0.417428136
vn 0.159892648 -0.477257907 0.864094496
vn 0.43094632 -0.759619474 0.487096995
vn 0.147684842 -0.311719626 0.938626707
vn 0.518077254 -0.683474064 0.514256001
vn 0.615534067 -0.619662583 0.486966074
vn 0.178035334 -0.170620933 0.969119132
vn 0.160987139 0.0201178025 0.986751437
vn -0.0978519171 -0.590761602 0.800890565
vn 0.423254967 0.270608604 0.864653885
vn -0.113847777 -0.798223376 0.591504872
vn -0.1599105 -0.477255493 0.864092469
vn 0.365759104 0.268877745 0.891024709
vn -0.147705495 -0.311718434 0.938623846
vn 0.383622408 0.346450895 0.856040657
vn 0.406675905 0.416311443 0.813203275
vn -0.178070322 -0.170657873 0.969106138
vn -0.160936758 0.0201526936 0.986759007
vn -0.113847777 -0.798223376 0.591504872
vn -0.325477242 -0.848425865 0.417418391
vn -0.0978519171 -0.590761602 0.800890565
vn -0.1599105 -0.477255493 0.864092469
vn -0.430943727 -0.759615779 0.487105161
vn -0.147705495 -0.311718434 0.938623846
vn -0.518079638 -0.683465838 0.514264524
vn -0.615541041 -0.619672716 0.486944616
vn -0.178070322 -0.170657873 0.969106138
vn -0.160936758 0.0201526936 0.986759007
g Brow_0
f 3/3/3 2/2/2 1/1/1
f 1/1/1 2/2/2 4/4/4
f 2/2/2 5/5/5 4/4/4
f 4/4/4 5/5/5 6/6/6
f 5/5/5 7/7/7 6/6/6
f 6/6/6 7/7/7 8/8/8
f 9/9/9 6/6/6 8/8/8
f 8/8/8 10/10/10 9/9/9
f 11/11/11 6/6/6 9/9/9
f 12/12/12 6/6/6 11/11/11
f 13/13/13 12/12/12 11/11/11
f 14/14/14 12/12/12 13/13/13
f 15/15/15 14/14/14 13/13/13
f 16/16/16 14/14/14 15/15/15
f 17/17/17 11/11/11 9/9/9
f 17/17/17 9/9/9 18/18/18
f 9/9/9 19/19/19 18/18/18
f 10/10/10 19/19/19 9/9/9
f 20/20/20 18/18/18 19/19/19
f 21/21/21 19/19/19 10/10/10
f 21/21/21 20/20/20 19/19/19
f 22/22/22 21/21/21 10/10/10
f 22/22/22 23/23/23 21/21/21
f 21/21/21 24/24/24 20/20/20
f 23/23/23 24/24/24 21/21/21
f 24/24/24 25/25/25 20/20/20
f 26/26/26 25/25/25 24/24/24
f 27/27/27 24/24/24 23/23/23
f 27/27/27 26/26/26 24/24/24
f 28/28/28 27/27/27 23/23/23
f 26/26/26 27/27/27 29/29/29
f 28/28/28 30/30/30 27/27/27
f 27/27/27 31/31/31 29/29/29
f 30/30/30 31/31/31 27/27/27
f 32/32/32 29/29/29 31/31/31
f 33/33/33 32/32/32 31/31/31
f 34/34/34 31/31/31 30/30/30
f 35/35/35 34/34/34 30/30/30
f 33/33/33 36/36/36 32/32/32
f 36/36/36 37/37/37 32/32/32
f 35/35/35 38/38/38 34/34/34
f 38/38/38 39/39/39 34/34/34
f 40/40/40 37/37/37 36/36/36
f 41/41/41 40/40/40 36/36/36
f 41/41/41 42/42/42 40/40/40
f 42/42/42 43/43/43 40/40/40
f 43/43/43 42/42/42 44/44/44
f 45/45/45 39/39/39 38/38/38
f 46/46/46 45/45/45 38/38/38
f 46/46/46 47/47/47 45/45/45
f 47/47/47 48/48/48 45/45/45
f 49/49/49 48/48/48 47/47/47
f 52/52/52 51/51/51 50/50/50
f 51/51/51 52/52/52 53/53/53
f 54/54/54 51/51/51 53/53/53
f 54/54/54 53/53/53 55/55/55
f 56/56/56 54/54/54 55/55/55
f 56/56/56 55/55/55 57/57/57
f 58/58/58 56/56/56 57/57/57
f 58/58/58 57/57/57 59/59/59
f 60/60/60 58/58/58 59/59/59
f 60/60/60 59/59/59 61/61/61
f 59/59/59 62/62/62 61/61/61
f 61/61/61 62/62/62 63/63/63
f 64/64/64 61/61/61 63/63/63
f 64/64/64 63/63/63 65/65/65
f 66/66/66 64/64/64 65/65/65
f 66/66/66 65/65/65 67/67/67
f 68/68/68 66/66/66 67/67/67
f 68/68/68 67/67/67 69/69/69
f 65/65/65 63/63/63 70/70/70
f 67/67/67 65/65/65 70/70/70
f 63/63/63 71/71/71 70/70/70
f 71/71/71 63/63/63 72/72/72
f 63/63/63 62/62/62 72/72/72
f 73/73/73 72/72/72 62/62/62
f 59/59/59 73/73/73 62/62/62
f 73/73/73 59/59/59 74/74/74
f 59/59/59 75/75/75 74/74/74
f 75/75/75 76/76/76 74/74/74
f 76/76/76 77/77/77 74/74/74
f 76/76/76 78/78/78 77/77/77
f 78/78/78 79/79/79 77/77/77
f 78/78/78 80/80/80 79/79/79
f 80/80/80 81/81/81 79/79/79
f 80/80/80 82/82/82 81/81/81
f 83/83/83 67/67/67 70/70/70
f 67/67/67 83/83/83 84/84/84
f 83/83/83 85/85/85 84/84/84
f 67/67/67 84/84/84 69/69/69
f 85/85/85 86/86/86 84/84/84
f 84/84/84 87/87/87 69/69/69
f 86/86/86 87/87/87 84/84/84
f 87/87/87 88/88/88 69/69/69
f 86/86/86 89/89/89 87/87/87
f 87/87/87 90/90/90 88/88/88
f 89/89/89 91/91/91 87/87/87
f 90/90/90 92/92/92 88/88/88
f 89/89/89 93/93/93 91/91/91
f 93/93/93 94/94/94 91/91/91
f 93/93/93 95/95/95 94/94/94
f 90/90/90 96/96/96 92/92/92
f 96/96/96 97/97/97 92/92/92
f 96/96/96 98/98/98 97/97/97
f 101/101/101 100/100/100 99/99/99
f 101/101/101 99/99/99 102/102/102
f 103/103/103 101/101/101 102/102/102
f 102/102/102 104/104/104 103/103/103
f 104/104/104 105/105/105 103/103/103
f 105/105/105 104/104/104 106/106/106
f 104/104/104 107/107/107 106/106/106
f 108/108/108 106/106/106 107/107/107
f 111/111/111 110/110/110 109/109/109
f 110/110/110 111/111/111 112/112/112
f 111/111/111 113/113/113 112/112/112
f 112/112/112 113/113/113 114/114/114
f 113/113/113 115/115/115 114/114/114
f 114/114/114 115/115/115 116/116/116
f 117/117/117 114/114/114 116/116/116
f 118/118/118 117/117/117 116/116/116
f 121/121/121 120/120/120 119/119/119
f 119/119/119 120/120/120 122/122/122
f 120/120/120 123/123/123 122/122/122
f 124/124/124 122/122/122 123/123/123
f 125/125/125 124/124/124 123/123/123
f 124/124/124 125/125/125 126/126/126
f 127/127/127 124/124/124 126/126/126
f 126/126/126 128/128/128 127/127/127
f 131/131/131 130/130/130 129/129/129
f 130/130/130 131/131/131 132/132/132
f 133/133/133 130/130/130 132/132/132
f 133/133/133 132/132/132 134/134/134
f 135/135/135 133/133/133 134/134/134
f 135/135/135 134/134/134 136/136/136
f 134/134/134 137/137/137 136/136/136
f 137/137/137 138/138/138 136/136/136
