g Eye
v 0.0351038203 1.37111616 0.0625401586
v 0.0348403007 1.37248623 0.0620951243
v 0.0382588394 1.37379122 0.0616038777
v 0.0415849052 1.37419021 0.0612133108
v 0.0446600318 1.3721447 0.061365366
v 0.045101244 1.37364316 0.0607911907
v 0.0486419871 1.37290704 0.060346473
v 0.0315022469 1.37004876 0.0627363846
v 0.0514639542 1.37192893 0.0597492456
v 0.0291997101 1.36448753 0.0636221468
v 0.0296442565 1.36221004 0.064247109
v 0.0287551619 1.36676514 0.0629971847
v 0.0262889639 1.36216021 0.0630440414
v 0.0253056455 1.35841858 0.0630539432
v 0.0250507537 1.35519528 0.0627608001
v 0.0533842891 1.36783862 0.0596522987
v 0.0548404679 1.36891019 0.0589178838
v 0.0568012409 1.36570621 0.0581124388
v 0.0353673436 1.36974609 0.0629851967
v 0.0419059694 1.35520065 0.0633499548
v 0.0281642098 1.35263515 0.0637085512
v 0.044218827 1.37064624 0.061939545
v 0.025780499 1.35060728 0.0624951348
v 0.0271390211 1.34728861 0.0620798282
v 0.0290796962 1.34444094 0.0615965649
v 0.0331796668 1.3424952 0.0615779869
v 0.0314517505 1.34233916 0.0612763688
v 0.0344419964 1.34027719 0.0607957654
v 0.0380054861 1.33914733 0.0604993328
v 0.041533649 1.3393997 0.0604373142
v 0.04134918 1.33880174 0.0600964502
v 0.0444226861 1.33917952 0.0596055016
v 0.0480822064 1.3400296 0.0588773713
v 0.0499170534 1.34243882 0.0599599108
v 0.0512509532 1.34230483 0.0580920577
v 0.0535917319 1.34424233 0.0573356003
v 0.0562341884 1.34738076 0.0567998104
v 0.0547376722 1.35138547 0.059476383
v 0.0576947927 1.35017145 0.0566375628
v 0.0586094856 1.35281098 0.0564859472
v 0.059153609 1.35596299 0.0566923656
v 0.0554364473 1.35899639 0.0596375689
v 0.0588589311 1.35893703 0.0571198985
v 0.0519281104 1.36676693 0.0603867099
v 0.0569405295 1.36023831 0.0585939288
v 0.0584446117 1.36148036 0.0575502962
v -0.0548404679 1.36891019 0.0589178838
v -0.0514639542 1.37192893 0.0597492456
v -0.0533842891 1.36783862 0.0596522987
v -0.0446600318 1.3721447 0.061365366
v -0.0486419871 1.37290704 0.060346473
v -0.045101244 1.37364316 0.0607911907
v -0.0568012409 1.36570621 0.0581124388
v -0.0415849052 1.37419021 0.0612133108
v -0.0351038203 1.37111616 0.0625401586
v -0.0382588394 1.37379122 0.0616038777
v -0.0348403007 1.37248623 0.0620951243
v -0.0315022469 1.37004876 0.0627363846
v -0.0569405295 1.36023831 0.0585939288
v -0.0554364473 1.35899639 0.0596375689
v -0.0584446117 1.36148036 0.0575502962
v -0.0588589311 1.35893703 0.0571198985
v -0.059153609 1.35596299 0.0566923656
v -0.0586094856 1.35281098 0.0564859472
v -0.0519281104 1.36676693 0.0603867099
v -0.0419059694 1.35520065 0.0633499548
v -0.0547376722 1.35138547 0.059476383
v -0.044218827 1.37064624 0.061939545
v -0.0576947927 1.35017145 0.0566375628
v -0.0562341884 1.34738076 0.0567998104
v -0.0535917282 1.34424233 0.0573356003
v -0.0499170534 1.34243882 0.0599599108
v -0.0512509532 1.34230483 0.0580920577
v -0.0480822064 1.3400296 0.0588773713
v -0.0444226861 1.33917952 0.0596055016
v -0.041533649 1.3393997 0.0604373142
v -0.04134918 1.33880174 0.0600964502
v -0.0380054861 1.33914733 0.0604993328
v -0.0344419964 1.34027719 0.0607957654
v -0.0331796668 1.3424952 0.0615779869
v -0.0314517505 1.34233916 0.0612763688
v -0.0290796962 1.34444094 0.0615965649
v -0.0271390211 1.34728861 0.0620798282
v -0.0281642098 1.35263515 0.0637085512
v -0.025780499 1.35060728 0.0624951348
v -0.0250507537 1.35519528 0.0627608001
v -0.0253056455 1.35841858 0.0630539432
v -0.0296442565 1.36221004 0.064247109
v -0.0262889639 1.36216021 0.0630440414
v -0.0353673436 1.36974609 0.0629851967
v -0.0291997101 1.36448753 0.0636221468
v -0.0287551619 1.36676514 0.0629971847
v 0.033462394 1.36745286 0.0621234402
v 0.0306248162 1.36503243 0.0623522922
v 0.0306248162 1.36503243 0.0623522922
v 0.0334623903 1.36745286 0.0621234402
v 0.036331933 1.36915267 0.0618653819
v 0.036331933 1.36915267 0.0618653819
v 0.0279105268 1.36185026 0.0627543852
v 0.0306248162 1.36503243 0.0623522922
v 0.0306248162 1.36503243 0.0623522922
v 0.0291099213 1.36119759 0.0617927536
v 0.0260116812 1.35825145 0.06294889
v 0.0281056445 1.35802591 0.0614910237
v 0.0255820081 1.35518217 0.0627727658
v 0.0278495401 1.3554399 0.0611428395
v 0.0260756556 1.35091245 0.0624975413
v 0.0282530859 1.35212934 0.060748443
v 0.0295443442 1.34947038 0.0602155291
v 0.0273448825 1.34753263 0.0620687939
v 0.0314326882 1.34726357 0.0599000864
v 0.0291289017 1.34444106 0.0615965649
v 0.031440299 1.3423388 0.0612763688
v 0.0332425907 1.3455075 0.0596359186
v 0.0344386995 1.34037101 0.0609259605
v 0.0356844291 1.34366739 0.0593298413
v 0.0380054787 1.33914721 0.0604993328
v 0.038588766 1.34253144 0.0591139495
v 0.0413491763 1.3388015 0.0600964502
v 0.0380519442 1.34871864 0.0571744703
v 0.0396810994 1.34803498 0.0570160598
v 0.0367734693 1.34977794 0.0573066175
v 0.0314326882 1.34726357 0.0599000864
v 0.041209612 1.35474777 0.0555085205
v 0.0358605534 1.35075867 0.0573900603
v 0.0295443442 1.34947038 0.0602155291
v 0.0412672982 1.34781802 0.0568706244
v 0.0349401385 1.35199475 0.0574946851
v 0.0429313779 1.34784293 0.0566822328
v 0.0282530859 1.35212934 0.060748443
v 0.0413065664 1.34222984 0.0588231161
v 0.0342764445 1.35345888 0.0575779937
v 0.0278495401 1.3554399 0.0611428395
v 0.0441098101 1.34247494 0.0585768223
v 0.0444226824 1.3391794 0.0596055016
v 0.0340640768 1.35526049 0.0576665513
v 0.0281056445 1.35802591 0.0614910237
v 0.0342491008 1.35663962 0.0577210262
v 0.0291099213 1.36119759 0.0617927536
v 0.0348389149 1.35830915 0.057746686
v 0.0306248162 1.36503243 0.0623522922
v 0.0358862691 1.36006236 0.0577288754
v 0.0334623903 1.36745286 0.0621234402
v 0.0447455794 1.34814072 0.0564357899
v 0.0371798873 1.36157906 0.0576796643
v 0.0461732745 1.34887779 0.0562572069
v 0.036331933 1.36915267 0.0618653819
v 0.0470174775 1.3433305 0.0579193532
v 0.0480822064 1.3400296 0.0588773713
v 0.0386659205 1.36253512 0.0575542636
v 0.0388719328 1.3700676 0.0617041178
v 0.0492540635 1.34480631 0.0573500134
v 0.0512509532 1.34230483 0.0580920577
v 0.0400050394 1.36306083 0.0574480854
v 0.0419064164 1.37032712 0.0613933019
v 0.0416223854 1.36327493 0.0572976805
v 0.0450467132 1.36965835 0.0608969331
v 0.0433365144 1.36303067 0.0571078956
v 0.0484023318 1.36850297 0.0603844263
v 0.0452233367 1.36251152 0.0569010712
v 0.0517225415 1.36646807 0.0594203509
v 0.0475146621 1.3498764 0.0560736172
v 0.0472328179 1.36157525 0.056613721
v 0.049112346 1.35136378 0.0558823496
v 0.0544124693 1.36407912 0.0586000793
v 0.0513210297 1.34669626 0.05680044
v 0.0537654944 1.34927797 0.0563150384
v 0.0488145724 1.36030042 0.0563596413
v 0.0552719682 1.3606137 0.0574048571
v 0.0501994975 1.35287535 0.0558060296
v 0.055119779 1.35168993 0.0561206006
v 0.0500764921 1.35845339 0.0560768843
v 0.0558854491 1.35840738 0.0568725578
v 0.0507135727 1.35427868 0.0558152199
v 0.0557967983 1.35370088 0.0562535413
v 0.0506199189 1.35713553 0.0559450239
v 0.0560544729 1.3558681 0.0564633459
v 0.0508729368 1.35554934 0.0558557324
v 0.0544124693 1.36407912 0.0586000793
v 0.0544124693 1.36407912 0.0586000793
v 0.0517225415 1.36646807 0.0594203509
v 0.0517225452 1.36646807 0.0594203509
v 0.0484023318 1.36850297 0.0603844263
v 0.0484023318 1.36850297 0.0603844263
v 0.0567591973 1.36092532 0.0577791855
v 0.0544124693 1.36407912 0.0586000793
v 0.0544124693 1.36407912 0.0586000793
v 0.0552719682 1.3606137 0.0574048571
v 0.0578981526 1.35862756 0.0572178625
v 0.0558854491 1.35840738 0.0568725578
v 0.0584423468 1.35596001 0.0567147732
v 0.0560544729 1.3558681 0.0564633459
v 0.058179915 1.35281074 0.0564765781
v 0.0557967983 1.35370088 0.0562535413
v 0.0573214889 1.35017133 0.056528084
v 0.055119779 1.35168993 0.0561206006
v 0.055922363 1.34738123 0.0567611493
v 0.0537654944 1.34927797 0.0563150384
v 0.0513210297 1.34669626 0.05680044
v 0.0535917282 1.34424233 0.0573356003
v 0.0450467132 1.36965835 0.0608969331
v 0.0484023318 1.36850297 0.0603844263
v 0.0484023318 1.36850297 0.0603844263
v 0.0450467207 1.36965835 0.0608969405
v 0.0419064164 1.37032712 0.0613933019
v 0.0419064239 1.37032712 0.0613933019
v 0.0388719328 1.3700676 0.0617041178
v 0.0388719328 1.37006772 0.0617041178
v 0.036331933 1.36915267 0.0618653819
v 0.036331933 1.36915267 0.0618653819
v 0.0415294021 1.34854424 0.0586525574
v 0.0407492965 1.3481065 0.058671888
v 0.0407699905 1.34835005 0.0581691787
v 0.0411834009 1.3486253 0.0580998361
v 0.042176798 1.34998882 0.0586557798
v 0.04175869 1.34994793 0.0581691824
v 0.0421582647 1.35256934 0.0582436137
v 0.0426851213 1.35256934 0.0586938746
v 0.0422267653 1.35519254 0.0581691824
v 0.0428563282 1.35519254 0.0587487444
v 0.0427060872 1.35851181 0.0588310845
v 0.0420532227 1.35803032 0.0581691824
v 0.0422945358 1.36044693 0.0588975959
v 0.0419046767 1.35904086 0.0581691824
v 0.041713763 1.36161327 0.0589531995
v 0.0414726548 1.35988593 0.0581691824
v 0.0409397632 1.3602345 0.0581691824
v 0.0409692712 1.36209261 0.0589965172
v 0.040284507 1.35985482 0.0581691824
v 0.0409692712 1.36209261 0.0589965172
v 0.0409397632 1.3602345 0.0581691824
v 0.0401669741 1.36157501 0.0590209477
v 0.0399694443 1.35890043 0.0581691824
v 0.039506942 1.36027265 0.0590278618
v 0.0390999727 1.35822427 0.059015315
v 0.0396897271 1.35790229 0.0581691824
v 0.0395186916 1.35519254 0.0581691824
v 0.0389100499 1.35519254 0.0589540526
v 0.0396226272 1.35256934 0.0582436137
v 0.0390511639 1.35256934 0.0588800423
v 0.0394614935 1.349931 0.0587847047
v 0.0399117805 1.34999812 0.0581529252
v 0.0402793176 1.34862542 0.0581091903
v 0.0399873741 1.34855485 0.0587213263
v 0.0407699905 1.34835005 0.0581691787
v 0.0407492965 1.3481065 0.058671888
v 0.0440658554 1.34112704 0.0576288402
v 0.0413491763 1.3388015 0.0600964502
v 0.0380054787 1.33914721 0.0604993328
v 0.0358535089 1.34263718 0.0586549379
v 0.0344419889 1.34027719 0.0607957654
v 0.0427058563 1.3469131 0.0550846569
v 0.0314435363 1.34233904 0.0612763688
v 0.0294904131 1.34891617 0.0589202195
v 0.0290796962 1.34444094 0.0615965649
v 0.0271274224 1.34728849 0.0620798282
v 0.025780499 1.35060728 0.0624951348
v 0.0250507183 1.35519516 0.0627608001
v 0.028560834 1.35728943 0.0596544333
v 0.0253056455 1.35841858 0.0630539432
v 0.026288962 1.36216021 0.0630440414
v 0.0287551619 1.36676514 0.0629971847
v 0.0336366184 1.36614907 0.0589948893
v 0.0315022469 1.37004876 0.0627363846
v 0.0348403007 1.37248623 0.0620951243
v 0.0382588394 1.37379122 0.0616038777
v 0.037887305 1.34753215 0.055799339
v 0.0411688574 1.35387218 0.0537925437
v 0.0342286415 1.35067153 0.0566138439
v 0.0340217501 1.35587382 0.0564312786
v 0.0373360999 1.36094236 0.055827979
v 0.0412652753 1.36148095 0.0550091676
v 0.0415547267 1.36815906 0.0580298081
v 0.0415849052 1.37419009 0.0612133108
v 0.0440658554 1.34112704 0.0576288402
v 0.0444226824 1.3391794 0.0596055016
v 0.0413491763 1.3388015 0.0600964502
v 0.0480822064 1.3400296 0.0588773713
v 0.0520886071 1.34623563 0.0557459965
v 0.0512509532 1.34230483 0.0580920577
v 0.0535917282 1.34424233 0.0573356003
v 0.0562427454 1.34738076 0.0567998104
v 0.0577115081 1.35017133 0.0566375591
v 0.046890948 1.34983993 0.0540538691
v 0.0427058563 1.3469131 0.0550846569
v 0.0411688574 1.35387218 0.0537925437
v 0.0544752777 1.35293221 0.0548130982
v 0.0586094745 1.35281074 0.0564859472
v 0.0591536127 1.35596299 0.0566923656
v 0.0532395765 1.35967362 0.0554122776
v 0.0588589311 1.35893703 0.0571198985
v 0.0584446117 1.36148036 0.0575502962
v 0.0568012409 1.36570621 0.0581124388
v 0.0485818945 1.36627698 0.0565867238
v 0.0548404679 1.36891019 0.0589178838
v 0.0514639542 1.37192893 0.0597492456
v 0.0486443266 1.37290514 0.0603465587
v 0.0478695892 1.35329461 0.0538139157
v 0.0474556498 1.35701859 0.0537882559
v 0.045151528 1.36060715 0.0543137863
v 0.0412652753 1.36148095 0.0550091676
v 0.0415547267 1.36815906 0.0580298081
v 0.045101244 1.37364316 0.0607911907
v 0.0415849052 1.37419009 0.0612133108
v -0.033462394 1.36745286 0.0621234402
v -0.0306248162 1.36503243 0.0623522922
v -0.0306248162 1.36503243 0.0623522922
v -0.0334623903 1.36745286 0.0621234402
v -0.036331933 1.36915267 0.0618653819
v -0.036331933 1.36915267 0.0618653819
v -0.0279105268 1.36185026 0.0627543852
v -0.0306248162 1.36503243 0.0623522922
v -0.0306248162 1.36503243 0.0623522922
v -0.0291099213 1.36119759 0.0617927536
v -0.0260116812 1.35825145 0.06294889
v -0.0281056445 1.35802591 0.0614910237
v -0.0255820081 1.35518217 0.0627727658
v -0.0278495401 1.3554399 0.0611428395
v -0.0260756556 1.35091245 0.0624975413
v -0.0282530859 1.35212934 0.060748443
v -0.0295443442 1.34947038 0.0602155291
v -0.0273730885 1.34753263 0.0620687939
v -0.0314326882 1.34726357 0.0599000864
v -0.0292111896 1.34444106 0.0615965649
v -0.0315370038 1.3423388 0.0612763688
v -0.0332425907 1.3455075 0.0596359186
v -0.0344386995 1.34037101 0.0609259605
v -0.0356844291 1.34366739 0.0593298413
v -0.0380054787 1.33914721 0.0604993328
v -0.038588766 1.34253144 0.0591139495
v -0.0413491763 1.3388015 0.0600964502
v -0.0367734693 1.34977794 0.0573066175
v -0.0380519442 1.34871864 0.0571744703
v -0.0358605534 1.35075867 0.0573900603
v -0.0314326882 1.34726357 0.0599000864
v -0.041209612 1.35474777 0.0555085205
v -0.0349401385 1.35199475 0.0574946851
v -0.0295443442 1.34947038 0.0602155291
v -0.0396810994 1.34803498 0.0570160598
v -0.0342764445 1.35345888 0.0575779937
v -0.0412672982 1.34781802 0.0568706244
v -0.0282530859 1.35212934 0.060748443
v -0.0413065664 1.34222984 0.0588231161
v -0.0340640768 1.35526049 0.0576665513
v -0.0278495401 1.3554399 0.0611428395
v -0.0441098101 1.34247494 0.0585768223
v -0.0444226824 1.3391794 0.0596055016
v -0.0342491008 1.35663962 0.0577210262
v -0.0281056445 1.35802591 0.0614910237
v -0.0348389149 1.35830915 0.057746686
v -0.0291099213 1.36119759 0.0617927536
v -0.0358862691 1.36006236 0.0577288754
v -0.0306248162 1.36503243 0.0623522922
v -0.0371798873 1.36157906 0.0576796643
v -0.0334623903 1.36745286 0.0621234402
v -0.0429313779 1.34784293 0.0566822328
v -0.0386659205 1.36253512 0.0575542636
v -0.0447455794 1.34814072 0.0564357899
v -0.036331933 1.36915267 0.0618653819
v -0.0470174775 1.3433305 0.0579193532
v -0.0480822064 1.3400296 0.0588773713
v -0.0400050394 1.36306083 0.0574480854
v -0.0388719328 1.3700676 0.0617041178
v -0.0492540635 1.34480631 0.0573500134
v -0.0512509532 1.34230483 0.0580920577
v -0.0416223854 1.36327493 0.0572976805
v -0.0419064164 1.37032712 0.0613933019
v -0.0433365144 1.36303067 0.0571078956
v -0.0450467132 1.36965835 0.0608969331
v -0.0452233367 1.36251152 0.0569010712
v -0.0484023318 1.36850297 0.0603844263
v -0.0472328179 1.36157525 0.056613721
v -0.0517225415 1.36646807 0.0594203509
v -0.0461732745 1.34887779 0.0562572069
v -0.0488145724 1.36030042 0.0563596413
v -0.0475146621 1.3498764 0.0560736172
v -0.0544124693 1.36407912 0.0586000793
v -0.0513210297 1.34669626 0.05680044
v -0.0537654944 1.34927797 0.0563150384
v -0.0500764921 1.35845339 0.0560768843
v -0.0552719682 1.3606137 0.0574048571
v -0.049112346 1.35136378 0.0558823496
v -0.055119779 1.35168993 0.0561206006
v -0.0506199189 1.35713553 0.0559450239
v -0.0558854491 1.35840738 0.0568725578
v -0.0501994975 1.35287535 0.0558060296
v -0.0557967983 1.35370088 0.0562535413
v -0.0508729368 1.35554934 0.0558557324
v -0.0560544729 1.3558681 0.0564633459
v -0.0507135727 1.35427868 0.0558152199
v -0.0544124693 1.36407912 0.0586000793
v -0.0517225415 1.36646807 0.0594203509
v -0.0544124693 1.36407912 0.0586000793
v -0.0517225452 1.36646807 0.0594203509
v -0.0484023318 1.36850297 0.0603844263
v -0.0484023318 1.36850297 0.0603844263
v -0.0567591973 1.36092532 0.0577791855
v -0.0544124693 1.36407912 0.0586000793
v -0.0544124693 1.36407912 0.0586000793
v -0.0552719682 1.3606137 0.0574048571
v -0.0578981526 1.35862756 0.0572178625
v -0.0558854491 1.35840738 0.0568725578
v -0.0584423468 1.35596001 0.0567147732
v -0.0560544729 1.3558681 0.0564633459
v -0.058179915 1.35281074 0.0564765781
v -0.0557967983 1.35370088 0.0562535413
v -0.0573214889 1.35017133 0.056528084
v -0.055119779 1.35168993 0.0561206006
v -0.055922363 1.34738123 0.0567611493
v -0.0537654944 1.34927797 0.0563150384
v -0.0513210297 1.34669626 0.05680044
v -0.0535917208 1.34424233 0.0573356003
v -0.0450467132 1.36965835 0.0608969331
v -0.0484023318 1.36850297 0.0603844263
v -0.0484023318 1.36850297 0.0603844263
v -0.0450467207 1.36965835 0.0608969405
v -0.0419064164 1.37032712 0.0613933019
v -0.0419064239 1.37032712 0.0613933019
v -0.0388719328 1.3700676 0.0617041178
v -0.0388719328 1.37006772 0.0617041178
v -0.036331933 1.36915267 0.0618653819
v -0.036331933 1.36915267 0.0618653819
v -0.0415294021 1.34854424 0.0586525574
v -0.0407699905 1.34835005 0.0581691787
v -0.0407492965 1.3481065 0.058671888
v -0.0411834009 1.3486253 0.0580998361
v -0.042176798 1.34998882 0.0586557798
v -0.04175869 1.34994793 0.0581691824
v -0.0421582647 1.35256934 0.0582436137
v -0.0426851213 1.35256934 0.0586938746
v -0.0422267653 1.35519254 0.0581691824
v -0.0428563282 1.35519254 0.0587487444
v -0.0427060872 1.35851181 0.0588310845
v -0.0420532227 1.35803032 0.0581691824
v -0.0422945358 1.36044693 0.0588975959
v -0.0419046767 1.35904086 0.0581691824
v -0.041713763 1.36161327 0.0589531995
v -0.0414726548 1.35988593 0.0581691824
v -0.0409397632 1.3602345 0.0581691824
v -0.0409692712 1.36209261 0.0589965172
v -0.040284507 1.35985482 0.0581691824
v -0.0409397632 1.3602345 0.0581691824
v -0.0409692712 1.36209261 0.0589965172
v -0.0401669741 1.36157501 0.0590209477
v -0.0399694443 1.35890043 0.0581691824
v -0.039506942 1.36027265 0.0590278618
v -0.0390999727 1.35822427 0.059015315
v -0.0396897271 1.35790229 0.0581691824
v -0.0395186916 1.35519254 0.0581691824
v -0.0389100499 1.35519254 0.0589540526
v -0.0396226272 1.35256934 0.0582436137
v -0.0390511639 1.35256934 0.0588800423
v -0.0394614935 1.349931 0.0587847047
v -0.0399117805 1.34999812 0.0581529252
v -0.0402793176 1.34862542 0.0581091903
v -0.0399873741 1.34855485 0.0587213263
v -0.0407699905 1.34835005 0.0581691787
v -0.0407492965 1.3481065 0.058671888
v -0.0440658554 1.34112704 0.0576288402
v -0.0380054787 1.33914721 0.0604993328
v -0.0413491763 1.3388015 0.0600964502
v -0.0358535089 1.34263718 0.0586549379
v -0.0344419889 1.34027719 0.0607957654
v -0.0427058563 1.3469131 0.0550846569
v -0.0314435363 1.34233904 0.0612763688
v -0.0294904131 1.34891617 0.0589202195
v -0.0290796962 1.34444094 0.0615965649
v -0.0271274224 1.34728849 0.0620798282
v -0.025780499 1.35060728 0.0624951348
v -0.0250507183 1.35519516 0.0627608001
v -0.028560834 1.35728943 0.0596544333
v -0.0253056455 1.35841858 0.0630539432
v -0.026288962 1.36216021 0.0630440414
v -0.0287551619 1.36676514 0.0629971847
v -0.0336366184 1.36614907 0.0589948893
v -0.0315022469 1.37004876 0.0627363846
v -0.0348403007 1.37248623 0.0620951243
v -0.0382588394 1.37379122 0.0616038777
v -0.037887305 1.34753215 0.055799339
v -0.0411688574 1.35387218 0.0537925437
v -0.0342286415 1.35067153 0.0566138439
v -0.0340217501 1.35587382 0.0564312786
v -0.0373360999 1.36094236 0.055827979
v -0.0412652753 1.36148095 0.0550091676
v -0.0415547267 1.36815906 0.0580298081
v -0.0415849052 1.37419009 0.0612133108
v -0.0440658554 1.34112704 0.0576288402
v -0.0413491763 1.3388015 0.0600964502
v -0.0444226824 1.3391794 0.0596055016
v -0.0480822064 1.3400296 0.0588773713
v -0.0520886071 1.34623563 0.0557459965
v -0.0512509532 1.34230483 0.0580920577
v -0.0535917282 1.34424233 0.0573356003
v -0.0562063344 1.34738076 0.0567998104
v -0.0576915219 1.35017133 0.0566375591
v -0.046890948 1.34983993 0.0540538691
v -0.0427058563 1.3469131 0.0550846569
v -0.0411688574 1.35387218 0.0537925437
v -0.054477118 1.35293221 0.0548130982
v -0.0586094745 1.35281074 0.0564859472
v -0.0591536127 1.35596299 0.0566923656
v -0.0532395765 1.35967362 0.0554122776
v -0.0588589311 1.35893703 0.0571198985
v -0.0584446117 1.36148036 0.0575502962
v -0.0568012409 1.36570621 0.0581124388
v -0.0485818945 1.36627698 0.0565867238
v -0.0548404679 1.36891019 0.0589178838
v -0.0514639542 1.37192893 0.0597492456
v -0.0486443266 1.37290514 0.0603465587
v -0.0478719734 1.35329461 0.0538139157
v -0.0474556498 1.35701859 0.0537882559
v -0.045151528 1.36060715 0.0543137863
v -0.0412652753 1.36148095 0.0550091676
v -0.0415547267 1.36815906 0.0580298081
v -0.045101244 1.37364316 0.0607911907
v -0.0415849052 1.37419009 0.0612133108
v -0.0408475995 1.35891414 0.0579647869
v -0.0409397632 1.3602345 0.0581691824
v -0.040284507 1.35985482 0.0581691824
v -0.0399694443 1.35890043 0.0581691824
v -0.0414726548 1.35988593 0.0581691824
v -0.0419046767 1.35904086 0.0581691824
v -0.0396897271 1.35790229 0.0581691824
v -0.0420532227 1.35803032 0.0581691824
v -0.0408204533 1.3577286 0.0578403696
v -0.0407626703 1.35519254 0.0575754903
v -0.0395186916 1.35519254 0.0581691824
v -0.0422267653 1.35519254 0.0581691824
v -0.0421582647 1.35256934 0.0582436137
v -0.0396226272 1.35256934 0.0582436137
v -0.0407795794 1.35256934 0.057699997
v -0.04175869 1.34994793 0.0581691824
v -0.0407614224 1.35021019 0.0577996112
v -0.0399117805 1.34999812 0.0581529252
v -0.0411834009 1.3486253 0.0580998361
v -0.0402793176 1.34862542 0.0581091903
v -0.0407699905 1.34835005 0.0581691787
v 0.0407614224 1.35021019 0.0577996112
v 0.0407699905 1.34835005 0.0581691787
v 0.0402793176 1.34862542 0.0581091903
v 0.0399117805 1.34999812 0.0581529252
v 0.0411834009 1.3486253 0.0580998361
v 0.04175869 1.34994793 0.0581691824
v 0.0396226272 1.35256934 0.0582436137
v 0.0421582647 1.35256934 0.0582436137
v 0.0407795794 1.35256934 0.057699997
v 0.0407626703 1.35519254 0.0575754903
v 0.0395186916 1.35519254 0.0581691824
v 0.0422267653 1.35519254 0.0581691824
v 0.0420532227 1.35803032 0.0581691824
v 0.0396897271 1.35790229 0.0581691824
v 0.0408204533 1.3577286 0.0578403696
v 0.0419046767 1.35904086 0.0581691824
v 0.0408475995 1.35891414 0.0579647869
v 0.0399694443 1.35890043 0.0581691824
v 0.0414726548 1.35988593 0.0581691824
v 0.040284507 1.35985482 0.0581691824
v 0.0409397632 1.3602345 0.0581691824
v -0.0532846972 1.34650719 0.0578926727
v -0.0550527647 1.34709346 0.0579349324
v -0.0530438311 1.34732604 0.0579872131
v -0.054587435 1.34603119 0.0573695898
v -0.05347161 1.34795988 0.0579437204
v -0.0560298339 1.34615993 0.0573488064
v -0.0548837036 1.34808815 0.0576879568
v -0.0566897281 1.34681046 0.0572480522
v -0.0562159382 1.34760928 0.0573963039
v 0.0284828395 1.34684837 0.0624315105
v 0.0277495217 1.34755504 0.062775664
v 0.029671615 1.34750366 0.0624685548
v 0.0269604363 1.34671724 0.0624242015
v 0.0298127439 1.34829903 0.0624996163
v 0.0263183881 1.34732759 0.0624788031
v 0.028658038 1.34862983 0.0625180528
v 0.0264035091 1.34773338 0.0626280233
v 0.0273038484 1.34849322 0.06259083
v -0.0530438311 1.34732604 0.0579872131
v -0.0546752028 1.3470732 0.0570703074
v -0.0532846972 1.34650719 0.0578926727
v -0.05347161 1.34795988 0.0579437204
v -0.054587435 1.34603119 0.0573695898
v -0.0548837036 1.34808815 0.0576879568
v -0.0560298339 1.34615993 0.0573488064
v -0.0562159382 1.34760928 0.0573963039
v -0.0566897281 1.34681046 0.0572480522
v 0.029671615 1.34750366 0.0624685548
v 0.0279450342 1.3476851 0.0620994158
v 0.0284828395 1.34684837 0.0624315105
v 0.0298127439 1.34829903 0.0624996163
v 0.0269604363 1.34671724 0.0624242015
v 0.028658038 1.34862983 0.0625180528
v 0.0263183881 1.34732759 0.0624788031
v 0.0273038484 1.34849322 0.06259083
v 0.0264035091 1.34773338 0.0626280233
vt 0.328750849 0.783033967
vt 0.322642803 0.813636601
vt 0.401879311 0.842785835
vt 0.478972554 0.851693273
vt 0.550262213 0.808869183
vt 0.560501933 0.839447975
vt 0.626904011 0.818940639
vt 0.245271683 0.759194672
vt 0.712379098 0.774627209
vt 0.191902399 0.634974778
vt 0.202206373 0.584102988
vt 0.181598425 0.685846567
vt 0.124435537 0.582987309
vt 0.10164392 0.499414265
vt 0.0957357883 0.42741698
vt 0.750728667 0.707172871
vt 0.77647841 0.710192442
vt 0.827746272 0.647235155
vt 0.334858894 0.752431333
vt 0.486414313 0.42753759
vt 0.167900801 0.370234102
vt 0.540022612 0.772537589
vt 0.112650283 0.324937671
vt 0.142923594 0.250808567
vt 0.180860758 0.187199995
vt 0.266444206 0.15994738
vt 0.228037119 0.140254185
vt 0.292885303 0.0941979438
vt 0.417851686 0.0689565688
vt 0.47614038 0.0972404033
vt 0.473092914 0.0612402931
vt 0.52387023 0.0696802288
vt 0.64435184 0.0886677802
vt 0.689668655 0.158686951
vt 0.72231102 0.139488325
vt 0.773563147 0.182767436
vt 0.824193239 0.252868056
vt 0.784961343 0.342315078
vt 0.852845788 0.315204173
vt 0.873576522 0.374160081
vt 0.886188745 0.444565237
vt 0.800030231 0.512319863
vt 0.879358411 0.510996103
vt 0.71871233 0.685888827
vt 0.832541108 0.540062487
vt 0.865051985 0.567805111
vt 0.205446243 0.710192442
vt 0.269545555 0.774627209
vt 0.234329224 0.698040605
vt 0.431662321 0.805992782
vt 0.355020642 0.818940639
vt 0.42142272 0.839447975
vt 0.154178381 0.647235155
vt 0.502952099 0.851693273
vt 0.653173804 0.783033967
vt 0.580045223 0.842785835
vt 0.659281731 0.813636601
vt 0.73665297 0.759194672
vt 0.149383545 0.540062487
vt 0.181894422 0.512319863
vt 0.116872787 0.567805111
vt 0.102566242 0.510996103
vt 0.0957357883 0.444565237
vt 0.108348131 0.374160081
vt 0.263212204 0.685888827
vt 0.49551034 0.42753759
vt 0.19696331 0.342315078
vt 0.441901922 0.772537589
vt 0.129078865 0.315204173
vt 0.157731414 0.252868056
vt 0.208361387 0.182767436
vt 0.292256117 0.158686951
vt 0.259613514 0.139488325
vt 0.337572813 0.0886677802
vt 0.450692296 0.0696802288
vt 0.498422146 0.0972404033
vt 0.501469612 0.0612402931
vt 0.556710839 0.0689565688
vt 0.689039469 0.0941979438
vt 0.715480328 0.15994738
vt 0.753887415 0.140254185
vt 0.801063895 0.187199995
vt 0.83900094 0.250808567
vt 0.814023852 0.370234102
vt 0.869274378 0.324937671
vt 0.886188865 0.42741698
vt 0.880280733 0.499414265
vt 0.77971828 0.584102988
vt 0.857489109 0.582987309
vt 0.647065878 0.752431333
vt 0.790022254 0.634974778
vt 0.800326228 0.685846567
vt 0.220253915 0.777343035
vt 0.215637133 0.673421681
vt 0.161550716 0.717233062
vt 0.258811653 0.72275579
vt 0.285574436 0.824355841
vt 0.308982998 0.761101067
vt 0.112438463 0.629646301
vt 0.161550716 0.717233062
vt 0.215637133 0.673421681
vt 0.175476208 0.591432512
vt 0.0846348181 0.52958101
vt 0.151014447 0.507566154
vt 0.0720306635 0.428668171
vt 0.141443908 0.421221405
vt 0.0863308907 0.318249553
vt 0.152710497 0.34026444
vt 0.178069115 0.275462806
vt 0.117624283 0.239841804
vt 0.22051309 0.225089431
vt 0.162847221 0.170405656
vt 0.220023334 0.112975508
vt 0.275304109 0.185327217
vt 0.286653459 0.0700615942
vt 0.319195718 0.15795292
vt 0.35982573 0.0435393453
vt 0.380327404 0.1382505
vt 0.43634212 0.0345678926
vt 0.370334804 0.251167685
vt 0.40409714 0.239294335
vt 0.346519023 0.267049789
vt 0.248067155 0.225505054
vt 0.434331477 0.367818862
vt 0.331716537 0.28941673
vt 0.225899324 0.26595968
vt 0.436516225 0.234823763
vt 0.320222765 0.312054813
vt 0.467945665 0.235102087
vt 0.206721857 0.314709634
vt 0.438208878 0.131779268
vt 0.310315073 0.338881552
vt 0.199933439 0.375400215
vt 0.493070304 0.13590388
vt 0.512858629 0.0435394645
vt 0.307941377 0.371906817
vt 0.204430014 0.422810495
vt 0.311502665 0.397199124
vt 0.217250541 0.482153565
vt 0.319209933 0.428452432
vt 0.252644956 0.543273449
vt 0.338410914 0.460449308
vt 0.307011694 0.592938364
vt 0.503263772 0.242201254
vt 0.36726445 0.486402988
vt 0.532336771 0.255503029
vt 0.355548114 0.623996675
vt 0.55147469 0.154344991
vt 0.58603096 0.0700616241
vt 0.392483443 0.503895044
vt 0.397043973 0.63691324
vt 0.597377539 0.180965036
vt 0.652661085 0.112975538
vt 0.414421648 0.5115031
vt 0.446002841 0.641397655
vt 0.440622628 0.515285075
vt 0.500000179 0.632113039
vt 0.470259786 0.512417972
vt 0.555883348 0.608726442
vt 0.50187695 0.501689553
vt 0.609475493 0.5745309
vt 0.557979524 0.277113885
vt 0.534675062 0.486248404
vt 0.579146981 0.30084008
vt 0.647331715 0.532440245
vt 0.634609997 0.220899731
vt 0.66219008 0.262431741
vt 0.560045242 0.464979172
vt 0.682445645 0.475017756
vt 0.596636593 0.328577906
vt 0.68732059 0.306652933
vt 0.586963832 0.433764398
vt 0.695765615 0.433668166
vt 0.604051113 0.354319662
vt 0.699927688 0.346693784
vt 0.59826535 0.409110069
vt 0.704473972 0.383250922
vt 0.605729878 0.377610117
vt 0.709837019 0.719826102
vt 0.65796876 0.672155976
vt 0.6116364 0.719620407
vt 0.652661026 0.777256131
vt 0.585214853 0.825934768
vt 0.560414374 0.757403314
vt 0.755059958 0.650389791
vt 0.65796876 0.672155976
vt 0.709837019 0.719826102
vt 0.694615006 0.614768982
vt 0.786353469 0.571982145
vt 0.719973862 0.54996717
vt 0.802349627 0.488029778
vt 0.732936382 0.480583072
vt 0.802349567 0.402201951
vt 0.732936323 0.409648716
vt 0.78635335 0.318249524
vt 0.719973683 0.34026441
vt 0.755059779 0.239841819
vt 0.694615006 0.275462747
vt 0.651407897 0.220672086
vt 0.709837019 0.170405626
vt 0.491691649 0.777713597
vt 0.585214853 0.825934768
vt 0.560414374 0.757403314
vt 0.507199287 0.853151917
vt 0.434999943 0.783743978
vt 0.434999943 0.861907363
vt 0.369202018 0.780101418
vt 0.362800539 0.853151917
vt 0.308982998 0.761101067
vt 0.285574436 0.824355841
vt 0.980630517 0.449948251
vt 0.980630517 0.39661473
vt 0.94167912 0.442811698
vt 0.941679001 0.476122141
vt 0.980630517 0.515029609
vt 0.94167906 0.509442806
vt 0.94167906 0.552294254
vt 0.980630517 0.573108852
vt 0.94167906 0.605998158
vt 0.980630517 0.605998218
vt 0.980630517 0.638887405
vt 0.94167906 0.638887644
vt 0.980630517 0.671777129
vt 0.94167906 0.671777368
vt 0.980630517 0.704666376
vt 0.94167906 0.704666376
vt 0.94167906 0.7375561
vt 0.980630517 0.737555921
vt 0.94167906 0.70597291
vt 0.980630517 0.738863289
vt 0.94167906 0.738863051
vt 0.980630517 0.705971003
vt 0.94167906 0.673082829
vt 0.980630517 0.673083067
vt 0.980630517 0.640192986
vt 0.94167906 0.640192747
vt 0.94167906 0.607303739
vt 0.980630517 0.607303739
vt 0.94167906 0.552947044
vt 0.980630517 0.574414492
vt 0.980630517 0.514808714
vt 0.94167906 0.474572241
vt 0.94167906 0.444013596
vt 0.980630517 0.442798704
vt 0.94167912 0.442811698
vt 0.980630517 0.39661473
vt 0.979379833 0.78159368
vt 0.73921442 0.781593561
vt 0.73921442 0.796131194
vt 0.979379833 0.810669005
vt 0.73921442 0.810669005
vt 0.988742709 0.932652712
vt 0.73921442 0.825206578
vt 0.979379833 0.854282081
vt 0.73921442 0.839744389
vt 0.73921442 0.854281962
vt 0.73921442 0.868819654
vt 0.73921442 0.883357406
vt 0.979379833 0.897895157
vt 0.73921442 0.897895098
vt 0.73921442 0.91243273
vt 0.73921442 0.926970422
vt 0.979379833 0.941508234
vt 0.73921442 0.941508114
vt 0.73921442 0.956045926
vt 0.73921442 0.970583618
vt 0.988581538 0.937920272
vt 0.991994739 0.98512131
vt 0.988120914 0.944942713
vt 0.988327444 0.959763765
vt 0.98862052 0.973455667
vt 0.988872349 0.983322203
vt 0.979379833 0.977852464
vt 0.73921442 0.985121429
vt 0.979379892 0.794313908
vt 0.73921448 0.794313908
vt 0.73921448 0.781593382
vt 0.73921448 0.807034433
vt 0.979379892 0.832475424
vt 0.73921448 0.819754839
vt 0.73921448 0.832475305
vt 0.73921448 0.84519577
vt 0.73921448 0.857916236
vt 0.988816261 0.946661592
vt 0.98874259 0.935931921
vt 0.991994619 0.98512131
vt 0.979379892 0.87063688
vt 0.73921448 0.870636702
vt 0.73921448 0.883357108
vt 0.979379892 0.908798397
vt 0.73921448 0.896077633
vt 0.73921448 0.908798158
vt 0.73921448 0.921518505
vt 0.979379892 0.946959794
vt 0.73921448 0.93423897
vt 0.73921448 0.946959496
vt 0.73921448 0.959679902
vt 0.988590717 0.954229355
vt 0.988630533 0.964767456
vt 0.988826632 0.975537658
vt 0.98887229 0.983547091
vt 0.979379892 0.978761137
vt 0.73921448 0.972400367
vt 0.73921448 0.985120833
vt 0.220253915 0.777343035
vt 0.161550716 0.717233062
vt 0.215637133 0.673421681
vt 0.258811653 0.72275579
vt 0.285574436 0.824355841
vt 0.308982998 0.761101067
vt 0.112438463 0.629646301
vt 0.215637133 0.673421681
vt 0.161550716 0.717233062
vt 0.175476208 0.591432512
vt 0.0846348181 0.52958101
vt 0.151014447 0.507566154
vt 0.0720306635 0.428668171
vt 0.141443908 0.421221405
vt 0.0863308907 0.318249553
vt 0.152710497 0.34026444
vt 0.178069115 0.275462806
vt 0.117624283 0.239841804
vt 0.22051309 0.225089431
vt 0.162847221 0.170405656
vt 0.220023334 0.112975508
vt 0.275304109 0.185327217
vt 0.286653459 0.0700615942
vt 0.319195718 0.15795292
vt 0.35982573 0.0435393453
vt 0.380327404 0.1382505
vt 0.43634212 0.0345678926
vt 0.346519023 0.267049789
vt 0.370334804 0.251167685
vt 0.331716537 0.28941673
vt 0.248067155 0.225505054
vt 0.434331477 0.367818862
vt 0.320222765 0.312054813
vt 0.225899324 0.26595968
vt 0.40409714 0.239294335
vt 0.310315073 0.338881552
vt 0.436516225 0.234823763
vt 0.206721857 0.314709634
vt 0.438208878 0.131779268
vt 0.307941377 0.371906817
vt 0.199933439 0.375400215
vt 0.493070304 0.13590388
vt 0.512858629 0.0435394645
vt 0.311502665 0.397199124
vt 0.204430014 0.422810495
vt 0.319209933 0.428452432
vt 0.217250541 0.482153565
vt 0.338410914 0.460449308
vt 0.252644956 0.543273449
vt 0.36726445 0.486402988
vt 0.307011694 0.592938364
vt 0.467945665 0.235102087
vt 0.392483443 0.503895044
vt 0.503263772 0.242201254
vt 0.355548114 0.623996675
vt 0.55147469 0.154344991
vt 0.58603096 0.0700616241
vt 0.414421648 0.5115031
vt 0.397043973 0.63691324
vt 0.597377539 0.180965036
vt 0.652661085 0.112975538
vt 0.440622628 0.515285075
vt 0.446002841 0.641397655
vt 0.470259786 0.512417972
vt 0.500000179 0.632113039
vt 0.50187695 0.501689553
vt 0.555883348 0.608726442
vt 0.534675062 0.486248404
vt 0.609475493 0.5745309
vt 0.532336771 0.255503029
vt 0.560045242 0.464979172
vt 0.557979524 0.277113885
vt 0.647331715 0.532440245
vt 0.634609997 0.220899731
vt 0.66219008 0.262431741
vt 0.586963832 0.433764398
vt 0.682445645 0.475017756
vt 0.579146981 0.30084008
vt 0.68732059 0.306652933
vt 0.59826535 0.409110069
vt 0.695765615 0.433668166
vt 0.596636593 0.328577906
vt 0.699927688 0.346693784
vt 0.605729878 0.377610117
vt 0.704473972 0.383250922
vt 0.604051113 0.354319662
vt 0.709837019 0.719826102
vt 0.6116364 0.719620407
vt 0.65796876 0.672155976
vt 0.652661026 0.777256131
vt 0.585214853 0.825934768
vt 0.560414374 0.757403314
vt 0.755059958 0.650389791
vt 0.709837019 0.719826102
vt 0.65796876 0.672155976
vt 0.694615006 0.614768982
vt 0.786353469 0.571982145
vt 0.719973862 0.54996717
vt 0.802349627 0.488029778
vt 0.732936382 0.480583072
vt 0.802349567 0.402201951
vt 0.732936323 0.409648716
vt 0.78635335 0.318249524
vt 0.719973683 0.34026441
vt 0.755059779 0.239841819
vt 0.694615006 0.275462747
vt 0.651407897 0.220672086
vt 0.709837019 0.170405626
vt 0.491691649 0.777713597
vt 0.560414374 0.757403314
vt 0.585214853 0.825934768
vt 0.507199287 0.853151917
vt 0.434999943 0.783743978
vt 0.434999943 0.861907363
vt 0.369202018 0.780101418
vt 0.362800539 0.853151917
vt 0.308982998 0.761101067
vt 0.285574436 0.824355841
vt 0.980630517 0.449948251
vt 0.94167912 0.442811698
vt 0.980630517 0.39661473
vt 0.941679001 0.476122141
vt 0.980630517 0.515029609
vt 0.94167906 0.509442806
vt 0.94167906 0.552294254
vt 0.980630517 0.573108852
vt 0.94167906 0.605998158
vt 0.980630517 0.605998218
vt 0.980630517 0.638887405
vt 0.94167906 0.638887644
vt 0.980630517 0.671777129
vt 0.94167906 0.671777368
vt 0.980630517 0.704666376
vt 0.94167906 0.704666376
vt 0.94167906 0.7375561
vt 0.980630517 0.737555921
vt 0.94167906 0.70597291
vt 0.94167906 0.738863051
vt 0.980630517 0.738863289
vt 0.980630517 0.705971003
vt 0.94167906 0.673082829
vt 0.980630517 0.673083067
vt 0.980630517 0.640192986
vt 0.94167906 0.640192747
vt 0.94167906 0.607303739
vt 0.980630517 0.607303739
vt 0.94167906 0.552947044
vt 0.980630517 0.574414492
vt 0.980630517 0.514808714
vt 0.94167906 0.474572241
vt 0.94167906 0.444013596
vt 0.980630517 0.442798704
vt 0.94167912 0.442811698
vt 0.980630517 0.39661473
vt 0.979379833 0.78159368
vt 0.73921442 0.796131194
vt 0.73921442 0.781593561
vt 0.979379833 0.810669005
vt 0.73921442 0.810669005
vt 0.988742709 0.932652712
vt 0.73921442 0.825206578
vt 0.979379833 0.854282081
vt 0.73921442 0.839744389
vt 0.73921442 0.854281962
vt 0.73921442 0.868819654
vt 0.73921442 0.883357406
vt 0.979379833 0.897895157
vt 0.73921442 0.897895098
vt 0.73921442 0.91243273
vt 0.73921442 0.926970422
vt 0.979379833 0.941508234
vt 0.73921442 0.941508114
vt 0.73921442 0.956045926
vt 0.73921442 0.970583618
vt 0.988581538 0.937920272
vt 0.991994739 0.98512131
vt 0.988120914 0.944942713
vt 0.988327444 0.959763765
vt 0.98862052 0.973455667
vt 0.988872349 0.983322203
vt 0.979379833 0.977852464
vt 0.73921442 0.985121429
vt 0.979379892 0.794313908
vt 0.73921448 0.781593382
vt 0.73921448 0.794313908
vt 0.73921448 0.807034433
vt 0.979379892 0.832475424
vt 0.73921448 0.819754839
vt 0.73921448 0.832475305
vt 0.73921448 0.84519577
vt 0.73921448 0.857916236
vt 0.988816261 0.946661592
vt 0.98874259 0.935931921
vt 0.991994619 0.98512131
vt 0.979379892 0.87063688
vt 0.73921448 0.870636702
vt 0.73921448 0.883357108
vt 0.979379892 0.908798397
vt 0.73921448 0.896077633
vt 0.73921448 0.908798158
vt 0.73921448 0.921518505
vt 0.979379892 0.946959794
vt 0.73921448 0.93423897
vt 0.73921448 0.946959496
vt 0.73921448 0.959679902
vt 0.988590717 0.954229355
vt 0.988630533 0.964767456
vt 0.988826632 0.975537658
vt 0.98887229 0.983547091
vt 0.979379892 0.978761137
vt 0.73921448 0.972400367
vt 0.73921448 0.985120833
vt 0.888553977 0.438487887
vt 0.888553977 0.472130954
vt 0.875469685 0.462027788
vt 0.864981353 0.438487887
vt 0.902440727 0.462852836
vt 0.915418267 0.438487887
vt 0.857074499 0.409444451
vt 0.922541857 0.409444451
vt 0.888553977 0.409444451
vt 0.888553977 0.337920964
vt 0.853206873 0.337920964
vt 0.926766276 0.337920964
vt 0.926766276 0.268095821
vt 0.853206873 0.268095821
vt 0.888553977 0.268095821
vt 0.913835287 0.217970669
vt 0.888553977 0.228047878
vt 0.865102828 0.217970669
vt 0.902440727 0.199263066
vt 0.875469685 0.199268043
vt 0.888553977 0.192342222
vt 0.888553977 0.228047878
vt 0.888553977 0.192342222
vt 0.875469685 0.199268043
vt 0.865102828 0.217970669
vt 0.902440727 0.199263066
vt 0.913835287 0.217970669
vt 0.853206873 0.268095821
vt 0.926766276 0.268095821
vt 0.888553977 0.268095821
vt 0.888553977 0.337920964
vt 0.853206873 0.337920964
vt 0.926766276 0.337920964
vt 0.922541857 0.409444451
vt 0.857074499 0.409444451
vt 0.888553977 0.409444451
vt 0.915418267 0.438487887
vt 0.888553977 0.438487887
vt 0.864981353 0.438487887
vt 0.902440727 0.462852836
vt 0.875469685 0.462027788
vt 0.888553977 0.472130954
vt 0.399385095 0.935799837
vt 0.383152366 0.939607501
vt 0.406025887 0.939836264
vt 0.383239865 0.934027076
vt 0.399272203 0.943773031
vt 0.367047787 0.935557723
vt 0.383080125 0.945303679
vt 0.360293984 0.939494491
vt 0.366934896 0.943530917
vt 0.394145966 0.961117387
vt 0.380536139 0.964945138
vt 0.399860144 0.964979887
vt 0.379725814 0.959344625
vt 0.394145966 0.969090581
vt 0.366555214 0.960875273
vt 0.379725814 0.970621228
vt 0.360841036 0.964979887
vt 0.366555214 0.968848467
vt 0.406025887 0.939836264
vt 0.383160949 0.939754903
vt 0.399385095 0.935799837
vt 0.399272203 0.943773031
vt 0.383239865 0.934027076
vt 0.383080125 0.945303679
vt 0.367047787 0.935557723
vt 0.366934896 0.943530917
vt 0.360293984 0.939494491
vt 0.399860144 0.964979887
vt 0.379725814 0.964979887
vt 0.394145966 0.961117387
vt 0.394145966 0.969090581
vt 0.379725814 0.959344625
vt 0.379725814 0.970621228
vt 0.366555214 0.960875273
vt 0.366555214 0.968848467
vt 0.360841036 0.964979887
vn 0.0109585086 0.282406926 0.959232152
vn -0.00414227229 0.308210194 0.951309264
vn 0.0794394761 0.244541094 0.966379404
vn 0.0988549814 0.222561926 0.969893754
vn 0.19498603 0.254903406 0.947103322
vn 0.171896189 0.307939917 0.93574816
vn 0.22672978 0.109296657 0.967805743
vn -0.00456836028 0.164872676 0.986304343
vn 0.240387127 0.0897513926 0.966518879
vn -0.173818067 0.232887521 0.956844211
vn 0.0222840756 0.0315822475 0.999252737
vn -0.219464749 0.21809791 0.950930297
vn -0.336727768 0.117711745 0.934215426
vn -0.276707947 -0.017707061 0.960790932
vn -0.281600803 -0.0336342789 0.958941996
vn 0.377075404 0.134730563 0.916330576
vn 0.394814312 0.0901413113 0.914328277
vn 0.458408505 0.08575546 0.884594619
vn 0.0748921931 0.130946115 0.988556623
vn 0.145525098 -0.0595291331 0.987561941
vn -0.0192671102 -0.126525849 0.991776109
vn 0.172066927 0.118720792 0.977905095
vn -0.316304415 -0.184944704 0.930455208
vn -0.136259452 -0.259313166 0.956132889
vn -0.127621815 -0.261272103 0.956791282
vn 0.0406327844 -0.196162954 0.979729116
vn -0.134318307 -0.323411196 0.936677039
vn 0.00685530668 -0.294667542 0.955575228
vn 0.0127665885 -0.292235553 0.956261158
vn 0.097231403 -0.201455176 0.97465986
vn 0.110795297 -0.517803013 0.848294914
vn 0.245319545 -0.504436135 0.827866256
vn 0.277757168 -0.522868931 0.805890203
vn 0.254978001 -0.19654502 0.946760893
vn 0.624238312 -0.608893394 0.489464402
vn 0.611459374 -0.320198387 0.72359544
vn 0.609858274 -0.310857028 0.728999913
vn 0.374140352 -0.110731542 0.920737445
vn 0.623977721 -0.227970585 0.747449934
vn 0.605072558 -0.105157509 0.78919524
vn 0.59964323 -0.0929361507 0.794852734
vn 0.344876766 -0.00671231281 0.938623965
vn 0.591150582 -0.052901376 0.804824471
vn 0.280014396 0.079969041 0.956659198
vn 0.484600842 0.0755534917 0.871466339
vn 0.538826108 0.0539021417 0.840690732
vn -0.394814312 0.0901413113 0.914328277
vn -0.240386292 0.0897511318 0.966519117
vn -0.377075404 0.134730697 0.916330576
vn -0.194983929 0.25490436 0.947103441
vn -0.226705521 0.109287292 0.967812419
vn -0.171892732 0.307933629 0.935750961
vn -0.458406299 0.0857554376 0.884595811
vn -0.0988564417 0.222566351 0.969892621
vn -0.010959642 0.282407641 0.959231913
vn -0.0794309303 0.244519249 0.966385603
vn 0.00414357381 0.308207572 0.951310158
vn 0.00456827879 0.164873645 0.986304104
vn -0.484603256 0.0755535215 0.871465087
vn -0.3448762 -0.00671197381 0.938624144
vn -0.538815856 0.053902261 0.840697289
vn -0.591151476 -0.0529014394 0.804823816
vn -0.599636972 -0.0929351002 0.794857562
vn -0.605066419 -0.10515663 0.789200068
vn -0.280014992 0.079969123 0.956659019
vn -0.145525053 -0.059529122 0.987561941
vn -0.374139816 -0.110731959 0.920737684
vn -0.172066197 0.118722171 0.977905035
vn -0.623983979 -0.227973595 0.747443676
vn -0.609858632 -0.310858399 0.728998959
vn -0.611458778 -0.320199519 0.72359556
vn -0.254979074 -0.196547225 0.946760118
vn -0.624251902 -0.608904302 0.489433378
vn -0.277769566 -0.522895277 0.805868745
vn -0.245333984 -0.504465818 0.827843964
vn -0.0972322077 -0.201457366 0.974659324
vn -0.110807173 -0.517858028 0.848259866
vn -0.0127677768 -0.29223597 0.956260979
vn -0.00685653603 -0.294667393 0.955575228
vn -0.0406328887 -0.196163014 0.979729116
vn 0.134317994 -0.323411107 0.936677039
vn 0.127621815 -0.261272371 0.956791282
vn 0.136259347 -0.259313166 0.956132889
vn 0.0192666054 -0.126525924 0.991776109
vn 0.316302925 -0.184942454 0.930456221
vn 0.281600952 -0.0336343832 0.958941877
vn 0.276707888 -0.0177069418 0.960790932
vn -0.0222845394 0.0315820873 0.999252617
vn 0.336725414 0.117710836 0.93421638
vn -0.0748920292 0.130946755 0.988556623
vn 0.173816383 0.232885182 0.956844926
vn 0.219468489 0.218104854 0.950927973
vn -0 -3.06788788E-05 -1
vn 0.428335696 -0.332016677 0.840412676
vn -0 1 0
vn 0.372050077 -0.394897282 0.840020716
vn -0 1 0
vn 0.288374901 -0.449491918 0.845456719
vn 0.519661248 -0.260417461 0.81371671
vn -0 1 0
vn 0.428335696 -0.332016677 0.840412676
vn 0.477809042 -0.261463642 0.838650882
vn 0.555370331 -0.187217772 0.810255051
vn 0.507914543 -0.188515827 0.840526283
vn 0.593912959 -0.0553779043 0.802621067
vn 0.527781427 -0.0724117011 0.846287966
vn 0.591902018 0.0652293935 0.803366065
vn 0.522223115 0.0332552679 0.852160275
vn 0.464125276 0.13952826 0.874711215
vn 0.516593814 0.164528251 0.840274453
vn 0.388147235 0.212815449 0.896689057
vn 0.413446784 0.226594597 0.881882489
vn 0.337881863 0.278954834 0.898899257
vn 0.330676496 0.256492496 0.908220589
vn 0.266833365 0.325024307 0.90728116
vn 0.261193365 0.302789122 0.916567862
vn 0.183194131 0.34890765 0.919077396
vn 0.17679593 0.334021389 0.925836384
vn 0.115334325 0.339230746 0.933606148
vn 0.238838762 0.250322282 0.93824023
vn 0.163410664 0.283171952 0.945045233
vn 0.296070606 0.212326095 0.931267917
vn 0.388147235 0.212815449 0.896689057
vn 0.116066828 -0.0315702744 0.992739499
vn 0.326664329 0.18293336 0.927267909
vn 0.464125276 0.13952826 0.874711215
vn 0.105645709 0.293388456 0.950138032
vn 0.369485319 0.121790871 0.92122072
vn 0.089401193 0.296383202 0.95087564
vn 0.522223115 0.0332552679 0.852160275
vn 0.108292498 0.335921496 0.935643911
vn 0.418819726 0.0222167317 0.907797575
vn 0.527781427 -0.0724117011 0.846287966
vn 0.0933867693 0.32855162 0.939857841
vn 0.100890808 0.318065882 0.942685127
vn 0.438285738 -0.0680410489 0.896256745
vn 0.507914543 -0.188515827 0.840526283
vn 0.437231332 -0.163826451 0.884301782
vn 0.477809042 -0.261463642 0.838650882
vn 0.423335969 -0.229425192 0.876442134
vn 0.428335696 -0.332016677 0.840412676
vn 0.392317116 -0.289401114 0.873117566
vn 0.372050077 -0.394897282 0.840020716
vn 0.0649464056 0.278532147 0.958228469
vn 0.342331111 -0.348571181 0.872529328
vn 0.0181631241 0.230560035 0.972888529
vn 0.288374901 -0.449491918 0.845456719
vn 0.0681478456 0.311048478 0.947947681
vn 0.082552813 0.304212868 0.949020326
vn 0.267634004 -0.391083688 0.880582511
vn 0.182193011 -0.488426268 0.853372991
vn 0.0237758439 0.278927654 0.960017741
vn 0.0361255556 0.289850324 0.956389904
vn 0.173245847 -0.424297512 0.888795555
vn 0.084266372 -0.501753032 0.860896647
vn 0.0852847695 -0.435004115 0.896380484
vn -0.00371731305 -0.495690078 0.86849159
vn 0.012969777 -0.42185545 0.906570256
vn -0.0458561406 -0.479246438 0.876481652
vn -0.0199927799 -0.406835884 0.913282454
vn -0.0824706182 -0.4368954 0.89572376
vn -0.00154687278 0.184263065 0.982875764
vn -0.0499636829 -0.372511685 0.926681459
vn -0.0220867395 0.129637152 0.991315484
vn -0.123152219 -0.363494545 0.923420429
vn -0.00330423797 0.221910283 0.975061476
vn -0.0421042219 0.153146788 0.987305999
vn -0.0847262144 -0.30345574 0.949071109
vn -0.139290735 -0.293525606 0.945748866
vn -0.04581476 0.0463985465 0.997871876
vn -0.0817857012 0.0568928756 0.995024741
vn -0.0927833021 -0.234435871 0.967693746
vn -0.130775765 -0.198573351 0.97132194
vn -0.0677168369 -0.0265709013 0.997350693
vn -0.102616377 -0.0343625061 0.994127274
vn -0.0910938382 -0.143272653 0.985481977
vn -0.115221791 -0.111414641 0.987071812
vn -0.0841922909 -0.0797971785 0.993249297
vn -0 1 0
vn -0.123152219 -0.363494545 0.923420429
vn -0.0824706182 -0.4368954 0.89572376
vn -0 -1 0
vn -0 1 0
vn -0.0458561406 -0.479246438 0.876481652
vn -0.152768135 -0.309957266 0.938396752
vn -0.123152219 -0.363494545 0.923420429
vn -0 1 0
vn -0.139290735 -0.293525606 0.945748866
vn -0.130772889 -0.224578962 0.965641081
vn -0.130775765 -0.198573351 0.97132194
vn -0.114828892 -0.127278686 0.985197604
vn -0.115221791 -0.111414641 0.987071812
vn -0.118124761 -0.020200761 0.992793322
vn -0.102616377 -0.0343625061 0.994127274
vn -0.103722014 0.0909154788 0.990442336
vn -0.0817857012 0.0568928756 0.995024741
vn -0.0460134819 0.175115064 0.983472109
vn -0.0421042219 0.153146788 0.987305999
vn -0.00330423797 0.221910283 0.975061476
vn 0.00868051965 0.239892766 0.970760584
vn -0.00371731305 -0.495690078 0.86849159
vn -0 1 0
vn -0.0458561406 -0.479246438 0.876481652
vn -0.108443975 -0.205441102 0.972642779
vn 0.084266372 -0.501753032 0.860896647
vn -0.0490200669 -0.202416405 0.978071928
vn 0.182193011 -0.488426268 0.853372991
vn 0.0471055955 -0.000836394262 0.998889625
vn 0.288374901 -0.449491918 0.845456719
vn -0 1 0
vn -0.710508227 0.445124984 0.545015574
vn 0.0511628911 0.907324314 0.417306721
vn 0.0108513888 0.709308624 0.704814553
vn -0.500858426 0.403666645 0.765633047
vn -0.754195511 0.198262572 0.6260041
vn -0.507809043 0.113626383 0.853943229
vn -0.460930973 0.044291649 0.886329949
vn -0.659796 0.0561441481 0.749344409
vn -0.483690411 -0.00862911996 0.875196576
vn -0.677651048 -0.0129740173 0.735269189
vn -0.686647892 -0.0937269405 0.720922947
vn -0.497679919 -0.0652930588 0.864899755
vn -0.559387803 -0.254829854 0.788762927
vn -0.506266773 -0.14659211 0.849826276
vn -0.302336663 -0.362954021 0.881394863
vn -0.378597975 -0.286807179 0.880002975
vn 0.0319889858 -0.37772727 0.925364137
vn 0.03818167 -0.407908142 0.912224233
vn 0.479821056 -0.296349943 0.82580173
vn 0.03818167 -0.407908142 0.912224233
vn 0.0319889858 -0.37772727 0.925364137
vn 0.367582142 -0.378002226 0.849704444
vn 0.589167774 -0.166317776 0.790708423
vn 0.674041927 -0.248069778 0.695793629
vn 0.780037761 -0.108399361 0.616271496
vn 0.600830197 -0.0857460648 0.794764459
vn 0.588574886 -0.0113928095 0.808362424
vn 0.786685109 -0.0151604284 0.617168307
vn 0.559678316 0.0431471132 0.827585936
vn 0.761062741 0.0521555841 0.646578074
vn 0.810406983 0.156464219 0.564587772
vn 0.588531435 0.0885109082 0.803614676
vn 0.572541893 0.383304417 0.724757493
vn 0.771315336 0.391705185 0.501637042
vn 0.0108513888 0.709308624 0.704814553
vn 0.0511628911 0.907324314 0.417306721
vn 0.0525668412 0.471186459 0.880465806
vn 0.180936307 0.582071364 0.792751491
vn 0.196494713 0.572155893 0.79625833
vn 0.299652249 0.419882894 0.856683671
vn 0.350374281 0.505630791 0.788400471
vn 0.0791010708 0.372560501 0.924630523
vn 0.451770544 0.419253111 0.787483394
vn 0.515453041 0.168946087 0.840098441
vn 0.478919595 0.409178704 0.776665151
vn 0.696637928 0.274991661 0.662627578
vn 0.683895051 0.0477761924 0.72801441
vn 0.681352258 0.0106879687 0.731877625
vn 0.550256193 -0.129364878 0.824913919
vn 0.687591076 -0.154078454 0.709562063
vn 0.584870815 -0.274336725 0.763325334
vn 0.572983921 -0.299078882 0.763047397
vn 0.399610639 -0.334209651 0.853589654
vn 0.511430204 -0.432499081 0.742552161
vn 0.270217121 -0.444260031 0.854175508
vn 0.227452219 -0.443913341 0.86672163
vn 0.273137093 0.324787021 0.905488551
vn 0.200597569 0.0248088371 0.979359508
vn 0.410489827 0.141493872 0.900820494
vn 0.439273953 -0.0948962048 0.893326938
vn 0.338490576 -0.264597654 0.903001726
vn 0.155612513 -0.350933224 0.923379958
vn 0.141828552 -0.436830431 0.888292611
vn 0.0973145738 -0.464969218 0.879962146
vn 0.0525668412 0.471186459 0.880465806
vn -0.000848622236 0.712245762 0.701929629
vn 0.180936307 0.582071364 0.792751491
vn -0.131718025 0.530401766 0.8374511
vn -0.143226773 0.32782805 0.933817446
vn -0.140830234 0.517040968 0.844295859
vn -0.251741916 0.480247766 0.840230942
vn -0.310871691 0.247794613 0.917581975
vn -0.317884803 0.222959653 0.921541214
vn -0.0640911683 0.267318428 0.961474478
vn 0.0791010708 0.372560501 0.924630523
vn 0.200597569 0.0248088371 0.979359508
vn -0.236320391 0.0346003659 0.971059024
vn -0.372277081 0.0723061338 0.925300837
vn -0.304055363 -0.132191628 0.943438172
vn -0.209947973 -0.214742571 0.953838289
vn -0.298512906 -0.157094985 0.941387951
vn -0.300992966 -0.22849983 0.925846159
vn -0.207200259 -0.308864653 0.928262174
vn -0.0649051592 -0.379486263 0.922917962
vn -0.186155662 -0.341155678 0.92138958
vn -0.0786910653 -0.455940336 0.886524796
vn 0.033190012 -0.48396033 0.87446028
vn -0.140802324 0.0424669161 0.989126503
vn -0.130861297 -0.153714389 0.979411662
vn -0.0217486806 -0.301636517 0.953174889
vn 0.155612513 -0.350933224 0.923379958
vn 0.141828552 -0.436830431 0.888292611
vn 0.0362336934 -0.479587227 0.87674576
vn 0.0973145738 -0.464969218 0.879962146
vn -0 -0.00717310002 -0.999974251
vn -0 1 0
vn -0.428334743 -0.332017064 0.840412974
vn -0.372049421 -0.394897282 0.840021133
vn -0 1 0
vn -0.28837496 -0.449494362 0.845455289
vn -0.519668996 -0.260421008 0.81371063
vn -0.428334743 -0.332017064 0.840412974
vn -0 1 0
vn -0.477810323 -0.261464536 0.838649869
vn -0.55537343 -0.18721953 0.810252488
vn -0.507915914 -0.188516632 0.840525389
vn -0.593911886 -0.0553777702 0.802621961
vn -0.527780712 -0.0724117607 0.846288323
vn -0.592360318 0.0668355674 0.802896202
vn -0.522388101 0.0338874348 0.852034271
vn -0.464893609 0.141769946 0.873942316
vn -0.518392682 0.16964069 0.838147342
vn -0.389874548 0.215809658 0.895222843
vn -0.416528821 0.233133361 0.878722191
vn -0.342772573 0.282374203 0.895975351
vn -0.333288461 0.257940739 0.906854689
vn -0.269061059 0.325782895 0.906350732
vn -0.262548834 0.303047538 0.916095138
vn -0.183191165 0.348903894 0.919079542
vn -0.176795512 0.334021389 0.925836444
vn -0.115332432 0.33922857 0.933607161
vn -0.296072155 0.212327704 0.931266963
vn -0.238842219 0.25032559 0.938238561
vn -0.326660752 0.182931364 0.927269638
vn -0.389874548 0.215809658 0.895222843
vn -0.116064928 -0.0315702595 0.992739737
vn -0.369481087 0.121789418 0.921222508
vn -0.464893609 0.141769946 0.873942316
vn -0.163412124 0.283174366 0.945044279
vn -0.418815374 0.022216538 0.907799661
vn -0.105645537 0.293388695 0.950137913
vn -0.522388101 0.0338874348 0.852034271
vn -0.10829182 0.335921377 0.935644031
vn -0.438281834 -0.0680410415 0.896258533
vn -0.527780712 -0.0724117607 0.846288323
vn -0.093385838 0.328549743 0.939858556
vn -0.100888945 0.318062991 0.9426862
vn -0.437231243 -0.163826466 0.884301782
vn -0.507915914 -0.188516632 0.840525389
vn -0.423335373 -0.229425251 0.876442373
vn -0.477810323 -0.261464536 0.838649869
vn -0.392315209 -0.289400756 0.873118579
vn -0.428334743 -0.332017064 0.840412974
vn -0.342330158 -0.348570734 0.872529984
vn -0.372049421 -0.394897282 0.840021133
vn -0.0894008502 0.296382159 0.950875998
vn -0.267634451 -0.391085893 0.880581439
vn -0.0649459735 0.278529108 0.958229482
vn -0.28837496 -0.449494362 0.845455289
vn -0.0681473985 0.311044186 0.947949052
vn -0.0825522542 0.30420804 0.949021935
vn -0.17324689 -0.424299151 0.888794541
vn -0.182194993 -0.488425136 0.853373289
vn -0.0237763356 0.278926432 0.960018039
vn -0.0361261703 0.289850175 0.956389904
vn -0.0852846578 -0.435003668 0.896380663
vn -0.0842688903 -0.501752138 0.860896945
vn -0.0129700219 -0.421855867 0.906570196
vn 0.00371760014 -0.495691031 0.868490994
vn 0.0199926533 -0.406836599 0.913282156
vn 0.0458555892 -0.479246259 0.876481771
vn 0.0499650389 -0.372514784 0.926680267
vn 0.0824720711 -0.436898887 0.895721853
vn -0.0181626529 0.230558023 0.972889125
vn 0.0847290978 -0.303463072 0.949068546
vn 0.00154676975 0.184264526 0.982875466
vn 0.123155862 -0.363504112 0.923416197
vn 0.00330408663 0.221914127 0.975060582
vn 0.0421034843 0.153149024 0.98730576
vn 0.0927829221 -0.2344376 0.967693269
vn 0.139290035 -0.293526828 0.945748568
vn 0.0220860504 0.12963897 0.991315246
vn 0.0817834139 0.0568930805 0.99502486
vn 0.0910907164 -0.143267825 0.98548305
vn 0.130771339 -0.198565543 0.971324146
vn 0.0458123498 0.0463981517 0.997871995
vn 0.102615766 -0.0343625546 0.994127393
vn 0.0841927752 -0.0797984153 0.993249059
vn 0.115222514 -0.11141599 0.987071574
vn 0.0677146316 -0.0265706182 0.997350931
vn -0 1 0
vn 0.0824720711 -0.436898887 0.895721853
vn 0.123155862 -0.363504112 0.923416197
vn -0 -1 0
vn -0 1 0
vn 0.0458555892 -0.479246259 0.876481771
vn 0.152761921 -0.30994457 0.938401878
vn -0 1 0
vn 0.123155862 -0.363504112 0.923416197
vn 0.139290035 -0.293526828 0.945748568
vn 0.13077049 -0.224573821 0.965642631
vn 0.130771339 -0.198565543 0.971324146
vn 0.11483074 -0.127281994 0.985197067
vn 0.115222514 -0.11141599 0.987071574
vn 0.118126184 -0.0202010423 0.992793083
vn 0.102615766 -0.0343625546 0.994127393
vn 0.103721566 0.0909151584 0.990442455
vn 0.0817834139 0.0568930805 0.99502486
vn 0.0460134335 0.175119072 0.983471394
vn 0.0421034843 0.153149024 0.98730576
vn 0.00330408663 0.221914127 0.975060582
vn -0.00868055038 0.239898622 0.970759213
vn 0.00371760014 -0.495691031 0.868490994
vn 0.0458555892 -0.479246259 0.876481771
vn -0 1 0
vn 0.383823782 -0.923406422 0
vn -0.0842688903 -0.501752138 0.860896945
vn 0.266097993 -0.963945985 0
vn -0.182194993 -0.488425136 0.853373289
vn -0.166523665 -0.00848194677 0.986000955
vn -0.28837496 -0.449494362 0.845455289
vn -0 1 0
vn 0.710498452 0.445113868 0.54503727
vn -0.0108599272 0.709284961 0.704838276
vn -0.0511721484 0.907299221 0.417360246
vn 0.500851691 0.403651476 0.765645564
vn 0.754191756 0.198262244 0.626008749
vn 0.507809341 0.113627553 0.853942871
vn 0.460928768 0.0442914627 0.886331201
vn 0.659799933 0.0561445318 0.749340951
vn 0.483687371 -0.00862885825 0.875198364
vn 0.67765218 -0.0129737956 0.735267997
vn 0.68664521 -0.0937267914 0.72092551
vn 0.497678012 -0.065292798 0.864900827
vn 0.559381604 -0.254827648 0.788768113
vn 0.50626421 -0.14659223 0.849827826
vn 0.302337408 -0.362953037 0.881394982
vn 0.378595293 -0.286803931 0.8800053
vn -0.0319863334 -0.37772429 0.925365448
vn -0.0381796844 -0.40790543 0.912225664
vn -0.479823232 -0.296347767 0.825801253
vn -0.0319863334 -0.37772429 0.925365448
vn -0.0381796844 -0.40790543 0.912225664
vn -0.367581278 -0.377997726 0.849706769
vn -0.589159966 -0.16631487 0.7907148
vn -0.67404145 -0.248067856 0.695794761
vn -0.780034542 -0.108397648 0.616275907
vn -0.600829959 -0.0857449546 0.794764876
vn -0.588575482 -0.011393154 0.808362007
vn -0.78668499 -0.0151612004 0.617168486
vn -0.559675336 0.0431468152 0.827587962
vn -0.761059225 0.052155003 0.646582365
vn -0.810418069 0.156466186 0.56457144
vn -0.588536322 0.0885120854 0.803610981
vn -0.572560251 0.38330698 0.724741757
vn -0.771330833 0.39170754 0.501611233
vn -0.0108599272 0.709284961 0.704838276
vn -0.0511721484 0.907299221 0.417360246
vn -0.0525658764 0.471183568 0.880467474
vn -0.196487904 0.572134197 0.796275556
vn -0.180929005 0.58204931 0.792769432
vn -0.299651623 0.419879586 0.856685519
vn -0.350375056 0.505630672 0.788400292
vn -0.0791008994 0.372560382 0.924630642
vn -0.451773375 0.419255197 0.787480772
vn -0.515454888 0.168946266 0.840097249
vn -0.478922367 0.409180522 0.776662469
vn -0.696637213 0.2749919 0.662628114
vn -0.683898211 0.0477764644 0.728011429
vn -0.681356013 0.0106879743 0.731874108
vn -0.550257206 -0.129364699 0.824913144
vn -0.687598467 -0.154080495 0.709554493
vn -0.584869862 -0.27433598 0.763326287
vn -0.572984219 -0.299079329 0.76304698
vn -0.399610072 -0.334208399 0.853590369
vn -0.511436284 -0.432503551 0.742545307
vn -0.270214766 -0.444255412 0.854178727
vn -0.227449864 -0.44390896 0.866724491
vn -0.273137331 0.324786782 0.905488551
vn -0.200588927 0.0248098429 0.979361355
vn -0.41049087 0.141493991 0.900820017
vn -0.439275116 -0.0948962569 0.893326461
vn -0.338490814 -0.264597625 0.903001666
vn -0.15561232 -0.350930691 0.923381031
vn -0.141827747 -0.436827809 0.888293982
vn -0.0973147452 -0.464970022 0.879961789
vn -0.0525658764 0.471183568 0.880467474
vn -0.180929005 0.58204931 0.792769432
vn 0.000848602329 0.712255776 0.701919556
vn 0.131717563 0.530402303 0.837450862
vn 0.143357784 0.3280029 0.933735847
vn 0.14082998 0.517041147 0.8442958
vn 0.252494514 0.479737937 0.840296447
vn 0.312724233 0.248807594 0.916677833
vn 0.319450378 0.224350691 0.920661867
vn 0.0640726611 0.267334133 0.961471379
vn -0.0791008994 0.372560382 0.924630642
vn -0.200588927 0.0248098429 0.979361355
vn 0.236548603 0.0346091203 0.971003056
vn 0.372377574 0.073232159 0.925187528
vn 0.304098845 -0.132250935 0.94341588
vn 0.209947705 -0.214767605 0.953832746
vn 0.298543781 -0.157146677 0.941369414
vn 0.300997704 -0.22850436 0.925843537
vn 0.207200721 -0.308863997 0.928262293
vn 0.064904891 -0.379484475 0.922918677
vn 0.186155185 -0.341154635 0.921390176
vn 0.0786911175 -0.45593816 0.886525929
vn -0.0331900008 -0.483959764 0.874460638
vn 0.14081195 0.042465616 0.989125133
vn 0.130843252 -0.153739408 0.979410172
vn 0.021748893 -0.301633894 0.953175724
vn -0.15561232 -0.350930691 0.923381031
vn -0.141827747 -0.436827809 0.888293982
vn -0.0362337008 -0.479587555 0.876745582
vn -0.0973147452 -0.464970022 0.879961789
vn 0.00132541009 -0.0864518136 0.996255159
vn -0.0319863334 -0.37772429 0.925365448
vn -0.479823232 -0.296347767 0.825801253
vn -0.589159966 -0.16631487 0.7907148
vn 0.378595293 -0.286803931 0.8800053
vn 0.50626421 -0.14659223 0.849827826
vn -0.600829959 -0.0857449546 0.794764876
vn 0.497678012 -0.065292798 0.864900827
vn 0.00951642636 -0.0652255714 0.997825146
vn -0.00117725739 -0.00734854396 0.999972343
vn -0.588575482 -0.011393154 0.808362007
vn 0.483687371 -0.00862885825 0.875198364
vn 0.460928768 0.0442914627 0.886331201
vn -0.559675336 0.0431468152 0.827587962
vn 0.00406608358 0.0393468328 0.999217391
vn 0.507809341 0.113627553 0.853942871
vn 0.00555385323 0.041922342 0.999105394
vn -0.588536322 0.0885120854 0.803610981
vn 0.500851691 0.403651476 0.765645564
vn -0.572560251 0.38330698 0.724741757
vn -0.0108599272 0.709284961 0.704838276
vn -0.00555449026 0.0419226959 0.999105394
vn 0.0108513888 0.709308624 0.704814553
vn 0.572541893 0.383304417 0.724757493
vn 0.588531435 0.0885109082 0.803614676
vn -0.500858426 0.403666645 0.765633047
vn -0.507809043 0.113626383 0.853943229
vn 0.559678316 0.0431471132 0.827585936
vn -0.460930973 0.044291649 0.886329949
vn -0.00406352384 0.0393472575 0.999217391
vn 0.00117987976 -0.00734877586 0.999972343
vn 0.588574886 -0.0113928095 0.808362424
vn -0.483690411 -0.00862911996 0.875196576
vn -0.497679919 -0.0652930588 0.864899755
vn 0.600830197 -0.0857460648 0.794764459
vn -0.00951462612 -0.0652264506 0.997825146
vn -0.506266773 -0.14659211 0.849826276
vn -0.00131515635 -0.0864514336 0.996255159
vn 0.589167774 -0.166317776 0.790708423
vn -0.378597975 -0.286807179 0.880002975
vn 0.479821056 -0.296349943 0.82580173
vn 0.0319889858 -0.37772727 0.925364137
vn -0.480424374 0.0794296786 0.873431921
vn -0.475177646 0.0793602914 0.876303792
vn -0.455052286 0.092798695 0.885616004
vn -0.513758361 0.0613076203 0.85574156
vn -0.463917404 0.0801147819 0.882248461
vn -0.536131144 0.048769854 0.842724621
vn -0.48915717 0.0631985366 0.869902909
vn -0.534441352 0.0496738665 0.843744576
vn -0.516192198 0.0575938895 0.854534149
vn 0.346839219 0.103795275 0.932163656
vn 0.352069795 0.073384285 0.933092535
vn 0.347760707 0.0925210416 0.933007181
vn 0.349303305 0.0998776332 0.931671381
vn 0.351665169 0.0711678341 0.933416784
vn 0.353111565 0.0861364976 0.931607664
vn 0.355845958 0.055541344 0.932892621
vn 0.355739117 0.0705215558 0.931920826
vn 0.357606441 0.0551592708 0.932241976
vn -0.455052286 0.092798695 0.885616004
vn -0.493991882 0.0720634237 0.866474926
vn -0.480424374 0.0794296786 0.873431921
vn -0.463917404 0.0801147819 0.882248461
vn -0.513758361 0.0613076203 0.85574156
vn -0.48915717 0.0631985366 0.869902909
vn -0.536131144 0.048769854 0.842724621
vn -0.516192198 0.0575938895 0.854534149
vn -0.534441352 0.0496738665 0.843744576
vn 0.347760707 0.0925210416 0.933007181
vn 0.352359712 0.0795498639 0.932477534
vn 0.346839219 0.103795275 0.932163656
vn 0.351665169 0.0711678341 0.933416784
vn 0.349303305 0.0998776332 0.931671381
vn 0.355845958 0.055541344 0.932892621
vn 0.353111565 0.0861364976 0.931607664
vn 0.357606441 0.0551592708 0.932241976
vn 0.355739117 0.0705215558 0.931920826
g Eye_0
f 3/3/3 2/2/2 1/1/1
f 3/3/3 1/1/1 4/4/4
f 4/4/4 1/1/1 5/5/5
f 4/4/4 5/5/5 6/6/6
f 6/6/6 5/5/5 7/7/7
f 8/8/8 1/1/1 2/2/2
f 7/7/7 5/5/5 9/9/9
f 8/8/8 10/10/10 1/1/1
f 10/10/10 11/11/11 1/1/1
f 12/12/12 10/10/10 8/8/8
f 10/10/10 12/12/12 13/13/13
f 10/10/10 13/13/13 11/11/11
f 13/13/13 14/14/14 11/11/11
f 14/14/14 15/15/15 11/11/11
f 9/9/9 5/5/5 16/16/16
f 9/9/9 16/16/16 17/17/17
f 16/16/16 18/18/18 17/17/17
f 5/5/5 1/1/1 19/19/19
f 11/11/11 19/19/19 1/1/1
f 20/20/20 19/19/19 11/11/11
f 20/20/20 11/11/11 21/21/21
f 15/15/15 21/21/21 11/11/11
f 22/22/22 19/19/19 20/20/20
f 22/22/22 5/5/5 19/19/19
f 5/5/5 22/22/22 16/16/16
f 15/15/15 23/23/23 21/21/21
f 23/23/23 24/24/24 21/21/21
f 24/24/24 25/25/25 21/21/21
f 25/25/25 26/26/26 21/21/21
f 20/20/20 21/21/21 26/26/26
f 25/25/25 27/27/27 26/26/26
f 27/27/27 28/28/28 26/26/26
f 28/28/28 29/29/29 26/26/26
f 29/29/29 30/30/30 26/26/26
f 20/20/20 26/26/26 30/30/30
f 29/29/29 31/31/31 30/30/30
f 31/31/31 32/32/32 30/30/30
f 32/32/32 33/33/33 30/30/30
f 33/33/33 34/34/34 30/30/30
f 20/20/20 30/30/30 34/34/34
f 33/33/33 35/35/35 34/34/34
f 35/35/35 36/36/36 34/34/34
f 36/36/36 37/37/37 34/34/34
f 37/37/37 38/38/38 34/34/34
f 20/20/20 34/34/34 38/38/38
f 37/37/37 39/39/39 38/38/38
f 39/39/39 40/40/40 38/38/38
f 40/40/40 41/41/41 38/38/38
f 41/41/41 42/42/42 38/38/38
f 20/20/20 38/38/38 42/42/42
f 41/41/41 43/43/43 42/42/42
f 44/44/44 20/20/20 42/42/42
f 20/20/20 44/44/44 22/22/22
f 22/22/22 44/44/44 16/16/16
f 43/43/43 45/45/45 42/42/42
f 44/44/44 42/42/42 45/45/45
f 16/16/16 44/44/44 45/45/45
f 43/43/43 46/46/46 45/45/45
f 45/45/45 18/18/18 16/16/16
f 45/45/45 46/46/46 18/18/18
f 49/49/49 48/48/48 47/47/47
f 50/50/50 48/48/48 49/49/49
f 50/50/50 51/51/51 48/48/48
f 52/52/52 51/51/51 50/50/50
f 53/53/53 49/49/49 47/47/47
f 50/50/50 54/54/54 52/52/52
f 55/55/55 54/54/54 50/50/50
f 55/55/55 56/56/56 54/54/54
f 55/55/55 57/57/57 56/56/56
f 55/55/55 58/58/58 57/57/57
f 53/53/53 59/59/59 49/49/49
f 59/59/59 60/60/60 49/49/49
f 61/61/61 59/59/59 53/53/53
f 59/59/59 61/61/61 62/62/62
f 59/59/59 62/62/62 60/60/60
f 62/62/62 63/63/63 60/60/60
f 63/63/63 64/64/64 60/60/60
f 50/50/50 49/49/49 65/65/65
f 60/60/60 65/65/65 49/49/49
f 66/66/66 65/65/65 60/60/60
f 66/66/66 60/60/60 67/67/67
f 64/64/64 67/67/67 60/60/60
f 68/68/68 65/65/65 66/66/66
f 68/68/68 50/50/50 65/65/65
f 50/50/50 68/68/68 55/55/55
f 64/64/64 69/69/69 67/67/67
f 69/69/69 70/70/70 67/67/67
f 70/70/70 71/71/71 67/67/67
f 71/71/71 72/72/72 67/67/67
f 66/66/66 67/67/67 72/72/72
f 71/71/71 73/73/73 72/72/72
f 73/73/73 74/74/74 72/72/72
f 74/74/74 75/75/75 72/72/72
f 75/75/75 76/76/76 72/72/72
f 66/66/66 72/72/72 76/76/76
f 75/75/75 77/77/77 76/76/76
f 77/77/77 78/78/78 76/76/76
f 78/78/78 79/79/79 76/76/76
f 79/79/79 80/80/80 76/76/76
f 66/66/66 76/76/76 80/80/80
f 79/79/79 81/81/81 80/80/80
f 81/81/81 82/82/82 80/80/80
f 82/82/82 83/83/83 80/80/80
f 83/83/83 84/84/84 80/80/80
f 66/66/66 80/80/80 84/84/84
f 83/83/83 85/85/85 84/84/84
f 85/85/85 86/86/86 84/84/84
f 86/86/86 87/87/87 84/84/84
f 87/87/87 88/88/88 84/84/84
f 66/66/66 84/84/84 88/88/88
f 87/87/87 89/89/89 88/88/88
f 90/90/90 66/66/66 88/88/88
f 66/66/66 90/90/90 68/68/68
f 68/68/68 90/90/90 55/55/55
f 89/89/89 91/91/91 88/88/88
f 90/90/90 88/88/88 91/91/91
f 55/55/55 90/90/90 91/91/91
f 89/89/89 92/92/92 91/91/91
f 91/91/91 58/58/58 55/55/55
f 91/91/91 92/92/92 58/58/58
g Eye_1
f 95/95/95 94/94/94 93/93/93
f 94/94/94 96/96/96 93/93/93
f 97/97/97 93/93/93 96/96/96
f 98/98/98 97/97/97 96/96/96
f 101/101/101 100/100/100 99/99/99
f 102/102/102 101/101/101 99/99/99
f 99/99/99 103/103/103 102/102/102
f 103/103/103 104/104/104 102/102/102
f 103/103/103 105/105/105 104/104/104
f 105/105/105 106/106/106 104/104/104
f 105/105/105 107/107/107 106/106/106
f 107/107/107 108/108/108 106/106/106
f 109/109/109 108/108/108 107/107/107
f 110/110/110 109/109/109 107/107/107
f 111/111/111 109/109/109 110/110/110
f 112/112/112 111/111/111 110/110/110
f 111/111/111 112/112/112 113/113/113
f 114/114/114 111/111/111 113/113/113
f 114/114/114 113/113/113 115/115/115
f 116/116/116 114/114/114 115/115/115
f 115/115/115 117/117/117 116/116/116
f 117/117/117 118/118/118 116/116/116
f 117/117/117 119/119/119 118/118/118
f 114/114/114 116/116/116 120/120/120
f 116/116/116 118/118/118 121/121/121
f 120/120/120 116/116/116 121/121/121
f 122/122/122 114/114/114 120/120/120
f 123/123/123 114/114/114 122/122/122
f 120/120/120 121/121/121 124/124/124
f 122/122/122 120/120/120 124/124/124
f 125/125/125 123/123/123 122/122/122
f 125/125/125 122/122/122 124/124/124
f 126/126/126 123/123/123 125/125/125
f 121/121/121 127/127/127 124/124/124
f 121/121/121 118/118/118 127/127/127
f 128/128/128 125/125/125 124/124/124
f 128/128/128 126/126/126 125/125/125
f 127/127/127 129/129/129 124/124/124
f 130/130/130 126/126/126 128/128/128
f 118/118/118 131/131/131 127/127/127
f 127/127/127 131/131/131 129/129/129
f 119/119/119 131/131/131 118/118/118
f 132/132/132 130/130/130 128/128/128
f 132/132/132 128/128/128 124/124/124
f 133/133/133 130/130/130 132/132/132
f 131/131/131 119/119/119 134/134/134
f 131/131/131 134/134/134 129/129/129
f 119/119/119 135/135/135 134/134/134
f 136/136/136 133/133/133 132/132/132
f 136/136/136 132/132/132 124/124/124
f 137/137/137 133/133/133 136/136/136
f 138/138/138 137/137/137 136/136/136
f 138/138/138 136/136/136 124/124/124
f 139/139/139 137/137/137 138/138/138
f 140/140/140 139/139/139 138/138/138
f 140/140/140 138/138/138 124/124/124
f 141/141/141 139/139/139 140/140/140
f 142/142/142 141/141/141 140/140/140
f 142/142/142 140/140/140 124/124/124
f 143/143/143 141/141/141 142/142/142
f 129/129/129 144/144/144 124/124/124
f 129/129/129 134/134/134 144/144/144
f 145/145/145 142/142/142 124/124/124
f 145/145/145 143/143/143 142/142/142
f 144/144/144 146/146/146 124/124/124
f 147/147/147 143/143/143 145/145/145
f 134/134/134 148/148/148 144/144/144
f 144/144/144 148/148/148 146/146/146
f 134/134/134 135/135/135 148/148/148
f 135/135/135 149/149/149 148/148/148
f 150/150/150 147/147/147 145/145/145
f 150/150/150 145/145/145 124/124/124
f 151/151/151 147/147/147 150/150/150
f 152/152/152 148/148/148 149/149/149
f 148/148/148 152/152/152 146/146/146
f 153/153/153 152/152/152 149/149/149
f 154/154/154 151/151/151 150/150/150
f 154/154/154 150/150/150 124/124/124
f 155/155/155 151/151/151 154/154/154
f 156/156/156 155/155/155 154/154/154
f 156/156/156 154/154/154 124/124/124
f 157/157/157 155/155/155 156/156/156
f 158/158/158 157/157/157 156/156/156
f 158/158/158 156/156/156 124/124/124
f 159/159/159 157/157/157 158/158/158
f 160/160/160 159/159/159 158/158/158
f 160/160/160 158/158/158 124/124/124
f 161/161/161 159/159/159 160/160/160
f 146/146/146 162/162/162 124/124/124
f 146/146/146 152/152/152 162/162/162
f 163/163/163 160/160/160 124/124/124
f 163/163/163 161/161/161 160/160/160
f 162/162/162 164/164/164 124/124/124
f 165/165/165 161/161/161 163/163/163
f 152/152/152 166/166/166 162/162/162
f 162/162/162 166/166/166 164/164/164
f 166/166/166 167/167/167 164/164/164
f 168/168/168 165/165/165 163/163/163
f 168/168/168 163/163/163 124/124/124
f 169/169/169 165/165/165 168/168/168
f 164/164/164 167/167/167 170/170/170
f 164/164/164 170/170/170 124/124/124
f 167/167/167 171/171/171 170/170/170
f 172/172/172 169/169/169 168/168/168
f 172/172/172 168/168/168 124/124/124
f 173/173/173 169/169/169 172/172/172
f 170/170/170 171/171/171 174/174/174
f 170/170/170 174/174/174 124/124/124
f 171/171/171 175/175/175 174/174/174
f 176/176/176 173/173/173 172/172/172
f 176/176/176 172/172/172 124/124/124
f 177/177/177 173/173/173 176/176/176
f 174/174/174 178/178/178 124/124/124
f 174/174/174 175/175/175 178/178/178
f 178/178/178 176/176/176 124/124/124
f 175/175/175 177/177/177 178/178/178
f 178/178/178 177/177/177 176/176/176
f 181/181/181 180/180/180 179/179/179
f 182/182/182 181/181/181 179/179/179
f 181/181/181 182/182/182 183/183/183
f 184/184/184 181/181/181 183/183/183
f 187/187/187 186/186/186 185/185/185
f 186/186/186 188/188/188 185/185/185
f 189/189/189 185/185/185 188/188/188
f 190/190/190 189/189/189 188/188/188
f 191/191/191 189/189/189 190/190/190
f 192/192/192 191/191/191 190/190/190
f 191/191/191 192/192/192 193/193/193
f 192/192/192 194/194/194 193/193/193
f 195/195/195 193/193/193 194/194/194
f 196/196/196 195/195/195 194/194/194
f 195/195/195 196/196/196 197/197/197
f 196/196/196 198/198/198 197/197/197
f 198/198/198 199/199/199 197/197/197
f 199/199/199 200/200/200 197/197/197
f 200/200/200 199/199/199 153/153/153
f 199/199/199 152/152/152 153/153/153
f 203/203/203 202/202/202 201/201/201
f 202/202/202 204/204/204 201/201/201
f 201/201/201 204/204/204 205/205/205
f 204/204/204 206/206/206 205/205/205
f 205/205/205 206/206/206 207/207/207
f 206/206/206 208/208/208 207/207/207
f 207/207/207 208/208/208 209/209/209
f 208/208/208 210/210/210 209/209/209
f 213/213/213 212/212/212 211/211/211
f 214/214/214 213/213/213 211/211/211
f 214/214/214 211/211/211 215/215/215
f 216/216/216 214/214/214 215/215/215
f 217/217/217 216/216/216 215/215/215
f 218/218/218 217/217/217 215/215/215
f 217/217/217 218/218/218 219/219/219
f 218/218/218 220/220/220 219/219/219
f 219/219/219 220/220/220 221/221/221
f 222/222/222 219/219/219 221/221/221
f 222/222/222 221/221/221 223/223/223
f 224/224/224 222/222/222 223/223/223
f 224/224/224 223/223/223 225/225/225
f 226/226/226 224/224/224 225/225/225
f 226/226/226 225/225/225 227/227/227
f 225/225/225 228/228/228 227/227/227
f 231/231/231 230/230/230 229/229/229
f 230/230/230 232/232/232 229/229/229
f 229/229/229 232/232/232 233/233/233
f 232/232/232 234/234/234 233/233/233
f 233/233/233 234/234/234 235/235/235
f 236/236/236 233/233/233 235/235/235
f 237/237/237 236/236/236 235/235/235
f 238/238/238 237/237/237 235/235/235
f 237/237/237 238/238/238 239/239/239
f 238/238/238 240/240/240 239/239/239
f 239/239/239 240/240/240 241/241/241
f 239/239/239 241/241/241 242/242/242
f 242/242/242 241/241/241 243/243/243
f 241/241/241 244/244/244 243/243/243
f 243/243/243 244/244/244 245/245/245
f 244/244/244 246/246/246 245/245/245
f 249/249/249 248/248/248 247/247/247
f 250/250/250 249/249/249 247/247/247
f 251/251/251 249/249/249 250/250/250
f 250/250/250 247/247/247 252/252/252
f 250/250/250 253/253/253 251/251/251
f 250/250/250 254/254/254 253/253/253
f 254/254/254 255/255/255 253/253/253
f 255/255/255 254/254/254 256/256/256
f 256/256/256 254/254/254 257/257/257
f 258/258/258 257/257/257 254/254/254
f 259/259/259 258/258/258 254/254/254
f 259/259/259 260/260/260 258/258/258
f 261/261/261 260/260/260 259/259/259
f 262/262/262 261/261/261 259/259/259
f 263/263/263 262/262/262 259/259/259
f 263/263/263 264/264/264 262/262/262
f 263/263/263 265/265/265 264/264/264
f 266/266/266 265/265/265 263/263/263
f 250/250/250 267/267/267 254/254/254
f 267/267/267 250/250/250 252/252/252
f 267/267/267 252/252/252 268/268/268
f 267/267/267 269/269/269 254/254/254
f 259/259/259 254/254/254 269/269/269
f 267/267/267 268/268/268 269/269/269
f 270/270/270 259/259/259 269/269/269
f 270/270/270 269/269/269 268/268/268
f 263/263/263 259/259/259 270/270/270
f 271/271/271 270/270/270 268/268/268
f 271/271/271 263/263/263 270/270/270
f 272/272/272 271/271/271 268/268/268
f 272/272/272 273/273/273 271/271/271
f 273/273/273 263/263/263 271/271/271
f 273/273/273 266/266/266 263/263/263
f 274/274/274 266/266/266 273/273/273
f 277/277/277 276/276/276 275/275/275
f 276/276/276 278/278/278 275/275/275
f 279/279/279 275/275/275 278/278/278
f 280/280/280 279/279/279 278/278/278
f 281/281/281 279/279/279 280/280/280
f 279/279/279 281/281/281 282/282/282
f 279/279/279 282/282/282 283/283/283
f 279/279/279 284/284/284 275/275/275
f 284/284/284 285/285/285 275/275/275
f 284/284/284 286/286/286 285/285/285
f 287/287/287 279/279/279 283/283/283
f 287/287/287 283/283/283 288/288/288
f 288/288/288 289/289/289 287/287/287
f 290/290/290 287/287/287 289/289/289
f 291/291/291 290/290/290 289/289/289
f 291/291/291 292/292/292 290/290/290
f 292/292/292 293/293/293 290/290/290
f 294/294/294 290/290/290 293/293/293
f 295/295/295 294/294/294 293/293/293
f 296/296/296 294/294/294 295/295/295
f 296/296/296 297/297/297 294/294/294
f 298/298/298 284/284/284 279/279/279
f 287/287/287 298/298/298 279/279/279
f 298/298/298 286/286/286 284/284/284
f 299/299/299 298/298/298 287/287/287
f 290/290/290 299/299/299 287/287/287
f 299/299/299 286/286/286 298/298/298
f 300/300/300 299/299/299 290/290/290
f 300/300/300 286/286/286 299/299/299
f 294/294/294 300/300/300 290/290/290
f 300/300/300 301/301/301 286/286/286
f 300/300/300 294/294/294 301/301/301
f 294/294/294 302/302/302 301/301/301
f 294/294/294 297/297/297 302/302/302
f 297/297/297 303/303/303 302/302/302
f 303/303/303 304/304/304 302/302/302
f 307/307/307 306/306/306 305/305/305
f 308/308/308 307/307/307 305/305/305
f 305/305/305 309/309/309 308/308/308
f 309/309/309 310/310/310 308/308/308
f 313/313/313 312/312/312 311/311/311
f 312/312/312 314/314/314 311/311/311
f 315/315/315 311/311/311 314/314/314
f 316/316/316 315/315/315 314/314/314
f 317/317/317 315/315/315 316/316/316
f 318/318/318 317/317/317 316/316/316
f 319/319/319 317/317/317 318/318/318
f 320/320/320 319/319/319 318/318/318
f 320/320/320 321/321/321 319/319/319
f 321/321/321 322/322/322 319/319/319
f 321/321/321 323/323/323 322/322/322
f 323/323/323 324/324/324 322/322/322
f 324/324/324 323/323/323 325/325/325
f 323/323/323 326/326/326 325/325/325
f 325/325/325 326/326/326 327/327/327
f 326/326/326 328/328/328 327/327/327
f 329/329/329 327/327/327 328/328/328
f 330/330/330 329/329/329 328/328/328
f 331/331/331 329/329/329 330/330/330
f 328/328/328 326/326/326 332/332/332
f 330/330/330 328/328/328 333/333/333
f 333/333/333 328/328/328 332/332/332
f 332/332/332 326/326/326 334/334/334
f 326/326/326 335/335/335 334/334/334
f 333/333/333 332/332/332 336/336/336
f 332/332/332 334/334/334 336/336/336
f 334/334/334 335/335/335 337/337/337
f 334/334/334 337/337/337 336/336/336
f 335/335/335 338/338/338 337/337/337
f 339/339/339 333/333/333 336/336/336
f 339/339/339 330/330/330 333/333/333
f 337/337/337 340/340/340 336/336/336
f 337/337/337 338/338/338 340/340/340
f 341/341/341 339/339/339 336/336/336
f 338/338/338 342/342/342 340/340/340
f 343/343/343 330/330/330 339/339/339
f 343/343/343 331/331/331 330/330/330
f 341/341/341 343/343/343 339/339/339
f 340/340/340 342/342/342 344/344/344
f 340/340/340 344/344/344 336/336/336
f 342/342/342 345/345/345 344/344/344
f 331/331/331 343/343/343 346/346/346
f 346/346/346 343/343/343 341/341/341
f 347/347/347 331/331/331 346/346/346
f 344/344/344 345/345/345 348/348/348
f 344/344/344 348/348/348 336/336/336
f 345/345/345 349/349/349 348/348/348
f 348/348/348 349/349/349 350/350/350
f 348/348/348 350/350/350 336/336/336
f 349/349/349 351/351/351 350/350/350
f 350/350/350 351/351/351 352/352/352
f 350/350/350 352/352/352 336/336/336
f 351/351/351 353/353/353 352/352/352
f 352/352/352 353/353/353 354/354/354
f 352/352/352 354/354/354 336/336/336
f 353/353/353 355/355/355 354/354/354
f 356/356/356 341/341/341 336/336/336
f 356/356/356 346/346/346 341/341/341
f 354/354/354 357/357/357 336/336/336
f 354/354/354 355/355/355 357/357/357
f 358/358/358 356/356/356 336/336/336
f 355/355/355 359/359/359 357/357/357
f 360/360/360 346/346/346 356/356/356
f 358/358/358 360/360/360 356/356/356
f 347/347/347 346/346/346 360/360/360
f 361/361/361 347/347/347 360/360/360
f 357/357/357 359/359/359 362/362/362
f 357/357/357 362/362/362 336/336/336
f 359/359/359 363/363/363 362/362/362
f 360/360/360 364/364/364 361/361/361
f 364/364/364 360/360/360 358/358/358
f 364/364/364 365/365/365 361/361/361
f 362/362/362 363/363/363 366/366/366
f 362/362/362 366/366/366 336/336/336
f 363/363/363 367/367/367 366/366/366
f 366/366/366 367/367/367 368/368/368
f 366/366/366 368/368/368 336/336/336
f 367/367/367 369/369/369 368/368/368
f 368/368/368 369/369/369 370/370/370
f 368/368/368 370/370/370 336/336/336
f 369/369/369 371/371/371 370/370/370
f 370/370/370 371/371/371 372/372/372
f 370/370/370 372/372/372 336/336/336
f 371/371/371 373/373/373 372/372/372
f 374/374/374 358/358/358 336/336/336
f 374/374/374 364/364/364 358/358/358
f 372/372/372 375/375/375 336/336/336
f 372/372/372 373/373/373 375/375/375
f 376/376/376 374/374/374 336/336/336
f 373/373/373 377/377/377 375/375/375
f 378/378/378 364/364/364 374/374/374
f 376/376/376 378/378/378 374/374/374
f 379/379/379 378/378/378 376/376/376
f 375/375/375 377/377/377 380/380/380
f 375/375/375 380/380/380 336/336/336
f 377/377/377 381/381/381 380/380/380
f 382/382/382 379/379/379 376/376/376
f 382/382/382 376/376/376 336/336/336
f 383/383/383 379/379/379 382/382/382
f 380/380/380 381/381/381 384/384/384
f 380/380/380 384/384/384 336/336/336
f 381/381/381 385/385/385 384/384/384
f 386/386/386 383/383/383 382/382/382
f 386/386/386 382/382/382 336/336/336
f 387/387/387 383/383/383 386/386/386
f 384/384/384 385/385/385 388/388/388
f 384/384/384 388/388/388 336/336/336
f 385/385/385 389/389/389 388/388/388
f 390/390/390 386/386/386 336/336/336
f 390/390/390 387/387/387 386/386/386
f 388/388/388 390/390/390 336/336/336
f 389/389/389 387/387/387 390/390/390
f 388/388/388 389/389/389 390/390/390
f 393/393/393 392/392/392 391/391/391
f 392/392/392 394/394/394 391/391/391
f 394/394/394 392/392/392 395/395/395
f 392/392/392 396/396/396 395/395/395
f 399/399/399 398/398/398 397/397/397
f 400/400/400 399/399/399 397/397/397
f 397/397/397 401/401/401 400/400/400
f 401/401/401 402/402/402 400/400/400
f 401/401/401 403/403/403 402/402/402
f 403/403/403 404/404/404 402/402/402
f 404/404/404 403/403/403 405/405/405
f 406/406/406 404/404/404 405/405/405
f 405/405/405 407/407/407 406/406/406
f 407/407/407 408/408/408 406/406/406
f 408/408/408 407/407/407 409/409/409
f 410/410/410 408/408/408 409/409/409
f 411/411/411 410/410/410 409/409/409
f 412/412/412 411/411/411 409/409/409
f 411/411/411 412/412/412 365/365/365
f 364/364/364 411/411/411 365/365/365
f 415/415/415 414/414/414 413/413/413
f 416/416/416 415/415/415 413/413/413
f 416/416/416 413/413/413 417/417/417
f 418/418/418 416/416/416 417/417/417
f 418/418/418 417/417/417 419/419/419
f 420/420/420 418/418/418 419/419/419
f 420/420/420 419/419/419 421/421/421
f 422/422/422 420/420/420 421/421/421
f 425/425/425 424/424/424 423/423/423
f 424/424/424 426/426/426 423/423/423
f 423/423/423 426/426/426 427/427/427
f 426/426/426 428/428/428 427/427/427
f 428/428/428 429/429/429 427/427/427
f 429/429/429 430/430/430 427/427/427
f 430/430/430 429/429/429 431/431/431
f 432/432/432 430/430/430 431/431/431
f 432/432/432 431/431/431 433/433/433
f 431/431/431 434/434/434 433/433/433
f 433/433/433 434/434/434 435/435/435
f 434/434/434 436/436/436 435/435/435
f 435/435/435 436/436/436 437/437/437
f 436/436/436 438/438/438 437/437/437
f 437/437/437 438/438/438 439/439/439
f 440/440/440 437/437/437 439/439/439
f 443/443/443 442/442/442 441/441/441
f 444/444/444 443/443/443 441/441/441
f 444/444/444 441/441/441 445/445/445
f 446/446/446 444/444/444 445/445/445
f 446/446/446 445/445/445 447/447/447
f 445/445/445 448/448/448 447/447/447
f 448/448/448 449/449/449 447/447/447
f 449/449/449 450/450/450 447/447/447
f 450/450/450 449/449/449 451/451/451
f 452/452/452 450/450/450 451/451/451
f 453/453/453 452/452/452 451/451/451
f 453/453/453 451/451/451 454/454/454
f 453/453/453 454/454/454 455/455/455
f 456/456/456 453/453/453 455/455/455
f 456/456/456 455/455/455 457/457/457
f 458/458/458 456/456/456 457/457/457
f 461/461/461 460/460/460 459/459/459
f 460/460/460 462/462/462 459/459/459
f 460/460/460 463/463/463 462/462/462
f 459/459/459 462/462/462 464/464/464
f 465/465/465 462/462/462 463/463/463
f 466/466/466 462/462/462 465/465/465
f 467/467/467 466/466/466 465/465/465
f 466/466/466 467/467/467 468/468/468
f 466/466/466 468/468/468 469/469/469
f 469/469/469 470/470/470 466/466/466
f 470/470/470 471/471/471 466/466/466
f 472/472/472 471/471/471 470/470/470
f 472/472/472 473/473/473 471/471/471
f 473/473/473 474/474/474 471/471/471
f 474/474/474 475/475/475 471/471/471
f 476/476/476 475/475/475 474/474/474
f 477/477/477 475/475/475 476/476/476
f 477/477/477 478/478/478 475/475/475
f 479/479/479 462/462/462 466/466/466
f 462/462/462 479/479/479 464/464/464
f 464/464/464 479/479/479 480/480/480
f 481/481/481 479/479/479 466/466/466
f 466/466/466 471/471/471 481/481/481
f 480/480/480 479/479/479 481/481/481
f 471/471/471 482/482/482 481/481/481
f 481/481/481 482/482/482 480/480/480
f 471/471/471 475/475/475 482/482/482
f 482/482/482 483/483/483 480/480/480
f 475/475/475 483/483/483 482/482/482
f 483/483/483 484/484/484 480/480/480
f 485/485/485 484/484/484 483/483/483
f 475/475/475 485/485/485 483/483/483
f 478/478/478 485/485/485 475/475/475
f 478/478/478 486/486/486 485/485/485
f 489/489/489 488/488/488 487/487/487
f 490/490/490 489/489/489 487/487/487
f 487/487/487 491/491/491 490/490/490
f 491/491/491 492/492/492 490/490/490
f 491/491/491 493/493/493 492/492/492
f 493/493/493 491/491/491 494/494/494
f 494/494/494 491/491/491 495/495/495
f 496/496/496 491/491/491 487/487/487
f 497/497/497 496/496/496 487/487/487
f 498/498/498 496/496/496 497/497/497
f 491/491/491 499/499/499 495/495/495
f 495/495/495 499/499/499 500/500/500
f 501/501/501 500/500/500 499/499/499
f 499/499/499 502/502/502 501/501/501
f 502/502/502 503/503/503 501/501/501
f 504/504/504 503/503/503 502/502/502
f 505/505/505 504/504/504 502/502/502
f 502/502/502 506/506/506 505/505/505
f 506/506/506 507/507/507 505/505/505
f 506/506/506 508/508/508 507/507/507
f 509/509/509 508/508/508 506/506/506
f 496/496/496 510/510/510 491/491/491
f 510/510/510 499/499/499 491/491/491
f 498/498/498 510/510/510 496/496/496
f 510/510/510 511/511/511 499/499/499
f 511/511/511 502/502/502 499/499/499
f 498/498/498 511/511/511 510/510/510
f 511/511/511 512/512/512 502/502/502
f 498/498/498 512/512/512 511/511/511
f 512/512/512 506/506/506 502/502/502
f 513/513/513 512/512/512 498/498/498
f 506/506/506 512/512/512 513/513/513
f 514/514/514 506/506/506 513/513/513
f 509/509/509 506/506/506 514/514/514
f 515/515/515 509/509/509 514/514/514
f 516/516/516 515/515/515 514/514/514
f 519/519/519 518/518/518 517/517/517
f 520/520/520 519/519/519 517/517/517
f 517/517/517 518/518/518 521/521/521
f 517/517/517 521/521/521 522/522/522
f 520/520/520 517/517/517 523/523/523
f 517/517/517 522/522/522 524/524/524
f 517/517/517 525/525/525 523/523/523
f 525/525/525 517/517/517 524/524/524
f 525/525/525 526/526/526 523/523/523
f 525/525/525 524/524/524 526/526/526
f 526/526/526 527/527/527 523/523/523
f 524/524/524 528/528/528 526/526/526
f 528/528/528 529/529/529 526/526/526
f 527/527/527 526/526/526 530/530/530
f 529/529/529 531/531/531 526/526/526
f 526/526/526 531/531/531 530/530/530
f 529/529/529 532/532/532 531/531/531
f 531/531/531 533/533/533 530/530/530
f 532/532/532 533/533/533 531/531/531
f 533/533/533 534/534/534 530/530/530
f 532/532/532 535/535/535 533/533/533
f 533/533/533 536/536/536 534/534/534
f 535/535/535 537/537/537 533/533/533
f 533/533/533 537/537/537 536/536/536
f 540/540/540 539/539/539 538/538/538
f 541/541/541 540/540/540 538/538/538
f 538/538/538 539/539/539 542/542/542
f 538/538/538 542/542/542 543/543/543
f 541/541/541 538/538/538 544/544/544
f 538/538/538 543/543/543 545/545/545
f 538/538/538 546/546/546 544/544/544
f 546/546/546 538/538/538 545/545/545
f 546/546/546 547/547/547 544/544/544
f 546/546/546 545/545/545 547/547/547
f 547/547/547 548/548/548 544/544/544
f 545/545/545 549/549/549 547/547/547
f 549/549/549 550/550/550 547/547/547
f 548/548/548 547/547/547 551/551/551
f 550/550/550 552/552/552 547/547/547
f 547/547/547 552/552/552 551/551/551
f 550/550/550 553/553/553 552/552/552
f 552/552/552 554/554/554 551/551/551
f 553/553/553 554/554/554 552/552/552
f 554/554/554 555/555/555 551/551/551
f 553/553/553 556/556/556 554/554/554
f 554/554/554 557/557/557 555/555/555
f 556/556/556 558/558/558 554/554/554
f 554/554/554 558/558/558 557/557/557
f 561/561/561 560/560/560 559/559/559
f 559/559/559 560/560/560 562/562/562
f 563/563/563 560/560/560 561/561/561
f 562/562/562 560/560/560 564/564/564
f 565/565/565 560/560/560 563/563/563
f 564/564/564 560/560/560 566/566/566
f 567/567/567 560/560/560 565/565/565
f 566/566/566 560/560/560 567/567/567
f 570/570/570 569/569/569 568/568/568
f 568/568/568 569/569/569 571/571/571
f 572/572/572 569/569/569 570/570/570
f 571/571/571 569/569/569 573/573/573
f 574/574/574 569/569/569 572/572/572
f 573/573/573 569/569/569 575/575/575
f 576/576/576 569/569/569 574/574/574
f 575/575/575 569/569/569 576/576/576
f 579/579/579 578/578/578 577/577/577
f 577/577/577 578/578/578 580/580/580
f 581/581/581 578/578/578 579/579/579
f 580/580/580 578/578/578 582/582/582
f 583/583/583 578/578/578 581/581/581
f 582/582/582 578/578/578 584/584/584
f 585/585/585 578/578/578 583/583/583
f 584/584/584 578/578/578 585/585/585
f 588/588/588 587/587/587 586/586/586
f 586/586/586 587/587/587 589/589/589
f 590/590/590 587/587/587 588/588/588
f 589/589/589 587/587/587 591/591/591
f 592/592/592 587/587/587 590/590/590
f 591/591/591 587/587/587 593/593/593
f 594/594/594 587/587/587 592/592/592
f 593/593/593 587/587/587 594/594/594
